<svg xmlns="http://www.w3.org/2000/svg" xmlns:xlink="http://www.w3.org/1999/xlink" width="35" height="40" viewBox="0 0 35 40">
    <defs>
        <path id="a" d="M.336.318H34.28V40H.336z"/>
        <path id="c" d="M.163 15.057c0 8.237 6.857 14.914 15.317 14.914s15.318-6.677 15.318-14.914C30.798 6.819 23.94.142 15.48.142S.163 6.819.163 15.057"/>
        <path id="e" d="M.163 15.057c0 8.237 6.857 14.914 15.317 14.914s15.318-6.677 15.318-14.914C30.798 6.819 23.94.142 15.48.142S.163 6.819.163 15.057"/>
        <path id="g" d="M.163 15.057c0 8.237 6.857 14.914 15.317 14.914s15.318-6.677 15.318-14.914C30.798 6.819 23.94.142 15.48.142S.163 6.819.163 15.057"/>
        <path id="i" d="M.163 15.057c0 8.237 6.857 14.914 15.317 14.914s15.318-6.677 15.318-14.914C30.798 6.819 23.94.142 15.48.142S.163 6.819.163 15.057"/>
        <path id="k" d="M.163 15.057c0 8.237 6.857 14.914 15.317 14.914s15.318-6.677 15.318-14.914C30.798 6.819 23.94.142 15.48.142S.163 6.819.163 15.057"/>
        <path id="m" d="M.163 15.057c0 8.237 6.857 14.914 15.317 14.914s15.318-6.677 15.318-14.914C30.798 6.819 23.94.142 15.48.142S.163 6.819.163 15.057"/>
        <path id="o" d="M.163 15.057c0 8.237 6.857 14.914 15.317 14.914s15.318-6.677 15.318-14.914C30.798 6.819 23.94.142 15.48.142S.163 6.819.163 15.057"/>
        <path id="q" d="M.163 15.057c0 8.237 6.857 14.914 15.317 14.914s15.318-6.677 15.318-14.914C30.798 6.819 23.94.142 15.48.142S.163 6.819.163 15.057"/>
        <path id="s" d="M.163 15.057c0 8.237 6.857 14.914 15.317 14.914s15.318-6.677 15.318-14.914C30.798 6.819 23.94.142 15.48.142S.163 6.819.163 15.057"/>
        <path id="u" d="M.163 15.057c0 8.237 6.857 14.914 15.317 14.914s15.318-6.677 15.318-14.914C30.798 6.819 23.94.142 15.48.142S.163 6.819.163 15.057"/>
        <path id="w" d="M.163 15.057c0 8.237 6.857 14.914 15.317 14.914s15.318-6.677 15.318-14.914C30.798 6.819 23.94.142 15.48.142S.163 6.819.163 15.057"/>
        <path id="y" d="M.163 15.057c0 8.237 6.857 14.914 15.317 14.914s15.318-6.677 15.318-14.914C30.798 6.819 23.94.142 15.48.142S.163 6.819.163 15.057"/>
        <path id="A" d="M.163 15.057c0 8.237 6.857 14.914 15.317 14.914s15.318-6.677 15.318-14.914C30.798 6.819 23.94.142 15.48.142S.163 6.819.163 15.057"/>
        <path id="C" d="M.163 15.057c0 8.237 6.857 14.914 15.317 14.914s15.318-6.677 15.318-14.914C30.798 6.819 23.94.142 15.48.142S.163 6.819.163 15.057"/>
        <path id="E" d="M.163 15.057c0 8.237 6.857 14.914 15.317 14.914s15.318-6.677 15.318-14.914C30.798 6.819 23.94.142 15.48.142S.163 6.819.163 15.057"/>
        <path id="G" d="M.163 15.057c0 8.237 6.857 14.914 15.317 14.914s15.318-6.677 15.318-14.914C30.798 6.819 23.94.142 15.48.142S.163 6.819.163 15.057"/>
        <path id="I" d="M.163 15.057c0 8.237 6.857 14.914 15.317 14.914s15.318-6.677 15.318-14.914C30.798 6.819 23.94.142 15.48.142S.163 6.819.163 15.057"/>
        <path id="K" d="M.163 15.057c0 8.237 6.857 14.914 15.317 14.914s15.318-6.677 15.318-14.914C30.798 6.819 23.94.142 15.48.142S.163 6.819.163 15.057"/>
        <path id="M" d="M.163 15.057c0 8.237 6.857 14.914 15.317 14.914s15.318-6.677 15.318-14.914C30.798 6.819 23.94.142 15.48.142S.163 6.819.163 15.057"/>
        <path id="O" d="M.163 15.057c0 8.237 6.857 14.914 15.317 14.914s15.318-6.677 15.318-14.914C30.798 6.819 23.94.142 15.48.142S.163 6.819.163 15.057"/>
        <path id="Q" d="M.163 15.057c0 8.237 6.857 14.914 15.317 14.914s15.318-6.677 15.318-14.914C30.798 6.819 23.94.142 15.48.142S.163 6.819.163 15.057"/>
        <path id="S" d="M.163 15.057c0 8.237 6.857 14.914 15.317 14.914s15.318-6.677 15.318-14.914C30.798 6.819 23.94.142 15.48.142S.163 6.819.163 15.057"/>
    </defs>
    <g fill="none" fill-rule="evenodd">
        <g>
            <mask id="b" fill="#fff">
                <use xlink:href="#a"/>
            </mask>
            <path fill="#FFF" d="M34.28 17.235C34.28 7.892 26.68.318 17.308.318 7.934.318.336 7.892.336 17.235c0 7.808 5.307 14.377 12.522 16.326L17.308 40l4.45-6.44c7.214-1.948 12.522-8.517 12.522-16.325" mask="url(#b)"/>
        </g>
        <g transform="translate(1.633 2.449)">
            <mask id="d" fill="#fff">
                <use xlink:href="#c"/>
            </mask>
            <path fill="#FFF" d="M-17.907-10.449l.222 1.792.196 1.583a3158.598 3158.598 0 0 1 .42 3.387 62.41 62.41 0 0 0-.87-.08 38.172 38.172 0 0 0-.783-.06 25.414 25.414 0 0 0-1.415-.048 18.51 18.51 0 0 0-1.387.05c-.242.017-.493.038-.757.064-.264.026-.541.056-.836.091l.329 1.922.275 1.608.269 1.568.304 1.772c-.562.065-1.05.128-1.502.202-.45.073-.862.155-1.27.256-.407.101-.81.22-1.242.367-.43.147-.89.32-1.41.532.137.632.257 1.18.368 1.684l.308 1.411.301 1.379.34 1.56c-.455.176-.855.339-1.224.501a12.868 12.868 0 0 0-2.002 1.087c-.33.216-.67.46-1.047.745l1.37 5.238c.362-.258.69-.48 1.006-.677a12.493 12.493 0 0 1 1.918-.987c.353-.147.736-.293 1.172-.452l-.309-1.413a4383.912 4383.912 0 0 0-.883-4.041c.497-.192.934-.35 1.345-.482a14.598 14.598 0 0 1 2.39-.56c.429-.066.894-.123 1.427-.181l-.274-1.595-.241-1.409-.247-1.443-.294-1.722c.28-.031.544-.059.795-.083a27.428 27.428 0 0 1 1.392-.092 18.437 18.437 0 0 1 1.298 0 34.777 34.777 0 0 1 1.418.086c.258.021.53.046.82.074l-.22-1.774-.195-1.567-.199-1.609c-.07-.575-.149-1.2-.238-1.922.612.06 1.149.121 1.647.188a29.603 29.603 0 0 1 2.841.518c.499.113 1.035.244 1.648.397l-.14-1.826-.124-1.616-.124-1.623-.144-1.87a60.781 60.781 0 0 0-3.214-.567 49.384 49.384 0 0 0-1.613-.21 44.368 44.368 0 0 0-1.615-.153m-6.361.059a28.708 28.708 0 0 0-3.076.49 26.273 26.273 0 0 0-2.997.84l.407 1.863.353 1.615a2061.574 2061.574 0 0 1 .749 3.426 28.69 28.69 0 0 0-1.348.62 13.456 13.456 0 0 0-2.193 1.343 21.5 21.5 0 0 0-1.137.92l1.677 6.414c.392-.315.748-.585 1.091-.825a13.265 13.265 0 0 1 2.094-1.204c.386-.18.805-.36 1.283-.555l-.379-1.733-.334-1.531a1487.139 1487.139 0 0 1-.754-3.448c.548-.235 1.031-.43 1.484-.594.454-.164.879-.297 1.308-.41.43-.112.864-.204 1.34-.285.475-.082.99-.154 1.583-.226l-.307-1.787-.27-1.584-.27-1.573-.304-1.776m19.177 2.445l.058 1.984.049 1.678c.016.536.03 1.07.048 1.644l.054 1.859c-.598-.202-1.123-.377-1.612-.537-.49-.16-.942-.303-1.396-.44-.455-.138-.91-.27-1.404-.403a75.536 75.536 0 0 0-1.64-.424l.145 1.89.121 1.58.118 1.542.134 1.744a75.115 75.115 0 0 0-1.558-.355 29.256 29.256 0 0 0-2.685-.464c-.473-.06-.98-.114-1.558-.168l.213 1.722.179 1.443.174 1.41.198 1.595a57.623 57.623 0 0 0-1.476-.114 23.72 23.72 0 0 0-1.264-.04 19.572 19.572 0 0 0-1.251.041 29.403 29.403 0 0 0-1.44.127l.266 1.552.222 1.302.219 1.273.247 1.443c-.508.051-.95.103-1.36.162a14.484 14.484 0 0 0-2.28.508c-.39.121-.809.264-1.284.437l.302 1.378.252 1.158.248 1.133c.086.392.178.811.28 1.286-.416.144-.784.277-1.122.412a12.189 12.189 0 0 0-1.842.899c-.303.18-.619.381-.967.617l1.162 4.442a22.612 22.612 0 0 1 2.609-.988c.89-.275 1.793-.497 2.706-.67a27.875 27.875 0 0 1 2.773-.378 32.514 32.514 0 0 1 2.814-.117c1.356 0 2.715.076 4.074.211 1.355.135 2.706.326 4.053.554 1.34.228 2.67.492 3.995.773 1.316.28 2.623.576 3.922.87l1.162.264 1.156.259c.384.084.768.169 1.15.251.383.082.765.163 1.147.241l.065-.999.06-.903.06-.935.073-1.11c.462.128.865.238 1.239.337a50.493 50.493 0 0 0 2.118.514c.371.08.77.163 1.226.253l.132-1.168a1284.81 1284.81 0 0 1 .234-2.078l.141-1.248c.475.098.889.18 1.274.252a25.97 25.97 0 0 0 2.197.323c.387.042.805.078 1.283.114l.202-1.261.178-1.111.181-1.135.217-1.35a53.1 53.1 0 0 0 1.272.085 25.397 25.397 0 0 0 1.104.03 19.097 19.097 0 0 0 1.24-.04 44.865 44.865 0 0 0 1.46-.127l.287-1.388.254-1.222.26-1.25.308-1.489c.545-.06 1.024-.12 1.472-.187a19.549 19.549 0 0 0 2.603-.572c.468-.136.978-.297 1.566-.494l.398-1.564.352-1.38.36-1.415.43-1.687c.623-.22 1.174-.421 1.69-.627a25.21 25.21 0 0 0 3.055-1.449c.558-.306 1.168-.66 1.876-1.084l.536-1.774.552-1.826.568-1.88.585-1.938a45.513 45.513 0 0 1-4.577 1.965 37.68 37.68 0 0 1-4.25 1.276 34.263 34.263 0 0 1-7.879.913c-1.73 0-3.433-.126-5.121-.346a54.57 54.57 0 0 1-5.059-.922 94.328 94.328 0 0 1-5.087-1.326A299.275 299.275 0 0 1 .977-6.136a873.43 873.43 0 0 0-3.012-.917 226.298 226.298 0 0 0-3.056-.892M.994 1.32l.033-1.828.03-1.618.03-1.66.035-1.985 1.633.636c.491.19.943.365 1.393.536a159.22 159.22 0 0 0 2.976 1.091L6.998-1.59 6.894.013 6.79 1.576l-.115 1.769a158.145 158.145 0 0 1-2.819-.977c-.426-.154-.854-.31-1.318-.48-.466-.17-.968-.357-1.545-.569L.962 3.095.934 4.582.91 6.033c-.01.502-.02 1.037-.03 1.643l-1.48-.514c-.449-.156-.865-.3-1.282-.443a160.652 160.652 0 0 0-2.806-.93l.047 1.65.041 1.384.04 1.35.045 1.53c-.539-.163-1.01-.306-1.45-.435a48.745 48.745 0 0 0-2.514-.68c-.444-.11-.923-.22-1.47-.343.043.573.08 1.069.116 1.526l.098 1.282.096 1.253.109 1.422a76 76 0 0 0-1.405-.288 30.323 30.323 0 0 0-2.422-.379 49.4 49.4 0 0 0-1.405-.14 3604.956 3604.956 0 0 0 .627 5.057 58.451 58.451 0 0 0-1.339-.092 23.604 23.604 0 0 0-1.146-.032 18.272 18.272 0 0 0-1.136.034 38.015 38.015 0 0 0-1.308.106l.22 1.279.184 1.076.18 1.054.205 1.197c-.464.043-.868.086-1.241.135a14.618 14.618 0 0 0-2.087.423c-.359.1-.743.22-1.179.364l-.257-1.176-.226-1.034-.23-1.056-.275-1.255c.455-.158.855-.288 1.23-.397a14.63 14.63 0 0 1 2.179-.463c.39-.054.812-.1 1.297-.148l-.224-1.312-.198-1.155c-.065-.38-.13-.763-.203-1.181l-.24-1.406a40.476 40.476 0 0 1 1.37-.117 21.931 21.931 0 0 1 1.192-.037 26.22 26.22 0 0 1 1.866.078c.233.018.477.037.739.059l-.179-1.441-.158-1.272-.16-1.302-.193-1.552c.549.049 1.03.098 1.477.152a29.552 29.552 0 0 1 2.547.418c.448.09.929.196 1.478.32l-.12-1.57-.106-1.388c-.035-.456-.07-.917-.11-1.42-.038-.507-.08-1.059-.13-1.695.579.136 1.083.26 1.551.38a51.128 51.128 0 0 1 2.65.755c.463.143.96.301 1.526.483l-.05-1.697-.043-1.5-.045-1.537-.054-1.836A163.112 163.112 0 0 1-.566.747l1.56.572M23.31 5.824l.352-1.695.311-1.5.319-1.536.38-1.835c.607-.073 1.14-.146 1.64-.228a19.836 19.836 0 0 0 2.91-.709 42.001 42.001 0 0 0 1.757-.611 6541.47 6541.47 0 0 1-.88 3.454L29.708 2.7l-.442 1.736c-.621.218-1.16.397-1.656.547-.493.15-.944.271-1.39.374-.445.102-.885.186-1.358.26-.472.075-.976.14-1.55.207l-.342 1.65-.287 1.381-.28 1.35-.318 1.53c-.288.032-.557.06-.81.083a26.99 26.99 0 0 1-1.389.09 18.864 18.864 0 0 1-1.795-.021 54.064 54.064 0 0 1-1.336-.094l-.238 1.488-.2 1.249-.196 1.22-.221 1.386c-.501-.04-.938-.08-1.343-.125-.406-.044-.78-.094-1.152-.152a29.166 29.166 0 0 1-1.148-.203 65.58 65.58 0 0 1-1.334-.277l-.154 1.37-.13 1.15-.127 1.126-.144 1.28a68.54 68.54 0 0 1-1.28-.278 44.028 44.028 0 0 1-2.214-.563c-.39-.108-.812-.229-1.295-.367l-.083 1.276-.071 1.075-.069 1.051-.078 1.196a134.354 134.354 0 0 1-2.326-.66 258.01 258.01 0 0 1-1.086-.323l-1.27-.382-.023 1.199-.018 1.009-.017.988c-.007.343-.014.709-.02 1.123l-1.227-.352a219.647 219.647 0 0 0-2.13-.602c-.377-.103-.783-.213-1.25-.337l-.033-1.153-.03-1.015-.03-1.038-.036-1.232a129.935 129.935 0 0 1 3.533 1.022l1.28.388.023-1.229.02-1.081.019-1.105.024-1.314 1.33.419a118.16 118.16 0 0 0 3.569 1.077c.03-.484.059-.91.085-1.31l.075-1.153.077-1.177.092-1.4c.506.151.947.283 1.356.401a44.958 44.958 0 0 0 2.318.616c.406.097.842.196 1.34.305.059-.519.11-.976.16-1.405l.139-1.239.143-1.267.17-1.51c.52.12.976.221 1.399.308a25.965 25.965 0 0 0 2.412.39c.425.05.884.094 1.409.137L17 10.265a1366.944 1366.944 0 0 0 .437-2.73L17.7 5.89l.737.06a33.395 33.395 0 0 0 1.29.07 19.62 19.62 0 0 0 2.73-.103c.267-.026.55-.056.854-.092m-11.1-.86l.194-1.72.172-1.522.175-1.56.21-1.863c.578.148 1.082.273 1.551.38a26.748 26.748 0 0 0 2.674.484c.471.062.98.117 1.563.172l-.294 1.83-.245 1.533-.24 1.497-.27 1.694a43.951 43.951 0 0 1-1.483-.151 26.47 26.47 0 0 1-2.536-.433 65.008 65.008 0 0 1-1.471-.34l-.188 1.672-.16 1.402-.153 1.369-.175 1.55a62.78 62.78 0 0 1-1.407-.334 45.344 45.344 0 0 1-2.432-.68c-.43-.132-.892-.277-1.424-.445a4609.346 4609.346 0 0 0-.186 2.848l-.083 1.27-.094 1.44a133.48 133.48 0 0 1-3.74-1.188c-.42-.14-.874-.29-1.394-.461l-.026 1.445-.022 1.214-.022 1.187-.024 1.347-1.34-.424c-.408-.128-.785-.247-1.163-.364a128.908 128.908 0 0 0-2.539-.758 2214.372 2214.372 0 0 0 .073 2.489l.033 1.112.037 1.264c-.489-.136-.917-.254-1.316-.36a50.26 50.26 0 0 0-2.282-.564c-.402-.09-.837-.183-1.333-.285a2857.917 2857.917 0 0 0 .257 3.363l.09 1.183a78.276 78.276 0 0 0-1.279-.242 28.876 28.876 0 0 0-2.206-.314c-.387-.04-.803-.078-1.278-.115l-.149-1.198-.13-1.054-.134-1.076-.158-1.28c.497.041.933.082 1.339.127a29.552 29.552 0 0 1 2.308.344c.405.075.842.161 1.34.262l-.1-1.293-.087-1.14-.089-1.164-.106-1.386c.52.112.976.214 1.4.312a50.142 50.142 0 0 1 2.391.62c.419.117.867.246 1.38.395l-.04-1.388c-.014-.426-.025-.823-.037-1.223l-.036-1.25-.043-1.49a175.646 175.646 0 0 1 2.665.839c.397.128.792.259 1.22.4l1.406.465.027-1.484.023-1.31.025-1.34.029-1.598 1.466.51a199.002 199.002 0 0 0 2.494.849c.434.143.901.294 1.433.464.04-.587.073-1.106.105-1.592l.092-1.405.094-1.44.113-1.717c.558.186 1.046.347 1.498.493.45.145.866.275 1.281.398.414.122.828.24 1.277.358.447.118.93.239 1.479.37M-34.674-7.064a22.586 22.586 0 0 0-1.093.68c-.12.08-.24.16-.358.242h.43a36.862 36.862 0 0 1 .777-.71l.244-.212m68.64 14.702c-.665.38-1.24.699-1.765.975a24.28 24.28 0 0 1-2.878 1.305 42.96 42.96 0 0 1-1.597.564 1547.324 1547.324 0 0 0-.714 2.8l-.318 1.249-.36 1.416c-.558.178-1.041.325-1.486.448a19.217 19.217 0 0 1-2.473.519c-.426.06-.88.114-1.4.17l-.28 1.35-.235 1.137-.23 1.111-.263 1.263c-.262.027-.505.05-.736.069a27.308 27.308 0 0 1-1.26.075 18.49 18.49 0 0 1-1.096.002 22.999 22.999 0 0 1-.537-.02 39.069 39.069 0 0 1-1.216-.078l-.197 1.232a661.878 661.878 0 0 1-.329 2.05l-.184 1.154a42.437 42.437 0 0 1-1.228-.104 26.335 26.335 0 0 1-2.103-.295 65.772 65.772 0 0 1-1.22-.232l-.116 1.033-.099.874c-.03.276-.062.548-.094.831l-.101.899a50.119 50.119 0 0 0 3.301.372c.368.028.738.051 1.108.069l.134-.84.127-.79.133-.834.158-.983a53.424 53.424 0 0 0 1.163.071 22.883 22.883 0 0 0 1.008.025 18.005 18.005 0 0 0 1.132-.034 38.868 38.868 0 0 0 1.33-.106c.09-.426.168-.803.241-1.155l.21-1.015.216-1.037.255-1.233c.495-.05.929-.098 1.335-.154.406-.056.783-.118 1.165-.194.382-.077.767-.167 1.19-.279a36.88 36.88 0 0 0 1.411-.407l.329-1.289.289-1.135c.095-.373.19-.749.296-1.16l.351-1.38a41.08 41.08 0 0 0 1.514-.512 23.388 23.388 0 0 0 2.721-1.182c.497-.25 1.038-.537 1.665-.88l.417-1.38c.14-.468.283-.94.427-1.415l.438-1.451c.15-.492.3-.988.45-1.489M30.662 18.57c-.592.312-1.105.573-1.574.8a22.761 22.761 0 0 1-2.582 1.075c-.439.153-.906.303-1.438.466l-.32 1.257-.27 1.058a1612.527 1612.527 0 0 1-.563 2.213c-.504.148-.943.27-1.346.372-.402.102-.77.185-1.136.255-.363.07-.724.127-1.112.178-.387.05-.802.095-1.275.14l-.203.982a624.333 624.333 0 0 1-.336 1.62l-.173.835a33.618 33.618 0 0 0 2.284-.258 33.187 33.187 0 0 0 2.358-.44l.233-.914.215-.843.225-.884.266-1.043c.506-.149.952-.286 1.37-.426a21.824 21.824 0 0 0 2.454-.984c.446-.207.933-.446 1.495-.731l.345-1.142.353-1.168c.12-.395.24-.793.36-1.195l.37-1.223" mask="url(#d)"/>
        </g>
        <g transform="translate(1.633 2.449)">
            <mask id="f" fill="#fff">
                <use xlink:href="#e"/>
            </mask>
            <path fill="#4A90E2" d="M1.122-5.772l-.036 1.985-.03 1.66c-.01.53-.02 1.054-.029 1.618L.994 1.319l1.544.57c.465.17.893.325 1.32.479a132.2 132.2 0 0 0 2.818.976l.115-1.768.103-1.564.104-1.603.126-1.917A159.22 159.22 0 0 1 4.148-4.6c-.45-.17-.902-.345-1.393-.536-.492-.19-1.023-.398-1.633-.636" mask="url(#f)"/>
        </g>
        <g transform="translate(1.633 2.449)">
            <mask id="h" fill="#fff">
                <use xlink:href="#g"/>
            </mask>
            <path fill="#4A90E2" d="M12.963-1.701c-.08.7-.148 1.306-.21 1.863l-.176 1.56a3592.054 3592.054 0 0 0-.366 3.242c.547.133 1.026.245 1.47.341a26.388 26.388 0 0 0 2.537.432c.447.055.93.103 1.482.152l.271-1.694.24-1.497.245-1.533.293-1.83a44.165 44.165 0 0 1-1.562-.172 26.313 26.313 0 0 1-2.674-.484 66.22 66.22 0 0 1-1.55-.38" mask="url(#h)"/>
        </g>
        <g transform="translate(1.633 2.449)">
            <mask id="j" fill="#fff">
                <use xlink:href="#i"/>
            </mask>
            <path fill="#4A90E2" d="M30.98-2.29c-.66.243-1.232.443-1.757.611-.524.167-1.002.303-1.474.418-.471.114-.936.207-1.437.29-.499.083-1.032.156-1.639.229l-.38 1.835-.319 1.537-.311 1.499-.352 1.696a38.503 38.503 0 0 0 1.551-.208 19.77 19.77 0 0 0 2.748-.634c.496-.15 1.035-.33 1.656-.547l.442-1.737.392-1.534a4370.322 4370.322 0 0 1 .88-3.455" mask="url(#j)"/>
        </g>
        <g transform="translate(1.633 2.449)">
            <mask id="l" fill="#fff">
                <use xlink:href="#k"/>
            </mask>
            <path fill="#4A90E2" d="M-4.882-.78l.054 1.836.045 1.537.043 1.5.05 1.697A161.417 161.417 0 0 1-.6 7.162l1.479.514c.01-.605.02-1.141.03-1.643l.026-1.451.027-1.487.032-1.776-1.56-.572A272.62 272.62 0 0 0-1.919.254 143.5 143.5 0 0 0-4.882-.781" mask="url(#l)"/>
        </g>
        <g transform="translate(1.633 2.449)">
            <mask id="n" fill="#fff">
                <use xlink:href="#m"/>
            </mask>
            <path fill="#4A90E2" d="M6.675 3.344l-.112 1.719-.094 1.439-.092 1.405L6.273 9.5c.53.168.994.313 1.423.444.429.131.824.248 1.218.359.394.11.788.216 1.215.323.425.106.883.215 1.406.334l.175-1.551.154-1.37.158-1.401.19-1.673a62.906 62.906 0 0 1-1.48-.37 43.842 43.842 0 0 1-1.277-.358c-.415-.123-.83-.253-1.282-.398-.451-.146-.939-.307-1.498-.494" mask="url(#n)"/>
        </g>
        <g transform="translate(1.633 2.449)">
            <mask id="p" fill="#fff">
                <use xlink:href="#o"/>
            </mask>
            <path fill="#4A90E2" d="M23.311 5.824c-.303.036-.587.066-.855.092-.267.026-.52.047-.76.064a20.52 20.52 0 0 1-1.372.049 19.657 19.657 0 0 1-1.22-.036 56.89 56.89 0 0 1-1.405-.104l-.263 1.647-.22 1.38-.217 1.349-.244 1.528a61.438 61.438 0 0 0 1.336.094 22.142 22.142 0 0 0 1.157.033 18.84 18.84 0 0 0 1.303-.045c.23-.015.47-.034.723-.058.254-.023.523-.05.811-.082l.318-1.53.28-1.35.286-1.382.342-1.649" mask="url(#p)"/>
        </g>
        <g transform="translate(1.633 2.449)">
            <mask id="r" fill="#fff">
                <use xlink:href="#q"/>
            </mask>
            <path fill="#4A90E2" d="M35.887 1.276c-.708.424-1.318.778-1.876 1.084a25.21 25.21 0 0 1-3.054 1.449c-.517.206-1.067.408-1.691.627l-.43 1.687-.36 1.414-.352 1.381-.398 1.564a42.96 42.96 0 0 0 1.597-.564A24.28 24.28 0 0 0 32.2 8.613c.525-.276 1.1-.595 1.764-.975l.497-1.644.438-1.452.45-1.488.537-1.778" mask="url(#r)"/>
        </g>
        <g transform="translate(1.633 2.449)">
            <mask id="t" fill="#fff">
                <use xlink:href="#s"/>
            </mask>
            <path fill="#4A90E2" d="M.879 7.676L.85 9.274l-.025 1.34-.023 1.31-.027 1.484 1.394.46a122.128 122.128 0 0 0 3.74 1.188l.094-1.44.083-1.27.085-1.299.101-1.548a140.288 140.288 0 0 1-3.928-1.313L.88 7.676" mask="url(#t)"/>
        </g>
        <g transform="translate(1.633 2.449)">
            <mask id="v" fill="#fff">
                <use xlink:href="#u"/>
            </mask>
            <path fill="#4A90E2" d="M11.535 10.959l-.17 1.51-.143 1.267-.14 1.238-.159 1.405c.497.107.93.199 1.335.278a26.037 26.037 0 0 0 2.299.355c.405.044.842.084 1.342.124l.222-1.386.196-1.22a3773.775 3773.775 0 0 0 .438-2.737 44.487 44.487 0 0 1-1.41-.137 25.873 25.873 0 0 1-2.41-.39 62.572 62.572 0 0 1-1.4-.307" mask="url(#v)"/>
        </g>
        <g transform="translate(1.633 2.449)">
            <mask id="x" fill="#fff">
                <use xlink:href="#w"/>
            </mask>
            <path fill="#4A90E2" d="M27.725 10.482c-.587.197-1.097.358-1.565.494a19.549 19.549 0 0 1-2.603.572c-.448.067-.927.127-1.472.187l-.308 1.489-.26 1.25-.254 1.222-.287 1.387c.518-.055.973-.108 1.4-.17a19.217 19.217 0 0 0 2.472-.518c.445-.123.928-.27 1.485-.448l.361-1.416.318-1.249.326-1.278.387-1.522" mask="url(#x)"/>
        </g>
        <g transform="translate(1.633 2.449)">
            <mask id="z" fill="#fff">
                <use xlink:href="#y"/>
            </mask>
            <path fill="#4A90E2" d="M-4.517 11.704l.044 1.49.036 1.25.036 1.223.04 1.388a141.683 141.683 0 0 1 3.702 1.122l1.34.425c.01-.498.017-.937.024-1.348l.022-1.187.022-1.214.026-1.445-1.406-.465c-.428-.141-.823-.272-1.22-.4a134.967 134.967 0 0 0-2.666-.84" mask="url(#z)"/>
        </g>
        <g transform="translate(1.633 2.449)">
            <mask id="B" fill="#fff">
                <use xlink:href="#A"/>
            </mask>
            <path fill="#4A90E2" d="M5.909 15.057l-.092 1.4-.077 1.178-.075 1.152-.086 1.31c.483.139.904.259 1.295.367a45.33 45.33 0 0 0 2.213.562c.388.089.805.18 1.281.278l.145-1.279.126-1.126.13-1.15.155-1.37a67.165 67.165 0 0 1-1.34-.305 44.958 44.958 0 0 1-2.319-.616c-.409-.118-.85-.25-1.356-.401" mask="url(#B)"/>
        </g>
        <g transform="translate(1.633 2.449)">
            <mask id="D" fill="#fff">
                <use xlink:href="#C"/>
            </mask>
            <path fill="#4A90E2" d="M20.976 17.083a41.367 41.367 0 0 1-1.46.127 21.455 21.455 0 0 1-1.24.04 23.342 23.342 0 0 1-1.103-.03c-.194-.009-.395-.021-.606-.035-.21-.014-.432-.03-.668-.05-.08.507-.15.946-.216 1.35l-.181 1.136-.178 1.11-.202 1.262a61.307 61.307 0 0 0 1.215.078 25.294 25.294 0 0 0 1.054.027 18.524 18.524 0 0 0 1.184-.037 38.388 38.388 0 0 0 1.392-.116l.262-1.262.23-1.113c.077-.365.153-.734.236-1.135.085-.405.176-.845.28-1.352" mask="url(#D)"/>
        </g>
        <g transform="translate(1.633 2.449)">
            <mask id="F" fill="#fff">
                <use xlink:href="#E"/>
            </mask>
            <path fill="#4A90E2" d="M32.233 13.373c-.627.343-1.168.63-1.664.88a23.556 23.556 0 0 1-2.722 1.182c-.463.168-.955.333-1.514.512l-.352 1.38a1355.157 1355.157 0 0 0-.584 2.295c-.1.393-.208.813-.328 1.289.53-.163.998-.313 1.437-.466a22.63 22.63 0 0 0 2.582-1.075c.47-.227.982-.488 1.574-.8l.408-1.348.359-1.188.367-1.215.437-1.446" mask="url(#F)"/>
        </g>
        <g transform="translate(1.633 2.449)">
            <mask id="H" fill="#fff">
                <use xlink:href="#G"/>
            </mask>
            <path fill="#4A90E2" d="M.68 18.602l-.023 1.313-.02 1.105-.02 1.081-.022 1.229 1.271.382a199.352 199.352 0 0 0 2.165.636c.378.107.784.22 1.247.347l.078-1.196.069-1.052.07-1.074.084-1.277a137.243 137.243 0 0 1-2.433-.721c-.367-.114-.736-.229-1.135-.355l-1.33-.418" mask="url(#H)"/>
        </g>
        <g transform="translate(1.633 2.449)">
            <mask id="J" fill="#fff">
                <use xlink:href="#I"/>
            </mask>
            <path fill="#4A90E2" d="M10.368 21.304l-.14 1.248-.119 1.05-.116 1.028-.132 1.168c.454.09.851.166 1.22.232a25.734 25.734 0 0 0 2.103.296c.37.037.77.07 1.228.103l.185-1.154a5016.145 5016.145 0 0 1 .328-2.05l.197-1.232a42.433 42.433 0 0 1-1.283-.113 26.052 26.052 0 0 1-2.197-.323 68.73 68.73 0 0 1-1.274-.253" mask="url(#J)"/>
        </g>
        <g transform="translate(1.633 2.449)">
            <mask id="L" fill="#fff">
                <use xlink:href="#K"/>
            </mask>
            <path fill="#4A90E2" d="M25.068 20.91c-.529.163-.989.296-1.412.408a19.094 19.094 0 0 1-2.355.473c-.405.055-.84.105-1.334.154-.095.463-.179.863-.256 1.233l-.214 1.037c-.07.331-.137.661-.211 1.015l-.24 1.155c.473-.045.888-.09 1.275-.141a19.37 19.37 0 0 0 1.113-.178c.364-.07.732-.153 1.135-.254.403-.103.841-.225 1.346-.373l.3-1.177.264-1.036.27-1.058.32-1.257" mask="url(#L)"/>
        </g>
        <g transform="translate(1.633 2.449)">
            <mask id="N" fill="#fff">
                <use xlink:href="#M"/>
            </mask>
            <path fill="#4A90E2" d="M-4.218 21.92l.036 1.232.03 1.037.03 1.016.034 1.153a115.241 115.241 0 0 1 2.317.635c.345.097.69.197 1.062.304l1.226.352.02-1.123.018-.988.018-1.01.022-1.198-1.28-.387a185.51 185.51 0 0 0-2.227-.657c-.394-.113-.819-.232-1.306-.367" mask="url(#N)"/>
        </g>
        <g transform="translate(1.633 2.449)">
            <mask id="P" fill="#fff">
                <use xlink:href="#O"/>
            </mask>
            <path fill="#4A90E2" d="M5.278 24.695c-.027.413-.05.775-.073 1.108l-.06.936-.06.903-.065 1a3.35 3.35 0 0 1-.005.064c0 .022-.002.043-.004.065a3.734 3.734 0 0 0-.009.133c.443.116.83.217 1.188.308a48.66 48.66 0 0 0 2.031.47c.356.074.739.15 1.176.231l.014-.123.014-.121.013-.119.013-.116.101-.898.094-.832.099-.873.116-1.032c-.456-.091-.855-.173-1.226-.254a45.771 45.771 0 0 1-2.118-.514c-.374-.1-.777-.21-1.239-.336" mask="url(#P)"/>
        </g>
        <g transform="translate(1.633 2.449)">
            <mask id="R" fill="#fff">
                <use xlink:href="#Q"/>
            </mask>
            <path fill="#4A90E2" d="M19.046 26.385c-.25.024-.483.045-.703.063a26.071 26.071 0 0 1-1.205.069 19.335 19.335 0 0 1-1.563-.017 39.938 39.938 0 0 1-1.163-.071l-.158.983-.133.835-.127.79-.134.839-.024.148-.024.153-.025.157-.026.161a67.025 67.025 0 0 0 1.108.065 25.868 25.868 0 0 0 .962.023 17.924 17.924 0 0 0 1.09-.032 45.768 45.768 0 0 0 1.28-.096 24.926 24.926 0 0 0 .069-.326l.032-.156.032-.152.173-.836.163-.787.173-.832.203-.981" mask="url(#R)"/>
        </g>
        <g transform="translate(1.633 2.449)">
            <mask id="T" fill="#fff">
                <use xlink:href="#S"/>
            </mask>
            <path fill="#4A90E2" d="M29.234 23.298c-.562.285-1.049.524-1.495.731a21.838 21.838 0 0 1-2.455.984c-.418.14-.863.277-1.369.426l-.266 1.043-.225.884-.215.843-.233.914a7.708 7.708 0 0 1-.057.225l-.03.117-.03.118a38.78 38.78 0 0 0 1.307-.39 21.57 21.57 0 0 0 2.34-.9c.424-.19.887-.409 1.421-.67l.34-1.126.3-.99.305-1.01.362-1.2" mask="url(#T)"/>
        </g>
    </g>
</svg>
