<svg xmlns="http://www.w3.org/2000/svg" width="30.532" height="51.2" viewBox="0 0 30.532 51.2">
    <defs>
        <style>
            .cls-1{fill:#fff}
        </style>
    </defs>
    <path id="start" d="M14.093 51.2H9.864V36.169L15.736 25.6l-1.642-6.81-2.584 4.227H0v-4.228h8.455l4.7-7.752a4.377 4.377 0 0 1 3.524-2.112 2.124 2.124 0 0 1 1.174.234l12.682 3.992v12.214h-4.229v-8.69l-4.934-1.644L30.531 51.2h-4.225l-6.812-19.024-5.4 7.28V51.2zm-2.35-42.745a4.21 4.21 0 0 1-4.227-4.228 4.236 4.236 0 1 1 4.227 4.227z" class="cls-1"/>
</svg>
