<svg xmlns="http://www.w3.org/2000/svg" width="31" height="52" viewBox="0 0 31 52">
    <path fill="#3E6B9C" fill-rule="evenodd" d="M12.211 8.925a4.21 4.21 0 0 1-4.227-4.228A4.21 4.21 0 0 1 12.21.47a4.21 4.21 0 0 1 4.228 4.227 4.21 4.21 0 0 1-4.228 4.228zm-.235 14.561H.468v-4.227h8.455l4.697-7.75c.705-1.175 2.114-2.115 3.523-2.115.47 0 .705 0 1.175.235L31 13.622v12.213h-4.227v-8.69L21.84 15.5 31 51.669h-4.227l-6.811-19.023-5.402 7.28V51.67h-4.228V36.64l5.872-10.57-1.644-6.81-2.584 4.227z"/>
</svg>
