<svg xmlns="http://www.w3.org/2000/svg" width="48" height="49" viewBox="0 0 48 49">
    <path fill="#FFF" fill-rule="evenodd" d="M43.212 34.583h-6.326c.763-2.766 1.225-5.827 1.322-9.088h7.527a22.01 22.01 0 0 1-2.523 9.088zm-11.928 10.39c2.007-1.99 3.69-4.778 4.888-8.14h5.67a21.983 21.983 0 0 1-10.558 8.14zm-6.237.95v-9.09h8.738c-1.989 5.057-5.135 8.518-8.738 9.09zM12.02 23.249a36.609 36.609 0 0 1 1.185-8.44h9.616v8.44H12.02zm10.8 11.335h-9.373c-.818-2.732-1.321-5.813-1.416-9.088h10.79v9.088zm0 11.323c-3.544-.633-6.635-4.073-8.601-9.072h8.602v9.072zM6.16 36.834h5.667c1.203 3.361 2.885 6.15 4.895 8.134-4.306-1.55-7.98-4.42-10.562-8.134zm-3.891-11.34H9.8c.093 3.262.553 6.323 1.316 9.089H4.788a21.998 21.998 0 0 1-2.52-9.088zM4.349 14.81h6.56a38.284 38.284 0 0 0-1.113 8.439H2.252c.131-3.01.878-5.86 2.097-8.44zM16.743 3.513c-2.19 2.151-3.97 5.287-5.189 9.045H5.577c2.582-4.156 6.51-7.38 11.166-9.045zm6.079-.916v9.96h-8.928c1.937-5.476 5.182-9.297 8.928-9.96zm11.277 9.96h-9.052V2.582c3.811.6 7.102 4.438 9.052 9.977zm8.329 0h-5.982C35.23 8.8 33.453 5.665 31.264 3.514c4.647 1.665 8.577 4.89 11.164 9.045zm3.32 10.69h-7.54a38.687 38.687 0 0 0-1.112-8.438h6.552a22.043 22.043 0 0 1 2.1 8.439zm-20.701 2.248h10.928c-.102 3.275-.6 6.356-1.416 9.088h-9.512v-9.088zm10.94-2.247h-10.94v-8.44h9.743a36.273 36.273 0 0 1 1.197 8.44zM24 0C10.768 0 0 10.873 0 24.242 0 37.61 10.768 48.487 24 48.487c13.236 0 24-10.877 24-24.245C48 10.873 37.236 0 24 0z"/>
</svg>
