<svg xmlns="http://www.w3.org/2000/svg" xmlns:xlink="http://www.w3.org/1999/xlink" width="19" height="33" viewBox="0 0 19 33">
    <defs>
        <path id="a" d="M0 22.885V.27h19.004v22.616H0z"/>
    </defs>
    <g fill="none" fill-rule="evenodd">
        <path fill="#0087C8" d="M12.733 12.313h-.19.38z"/>
        <path fill="#FFF" d="M16.263 29.406c.763-.352.679-.641-.188-.641H2.93c-.865 0-.95.29-.187.644l5.354 2.483c.762.354 2.01.355 2.773.003l5.394-2.49zM2.742 2.815c-.763.352-.68.64.186.64h13.148c.865 0 .95-.29.187-.643L10.908.329c-.762-.354-2.01-.355-2.772-.003l-5.394 2.49zM5.875 10.319c.786 0 1.422.65 1.422 1.454 0 .805-.636 1.453-1.422 1.453-.784 0-1.421-.648-1.421-1.453s.637-1.454 1.421-1.454M8.763 19.21c-.034.675-.54 1.099-1.175 1.15-.09 1.315-.017 2.662-.017 3.983 0 .435-.347.79-.771.79H4.954a.783.783 0 0 1-.774-.79V20.34h-.09c-.609 0-1.1-.506-1.1-1.129 0 0-.153-3.065-.152-3.079.48-1.236 1.66-2.111 3.037-2.111 1.38 0 2.56.875 3.04 2.111l-.152 3.08M13.046 10.319c.787 0 1.422.65 1.422 1.454 0 .805-.635 1.453-1.422 1.453-.784 0-1.419-.648-1.419-1.453s.635-1.454 1.42-1.454M15.589 21.425h-1.27l-.159 2.918a.785.785 0 0 1-.772.793h-.692a.787.787 0 0 1-.774-.793l-.146-2.918h-1.27a.578.578 0 0 1-.574-.587l.08-1.47c.234-.6.636-1.12 1.146-1.491l.252-2.381c0-.815.647-1.476 1.442-1.476h.391c.797 0 1.442.66 1.442 1.476l.257 2.38c.506.372.909.892 1.144 1.491l.08 1.47a.58.58 0 0 1-.577.588"/>
        <g transform="translate(0 4.533)">
            <mask id="b" fill="#fff">
                <use xlink:href="#a"/>
            </mask>
            <path fill="#FFF" d="M17.614.269H1.39C.625.269 0 .949 0 1.778v19.598c0 .83.625 1.51 1.39 1.51h16.224c.765 0 1.39-.68 1.39-1.51V1.778c0-.829-.625-1.509-1.39-1.509m0 1.098c.144 0 .303.176.303.41v19.599c0 .235-.16.412-.303.412H1.39c-.143 0-.303-.17-.303-.412V1.778c0-.242.16-.411.303-.411h16.224" mask="url(#b)"/>
        </g>
    </g>
</svg>
