<svg xmlns="http://www.w3.org/2000/svg" xmlns:xlink="http://www.w3.org/1999/xlink" width="77" height="87" viewBox="0 0 77 87">
    <defs>
        <filter id="a" width="153.8%" height="146.1%" x="-26.9%" y="-23%" filterUnits="objectBoundingBox">
            <feOffset dx="3" dy="3" in="SourceAlpha" result="shadowOffsetOuter1"/>
            <feGaussianBlur in="shadowOffsetOuter1" result="shadowBlurOuter1" stdDeviation="3"/>
            <feColorMatrix in="shadowBlurOuter1" result="shadowMatrixOuter1" values="0 0 0 0 0 0 0 0 0 0 0 0 0 0 0 0 0 0 0.5 0"/>
            <feMerge>
                <feMergeNode in="shadowMatrixOuter1"/>
                <feMergeNode in="SourceGraphic"/>
            </feMerge>
        </filter>
        <path id="b" d="M.364 29.396c0 15.862 12.86 28.72 28.721 28.72 15.863 0 28.722-12.858 28.722-28.72 0-15.862-12.86-28.722-28.722-28.722C13.224.674.365 13.534.365 29.396"/>
        <path id="d" d="M.364 29.396c0 15.862 12.86 28.72 28.721 28.72 15.863 0 28.722-12.858 28.722-28.72 0-15.862-12.86-28.722-28.722-28.722C13.224.674.365 13.534.365 29.396"/>
        <path id="f" d="M.364 29.396c0 15.862 12.86 28.72 28.721 28.72 15.863 0 28.722-12.858 28.722-28.72 0-15.862-12.86-28.722-28.722-28.722C13.224.674.365 13.534.365 29.396"/>
        <path id="h" d="M.364 29.396c0 15.862 12.86 28.72 28.721 28.72 15.863 0 28.722-12.858 28.722-28.72 0-15.862-12.86-28.722-28.722-28.722C13.224.674.365 13.534.365 29.396"/>
        <path id="j" d="M.364 29.396c0 15.862 12.86 28.72 28.721 28.72 15.863 0 28.722-12.858 28.722-28.72 0-15.862-12.86-28.722-28.722-28.722C13.224.674.365 13.534.365 29.396"/>
        <path id="l" d="M.364 29.396c0 15.862 12.86 28.72 28.721 28.72 15.863 0 28.722-12.858 28.722-28.72 0-15.862-12.86-28.722-28.722-28.722C13.224.674.365 13.534.365 29.396"/>
        <path id="n" d="M.364 29.396c0 15.862 12.86 28.72 28.721 28.72 15.863 0 28.722-12.858 28.722-28.72 0-15.862-12.86-28.722-28.722-28.722C13.224.674.365 13.534.365 29.396"/>
        <path id="p" d="M.364 29.396c0 15.862 12.86 28.72 28.721 28.72 15.863 0 28.722-12.858 28.722-28.72 0-15.862-12.86-28.722-28.722-28.722C13.224.674.365 13.534.365 29.396"/>
        <path id="r" d="M.364 29.396c0 15.862 12.86 28.72 28.721 28.72 15.863 0 28.722-12.858 28.722-28.72 0-15.862-12.86-28.722-28.722-28.722C13.224.674.365 13.534.365 29.396"/>
        <path id="t" d="M.364 29.396c0 15.862 12.86 28.72 28.721 28.72 15.863 0 28.722-12.858 28.722-28.72 0-15.862-12.86-28.722-28.722-28.722C13.224.674.365 13.534.365 29.396"/>
        <path id="v" d="M.364 29.396c0 15.862 12.86 28.72 28.721 28.72 15.863 0 28.722-12.858 28.722-28.72 0-15.862-12.86-28.722-28.722-28.722C13.224.674.365 13.534.365 29.396"/>
        <path id="x" d="M.364 29.396c0 15.862 12.86 28.72 28.721 28.72 15.863 0 28.722-12.858 28.722-28.72 0-15.862-12.86-28.722-28.722-28.722C13.224.674.365 13.534.365 29.396"/>
        <path id="z" d="M.364 29.396c0 15.862 12.86 28.72 28.721 28.72 15.863 0 28.722-12.858 28.722-28.72 0-15.862-12.86-28.722-28.722-28.722C13.224.674.365 13.534.365 29.396"/>
        <path id="B" d="M.364 29.396c0 15.862 12.86 28.72 28.721 28.72 15.863 0 28.722-12.858 28.722-28.72 0-15.862-12.86-28.722-28.722-28.722C13.224.674.365 13.534.365 29.396"/>
        <path id="D" d="M.364 29.396c0 15.862 12.86 28.72 28.721 28.72 15.863 0 28.722-12.858 28.722-28.72 0-15.862-12.86-28.722-28.722-28.722C13.224.674.365 13.534.365 29.396"/>
        <path id="F" d="M.364 29.396c0 15.862 12.86 28.72 28.721 28.72 15.863 0 28.722-12.858 28.722-28.72 0-15.862-12.86-28.722-28.722-28.722C13.224.674.365 13.534.365 29.396"/>
        <path id="H" d="M.364 29.396c0 15.862 12.86 28.72 28.721 28.72 15.863 0 28.722-12.858 28.722-28.72 0-15.862-12.86-28.722-28.722-28.722C13.224.674.365 13.534.365 29.396"/>
        <path id="J" d="M.364 29.396c0 15.862 12.86 28.72 28.721 28.72 15.863 0 28.722-12.858 28.722-28.72 0-15.862-12.86-28.722-28.722-28.722C13.224.674.365 13.534.365 29.396"/>
        <path id="L" d="M.364 29.396c0 15.862 12.86 28.72 28.721 28.72 15.863 0 28.722-12.858 28.722-28.72 0-15.862-12.86-28.722-28.722-28.722C13.224.674.365 13.534.365 29.396"/>
        <path id="N" d="M.364 29.396c0 15.862 12.86 28.72 28.721 28.72 15.863 0 28.722-12.858 28.722-28.72 0-15.862-12.86-28.722-28.722-28.722C13.224.674.365 13.534.365 29.396"/>
        <path id="P" d="M.364 29.396c0 15.862 12.86 28.72 28.721 28.72 15.863 0 28.722-12.858 28.722-28.72 0-15.862-12.86-28.722-28.722-28.722C13.224.674.365 13.534.365 29.396"/>
        <path id="R" d="M.364 29.396c0 15.862 12.86 28.72 28.721 28.72 15.863 0 28.722-12.858 28.722-28.72 0-15.862-12.86-28.722-28.722-28.722C13.224.674.365 13.534.365 29.396"/>
    </defs>
    <g fill="none" fill-rule="evenodd" filter="url(#a)" transform="translate(3 3)">
        <path fill="#FFF" d="M64.839 32.184C64.839 14.47 50.479.112 32.766.112 15.054.112.695 14.47.695 32.184c0 14.801 10.03 27.255 23.663 30.95l8.408 12.208 8.41-12.208C54.81 59.44 64.84 46.985 64.84 32.184"/>
        <g transform="translate(3.681 2.788)">
            <mask id="c" fill="#fff">
                <use xlink:href="#b"/>
            </mask>
            <path fill="#FFF" d="M-33.515-19.72l.415 3.45.368 3.049c.121.992.241 1.993.37 3.064l.418 3.459c-.578-.06-1.119-.11-1.633-.156-.514-.045-1-.083-1.467-.114-.468-.03-.917-.054-1.356-.069a33.796 33.796 0 0 0-2.574 0c-.43.016-.869.04-1.323.073-.454.032-.925.074-1.42.123-.495.05-1.015.109-1.568.176l.617 3.7.517 3.097.503 3.018.57 3.414a59.537 59.537 0 0 0-2.815.388c-.844.141-1.617.3-2.382.494-.763.194-1.519.424-2.328.707-.807.282-1.669.617-2.646 1.024.26 1.217.483 2.272.69 3.243l.579 2.717.564 2.654.64 3.007c-.855.337-1.606.65-2.298.963a24.008 24.008 0 0 0-3.754 2.092c-.616.418-1.256.889-1.963 1.436l2.57 10.087a36.873 36.873 0 0 1 1.885-1.305 23.269 23.269 0 0 1 3.598-1.9c.662-.283 1.38-.565 2.197-.87l-.579-2.721a8631.839 8631.839 0 0 0-1.657-7.782 47.483 47.483 0 0 1 2.522-.927 26.81 26.81 0 0 1 4.483-1.079 60.52 60.52 0 0 1 2.674-.349l-.512-3.072-.453-2.712-.462-2.779-.553-3.316c.525-.06 1.02-.114 1.492-.16.471-.044.918-.081 1.35-.11a33.66 33.66 0 0 1 3.693-.066c.414.013.837.034 1.278.062.44.027.898.062 1.38.102.485.041.993.089 1.537.142l-.412-3.414-.364-3.02-.374-3.096-.446-3.702c1.147.116 2.154.233 3.088.362.934.129 1.798.269 2.662.431.863.163 1.728.348 2.665.567.935.217 1.94.469 3.09.763l-.263-3.515-.232-3.112-.233-3.125-.269-3.6c-1.001-.211-2.004-.408-3.01-.59a101.494 101.494 0 0 0-3.017-.503 90.282 90.282 0 0 0-3.025-.404 81.062 81.062 0 0 0-3.027-.296m-11.928.113a52.484 52.484 0 0 0-5.768.945 46.761 46.761 0 0 0-5.618 1.616l.763 3.587.663 3.112.658 3.098c.23 1.073.473 2.218.746 3.5a53.13 53.13 0 0 0-2.529 1.192A25.206 25.206 0 0 0-60.639.03a40.536 40.536 0 0 0-2.133 1.774l3.145 12.35a39.333 39.333 0 0 1 2.046-1.59c.645-.464 1.265-.87 1.904-1.247.64-.377 1.3-.724 2.021-1.07.724-.348 1.511-.694 2.407-1.07l-.71-3.336-.628-2.95-.643-3.024-.77-3.615a49.936 49.936 0 0 1 2.783-1.143 27.571 27.571 0 0 1 2.452-.788c.806-.217 1.62-.394 2.51-.55a59.172 59.172 0 0 1 2.97-.435l-.574-3.443-.508-3.049-.505-3.029-.57-3.42m35.957 4.708l.108 3.821.092 3.23.09 3.167.102 3.579a332.413 332.413 0 0 0-3.022-1.033 123.57 123.57 0 0 0-2.619-.85 95.598 95.598 0 0 0-2.632-.774c-.928-.26-1.929-.525-3.074-.817l.271 3.639.228 3.045.22 2.969c.077 1.026.159 2.12.25 3.358a137.691 137.691 0 0 0-2.92-.684 62.079 62.079 0 0 0-2.519-.507 53.508 53.508 0 0 0-2.517-.387 86.87 86.87 0 0 0-2.92-.324l.4 3.317.335 2.78.327 2.712.37 3.073c-.514-.048-.997-.09-1.455-.127-.46-.037-.893-.068-1.312-.093a43.313 43.313 0 0 0-1.21-.056 36.274 36.274 0 0 0-2.312 0c-.388.013-.783.033-1.194.06-.41.027-.835.06-1.283.1-.447.04-.916.088-1.417.143l.499 2.988.417 2.508.41 2.451c.14.848.292 1.754.463 2.779-.952.1-1.782.198-2.548.313-.765.113-1.465.242-2.16.4-.692.158-1.378.347-2.115.579-.734.232-1.518.507-2.409.84l.565 2.654.474 2.23.465 2.18c.16.756.333 1.563.526 2.478-.782.277-1.47.534-2.105.793a22.668 22.668 0 0 0-3.453 1.73c-.57.346-1.161.736-1.814 1.19l2.178 8.552a41.71 41.71 0 0 1 4.892-1.901c1.669-.53 3.362-.957 5.074-1.29a50.968 50.968 0 0 1 5.2-.728 59.37 59.37 0 0 1 5.275-.226c2.543 0 5.091.148 7.64.407 2.541.259 5.074.627 7.598 1.067 2.512.438 5.009.946 7.492 1.488 2.467.538 4.918 1.11 7.354 1.676l2.179.507c.723.167 1.446.334 2.167.499.72.163 1.44.325 2.157.484.717.158 1.434.314 2.15.465.043-.701.084-1.33.122-1.925l.11-1.738.116-1.802.136-2.136c.866.245 1.622.458 2.323.648a83.91 83.91 0 0 0 3.972.99c.695.155 1.443.314 2.298.488l.247-2.25a2537.556 2537.556 0 0 1 .44-4.001c.079-.721.164-1.503.264-2.404.89.189 1.666.349 2.389.486a47.475 47.475 0 0 0 4.12.623c.724.079 1.507.15 2.404.219l.379-2.43c.115-.746.224-1.44.333-2.14l.34-2.184c.122-.78.255-1.625.406-2.6.44.035.856.067 1.252.094.395.027.772.05 1.134.07.363.018.713.032 1.056.042a36.078 36.078 0 0 0 2.151-.004 49.511 49.511 0 0 0 2.477-.159c.454-.04.933-.09 1.448-.145.2-.986.374-1.856.54-2.67l.474-2.354.488-2.407L41.47 23a70.379 70.379 0 0 0 2.759-.36c.84-.13 1.622-.276 2.413-.454a37.362 37.362 0 0 0 2.468-.648 72.673 72.673 0 0 0 2.936-.951l.747-3.012.66-2.66.675-2.722.806-3.25c1.17-.422 2.2-.81 3.17-1.206.972-.397 1.883-.8 2.808-1.25.93-.453 1.876-.952 2.918-1.54 1.047-.59 2.192-1.272 3.519-2.087l1.005-3.417 1.035-3.517c.35-1.195.707-2.402 1.064-3.621l1.098-3.731a84.157 84.157 0 0 1-8.582 3.785A69.261 69.261 0 0 1 55-5.185c-2.57.62-5.077 1.06-7.534 1.345-2.453.283-4.86.413-7.238.413-3.243 0-6.437-.242-9.602-.666-3.176-.426-6.332-1.038-9.485-1.776-3.172-.74-6.348-1.612-9.54-2.553-3.214-.947-6.447-1.966-9.707-2.993-.937-.295-1.874-.59-2.814-.884-.943-.295-1.887-.59-2.835-.882-.949-.292-1.9-.582-2.854-.869-.957-.287-1.915-.57-2.875-.848M1.924 2.942c.022-1.298.042-2.446.062-3.521l.055-3.115c.017-1.028.036-2.065.056-3.197l.067-3.823c1.144.458 2.14.858 3.062 1.225.92.368 1.767.703 2.612 1.033.843.33 1.683.652 2.592.994.906.342 1.878.703 2.988 1.108l-.236 3.691-.196 3.089c-.064.985-.125 1.961-.192 3.01l-.217 3.406c-1.05-.363-1.973-.685-2.83-.992-.86-.306-1.657-.595-2.455-.89-.8-.294-1.601-.595-2.472-.922L1.924 2.942l-.06 3.42-.052 2.863-.048 2.795-.056 3.164-2.774-.99c-.842-.302-1.623-.58-2.405-.854a295.618 295.618 0 0 0-5.262-1.79l.09 3.178.077 2.663.073 2.601.085 2.947c-1.01-.316-1.895-.59-2.718-.84a112.83 112.83 0 0 0-2.351-.686 89.447 89.447 0 0 0-2.363-.624c-.833-.21-1.73-.424-2.758-.66.082 1.104.153 2.06.22 2.94.064.873.124 1.673.184 2.468l.18 2.413.203 2.739a139.21 139.21 0 0 0-2.634-.554 55.442 55.442 0 0 0-4.541-.729 90.26 90.26 0 0 0-2.634-.27 7126.245 7126.245 0 0 0 1.175 9.737c-.468-.039-.906-.074-1.321-.103a59.644 59.644 0 0 0-2.286-.121 36.176 36.176 0 0 0-2.098 0c-.352.01-.711.028-1.084.05-.372.022-.758.05-1.164.084a69.45 69.45 0 0 0-1.288.12l.41 2.463.346 2.073.338 2.03.385 2.305c-.87.083-1.627.165-2.327.26-.699.094-1.34.201-1.975.333a26.81 26.81 0 0 0-1.938.48c-.673.194-1.393.423-2.21.701-.179-.836-.336-1.573-.482-2.264l-.424-1.992c-.14-.653-.28-1.313-.432-2.032l-.516-2.417a48.144 48.144 0 0 1 2.306-.765c.705-.212 1.36-.382 2.023-.527a28.377 28.377 0 0 1 2.063-.365 57.616 57.616 0 0 1 2.433-.283c-.156-.933-.294-1.756-.421-2.527l-.371-2.225-.38-2.274-.451-2.708c.476-.05.924-.095 1.35-.131a40.046 40.046 0 0 1 2.357-.147 34.31 34.31 0 0 1 2.198 0c.373.011.755.028 1.152.05.397.022.81.05 1.246.083.436.033.895.07 1.386.112-.124-1.023-.234-1.927-.335-2.775l-.296-2.448-.302-2.508-.361-2.99a87.34 87.34 0 0 1 2.77.293 54.04 54.04 0 0 1 4.776.806c.838.175 1.74.378 2.77.616l-.226-3.025-.199-2.67-.204-2.735-.243-3.264c1.084.261 2.03.5 2.907.73a93.868 93.868 0 0 1 4.968 1.454c.868.277 1.8.581 2.862.931l-.093-3.267-.082-2.889-.084-2.96-.1-3.536A300.379 300.379 0 0 1-3.539.89c.825.306 1.648.615 2.537.95l2.925 1.102m41.845 8.675l.66-3.265c.203-1.006.391-1.942.583-2.886l.597-2.959.714-3.535c1.137-.14 2.137-.28 3.073-.44.938-.16 1.81-.34 2.694-.56.886-.22 1.782-.481 2.764-.804a77.36 77.36 0 0 0 3.293-1.177 12876.422 12876.422 0 0 1-1.65 6.653L55.764 5.6l-.83 3.343c-1.165.42-2.175.766-3.104 1.055-.926.288-1.771.522-2.608.719-.834.196-1.66.358-2.545.501-.885.145-1.831.271-2.908.4-.24 1.191-.45 2.224-.64 3.175l-.539 2.661-.525 2.6L41.47 23a83.1 83.1 0 0 1-1.52.159 49.3 49.3 0 0 1-1.356.11 36.956 36.956 0 0 1-2.443.086 37.008 37.008 0 0 1-2.17-.063c-.382-.02-.777-.046-1.191-.077-.416-.03-.852-.064-1.314-.104l-.447 2.865-.375 2.405-.367 2.35-.415 2.668a78.227 78.227 0 0 1-2.518-.24 46.615 46.615 0 0 1-2.16-.292 53.38 53.38 0 0 1-2.151-.39c-.756-.152-1.57-.327-2.501-.535-.11.99-.203 1.847-.29 2.637l-.243 2.216-.238 2.169-.27 2.462c-.893-.19-1.675-.364-2.402-.534a80.743 80.743 0 0 1-4.15-1.083 254.87 254.87 0 0 1-2.428-.708c-.06.922-.11 1.722-.156 2.459l-.133 2.069-.129 2.024-.146 2.302a214.707 214.707 0 0 1-4.362-1.27c-.659-.198-1.32-.4-2.036-.622l-2.383-.736c-.014.867-.028 1.617-.04 2.31L1.1 49.58l-.033 1.902c-.012.66-.025 1.365-.038 2.163l-2.299-.679c-.697-.206-1.343-.396-1.99-.584a279.1 279.1 0 0 0-4.346-1.223l-.064-2.221-.056-1.955-.057-1.998-.067-2.373a238.64 238.64 0 0 1 4.544 1.33c.676.206 1.35.414 2.08.64.729.225 1.51.469 2.401.745l.042-2.366.037-2.082.037-2.127.045-2.53c.93.3 1.741.564 2.493.806.75.242 1.441.465 2.13.683a217.215 217.215 0 0 0 4.561 1.39l.16-2.521.142-2.22.145-2.267c.05-.81.106-1.686.171-2.698.948.293 1.776.546 2.543.774.767.228 1.472.432 2.177.625.704.192 1.408.375 2.17.562.76.186 1.578.377 2.513.586l.297-2.705.262-2.385.268-2.44.32-2.908c.975.23 1.83.425 2.622.593a47.475 47.475 0 0 0 4.523.751c.797.094 1.657.18 2.642.263.17-1.085.319-2.045.458-2.942l.405-2.598.415-2.658c.148-.95.308-1.982.495-3.172.486.044.944.082 1.38.116.437.033.853.062 1.253.084a39.286 39.286 0 0 0 2.285.07 34.46 34.46 0 0 0 2.571-.094 50.67 50.67 0 0 0 1.428-.123c.502-.05 1.033-.108 1.603-.177M22.956 9.961l.364-3.314.321-2.929.33-3.004.394-3.588c1.082.285 2.028.525 2.908.732a48.927 48.927 0 0 0 5.013.932c.883.118 1.837.225 2.93.331l-.55 3.524-.46 2.953-.45 2.881-.507 3.262a80.308 80.308 0 0 1-2.78-.29c-.839-.105-1.611-.221-2.382-.356a53.78 53.78 0 0 1-2.374-.477 119.18 119.18 0 0 1-2.757-.657l-.353 3.22-.298 2.7-.289 2.637c-.1.912-.206 1.885-.328 2.986-.98-.228-1.84-.438-2.637-.643a83.233 83.233 0 0 1-4.56-1.312c-.806-.253-1.674-.532-2.67-.856a9114.107 9114.107 0 0 0-.349 5.485c-.05.798-.102 1.592-.155 2.445l-.178 2.772a245.422 245.422 0 0 1-7.011-2.287l-2.615-.887-.049 2.783-.041 2.337-.04 2.286-.046 2.595-2.513-.817a236.987 236.987 0 0 0-6.94-2.16 4378.96 4378.96 0 0 0 .137 4.792l.061 2.141c.02.743.044 1.535.069 2.434-.916-.262-1.72-.488-2.467-.694a92.153 92.153 0 0 0-4.278-1.085c-.755-.174-1.57-.352-2.501-.548a5649.01 5649.01 0 0 0 .483 6.476c.05.695.107 1.437.17 2.277-.892-.18-1.674-.332-2.4-.466a61.015 61.015 0 0 0-2.068-.343c-.671-.098-1.341-.184-2.067-.262a85.778 85.778 0 0 0-2.398-.22l-.278-2.307a2665.609 2665.609 0 0 1-.495-4.102l-.297-2.465c.932.079 1.75.158 2.51.245.76.086 1.46.18 2.163.287.702.109 1.404.232 2.166.375.76.144 1.577.31 2.51.505l-.185-2.491-.164-2.194-.166-2.243-.2-2.668c.977.215 1.831.41 2.624.6.79.19 1.52.376 2.247.57.728.194 1.454.396 2.238.623.785.226 1.626.475 2.586.762l-.075-2.672-.068-2.355-.068-2.409-.081-2.869a255.753 255.753 0 0 1 4.998 1.615c.743.249 1.484.5 2.286.771l2.637.896.05-2.858.045-2.522.046-2.58.054-3.077 2.748.981c.826.295 1.587.566 2.347.831a243.965 243.965 0 0 0 5.018 1.697l.196-3.065.172-2.706.177-2.772c.062-.99.132-2.066.211-3.308 1.047.359 1.962.67 2.809.95.845.28 1.624.53 2.403.766.776.237 1.553.461 2.394.69.839.227 1.742.46 2.773.713m-87.91-23.162a42.13 42.13 0 0 0-1.37.86 45.01 45.01 0 0 0-1.35.915h.804a69.882 69.882 0 0 1 1.46-1.368c.154-.14.306-.275.457-.407M63.745 15.11a104.841 104.841 0 0 1-3.308 1.877A44.86 44.86 0 0 1 55.04 19.5c-.915.357-1.89.707-2.994 1.087l-.727 2.932-.61 2.46c-.195.786-.39 1.566-.597 2.404l-.677 2.728c-1.044.343-1.95.626-2.784.861-.832.237-1.591.427-2.344.589a35.17 35.17 0 0 1-2.293.41c-.798.118-1.652.222-2.624.327l-.525 2.603-.443 2.187c-.14.7-.281 1.395-.432 2.141l-.491 2.432c-.491.05-.948.094-1.38.132-.433.037-.84.068-1.23.091a33.758 33.758 0 0 1-3.187.057 41.993 41.993 0 0 1-1.009-.038 71.347 71.347 0 0 1-1.084-.063c-.377-.025-.773-.054-1.195-.086l-.37 2.37-.311 1.995-.304 1.954-.346 2.223a77.52 77.52 0 0 1-2.303-.2 48.136 48.136 0 0 1-3.943-.57 120.42 120.42 0 0 1-2.287-.445l-.218 1.988-.185 1.683-.176 1.601-.19 1.73a91.595 91.595 0 0 0 4.122.527 74.663 74.663 0 0 0 4.144.322l.252-1.616c.081-.514.159-1.01.237-1.52l.25-1.607.297-1.893a97.571 97.571 0 0 0 2.181.136 41.78 41.78 0 0 0 1.89.048 39.053 39.053 0 0 0 2.123-.065c.374-.022.763-.05 1.175-.084.414-.034.852-.073 1.32-.12l.45-2.224.394-1.956c.13-.643.26-1.29.404-1.996l.479-2.374a67.54 67.54 0 0 0 2.502-.297c.761-.108 1.47-.228 2.184-.374a36.44 36.44 0 0 0 2.232-.536 67.755 67.755 0 0 0 2.647-.785l.615-2.481.543-2.185c.178-.72.357-1.444.554-2.234l.659-2.658a75.635 75.635 0 0 0 2.838-.986 43.178 43.178 0 0 0 2.508-1.022c.829-.369 1.67-.776 2.595-1.254.93-.481 1.946-1.035 3.12-1.695l.782-2.657.802-2.725.822-2.795.843-2.867m-6.193 21.052c-1.11.6-2.072 1.102-2.951 1.54-.877.435-1.675.804-2.46 1.14-.784.334-1.555.635-2.381.93-.823.295-1.7.584-2.696.897l-.6 2.421a3175.69 3175.69 0 0 1-1.562 6.299c-.947.286-1.769.52-2.525.717-.754.197-1.445.356-2.129.49-.682.134-1.358.244-2.086.343-.726.098-1.504.184-2.39.271-.14.698-.266 1.317-.38 1.89l-.326 1.602a554 554 0 0 1-.305 1.516l-.325 1.609a61.42 61.42 0 0 0 4.284-.497 60.725 60.725 0 0 0 4.42-.847l.437-1.76.403-1.623.422-1.702.5-2.01c.947-.285 1.783-.55 2.567-.82a40.23 40.23 0 0 0 4.603-1.894c.836-.4 1.748-.86 2.802-1.409l.648-2.198c.217-.745.438-1.494.66-2.25.225-.76.45-1.527.677-2.3l.693-2.355" mask="url(#c)"/>
        </g>
        <g transform="translate(3.681 2.788)">
            <mask id="e" fill="#fff">
                <use xlink:href="#d"/>
            </mask>
            <path fill="#000" d="M2.164-10.714L2.097-6.89c-.02 1.132-.039 2.169-.056 3.197L1.986-.58c-.02 1.075-.04 2.223-.062 3.521L4.82 4.038c.87.327 1.673.628 2.472.923a243.556 243.556 0 0 0 5.285 1.88l.217-3.405c.066-1.05.128-2.025.192-3.01l.196-3.089.236-3.692c-1.11-.404-2.082-.765-2.988-1.107-.91-.342-1.75-.665-2.592-.994-.845-.33-1.691-.665-2.612-1.032-.922-.368-1.918-.768-3.062-1.226" mask="url(#e)"/>
        </g>
        <g transform="translate(3.681 2.788)">
            <mask id="g" fill="#fff">
                <use xlink:href="#f"/>
            </mask>
            <path fill="#000" d="M24.365-2.874L23.971.715l-.33 3.003a7094.473 7094.473 0 0 0-.685 6.243c1.026.256 1.924.471 2.757.657a48.258 48.258 0 0 0 4.756.833c.839.104 1.743.198 2.78.29.186-1.203.352-2.266.508-3.262l.449-2.882c.147-.95.297-1.907.46-2.952l.55-3.524a80.71 80.71 0 0 1-2.93-.331 48.132 48.132 0 0 1-5.013-.931c-.88-.208-1.825-.449-2.908-.733" mask="url(#g)"/>
        </g>
        <g transform="translate(3.681 2.788)">
            <mask id="i" fill="#fff">
                <use xlink:href="#h"/>
            </mask>
            <path fill="#000" d="M58.147-4.009a77.36 77.36 0 0 1-3.293 1.177c-.982.323-1.878.584-2.764.804-.884.22-1.756.4-2.694.56-.936.16-1.936.3-3.073.44l-.714 3.535-.597 2.959c-.192.944-.38 1.88-.583 2.886l-.66 3.266a70.397 70.397 0 0 0 2.908-.4 36.2 36.2 0 0 0 2.545-.501 37.6 37.6 0 0 0 2.608-.72c.93-.288 1.94-.633 3.104-1.054l.83-3.343.733-2.955a8601.002 8601.002 0 0 1 1.65-6.654" mask="url(#i)"/>
        </g>
        <g transform="translate(3.681 2.788)">
            <mask id="k" fill="#fff">
                <use xlink:href="#j"/>
            </mask>
            <path fill="#000" d="M-9.093-1.102l.1 3.537.085 2.96.082 2.888.093 3.268A297.02 297.02 0 0 1-3.47 13.34c.782.274 1.563.552 2.405.853.842.3 1.745.624 2.774.99l.056-3.163.05-2.795c.015-.921.031-1.85.05-2.864l.06-3.42c-1.086-.407-2.038-.767-2.925-1.1-.89-.336-1.712-.645-2.537-.95a264.403 264.403 0 0 0-5.555-1.993" mask="url(#k)"/>
        </g>
        <g transform="translate(3.681 2.788)">
            <mask id="m" fill="#fff">
                <use xlink:href="#l"/>
            </mask>
            <path fill="#000" d="M12.577 6.842c-.08 1.242-.148 2.317-.21 3.308l-.178 2.772-.173 2.707-.195 3.064c.996.323 1.864.604 2.67.856.803.252 1.544.477 2.284.691.738.214 1.477.415 2.276.621.798.206 1.657.415 2.637.644.121-1.102.229-2.076.328-2.987l.29-2.637.296-2.7.354-3.22a115.403 115.403 0 0 1-2.773-.714 80.52 80.52 0 0 1-2.394-.688c-.78-.237-1.558-.488-2.404-.767-.846-.281-1.76-.592-2.808-.95" mask="url(#m)"/>
        </g>
        <g transform="translate(3.681 2.788)">
            <mask id="o" fill="#fff">
                <use xlink:href="#n"/>
            </mask>
            <path fill="#000" d="M43.769 11.618c-.57.067-1.101.126-1.603.176-.5.05-.974.09-1.427.123a37.47 37.47 0 0 1-2.572.095c-.37 0-.741-.006-1.12-.018a45.02 45.02 0 0 1-1.165-.052 61.5 61.5 0 0 1-1.252-.085c-.437-.033-.896-.072-1.382-.116l-.494 3.172-.415 2.659-.405 2.596-.458 2.943c.463.04.898.074 1.314.104a58.113 58.113 0 0 0 2.298.124 34.513 34.513 0 0 0 3.506-.07c.431-.029.88-.066 1.356-.11.475-.046.98-.099 1.52-.16.22-1.086.413-2.046.596-2.945l.524-2.6.538-2.662.64-3.174" mask="url(#o)"/>
        </g>
        <g transform="translate(3.681 2.788)">
            <mask id="q" fill="#fff">
                <use xlink:href="#p"/>
            </mask>
            <path fill="#000" d="M67.349 2.86a110.257 110.257 0 0 1-3.519 2.087 53.648 53.648 0 0 1-2.918 1.54c-.925.45-1.836.853-2.808 1.25-.97.396-2 .784-3.17 1.206l-.806 3.25c-.24.964-.458 1.847-.675 2.723l-.66 2.659-.747 3.012c1.105-.38 2.079-.73 2.994-1.087a44.86 44.86 0 0 0 2.65-1.126 50.843 50.843 0 0 0 2.747-1.387c.985-.531 2.062-1.144 3.308-1.877l.931-3.166.822-2.796.844-2.866L67.35 2.86" mask="url(#q)"/>
        </g>
        <g transform="translate(3.681 2.788)">
            <mask id="s" fill="#fff">
                <use xlink:href="#r"/>
            </mask>
            <path fill="#000" d="M1.708 15.183c-.02 1.156-.039 2.156-.054 3.077-.017.914-.03 1.751-.046 2.582l-.045 2.52-.05 2.859c.976.33 1.827.62 2.615.887.786.267 1.51.511 2.233.752a224.66 224.66 0 0 0 4.779 1.536l.176-2.773.156-2.446.16-2.502.189-2.982a258.119 258.119 0 0 1-7.365-2.528l-2.748-.982" mask="url(#s)"/>
        </g>
        <g transform="translate(3.681 2.788)">
            <mask id="u" fill="#fff">
                <use xlink:href="#t"/>
            </mask>
            <path fill="#000" d="M21.688 21.504c-.12 1.092-.223 2.037-.32 2.908-.093.864-.18 1.654-.267 2.44l-.261 2.385-.299 2.705c.932.207 1.745.383 2.502.535.755.15 1.453.279 2.152.39.698.111 1.398.207 2.159.293.76.086 1.58.163 2.518.24l.416-2.668.366-2.352a7449.008 7449.008 0 0 0 .822-5.269 81.28 81.28 0 0 1-2.642-.263 47.309 47.309 0 0 1-4.522-.75c-.794-.169-1.648-.363-2.624-.594" mask="url(#u)"/>
        </g>
        <g transform="translate(3.681 2.788)">
            <mask id="w" fill="#fff">
                <use xlink:href="#v"/>
            </mask>
            <path fill="#000" d="M52.046 20.587c-1.101.38-2.057.69-2.936.951-.877.26-1.677.47-2.468.648-.791.178-1.573.323-2.413.454-.84.13-1.738.243-2.759.36l-.578 2.867-.488 2.407c-.154.77-.308 1.533-.475 2.354l-.539 2.67c.972-.105 1.825-.209 2.624-.327.8-.117 1.543-.25 2.293-.41a36.383 36.383 0 0 0 2.344-.589c.834-.235 1.74-.518 2.784-.861l.677-2.728c.207-.838.402-1.618.597-2.404.195-.792.394-1.59.61-2.46l.727-2.932" mask="url(#w)"/>
        </g>
        <g transform="translate(3.681 2.788)">
            <mask id="y" fill="#fff">
                <use xlink:href="#x"/>
            </mask>
            <path fill="#000" d="M-8.408 22.94l.08 2.868c.026.853.048 1.634.069 2.409l.068 2.355.075 2.672a260.356 260.356 0 0 1 4.76 1.46c.709.225 1.415.453 2.18.7l2.513.819.046-2.596.04-2.286c.013-.752.027-1.51.04-2.337.016-.834.032-1.74.05-2.783l-2.636-.896c-.802-.271-1.543-.522-2.287-.77a248.297 248.297 0 0 0-4.998-1.616" mask="url(#y)"/>
        </g>
        <g transform="translate(3.681 2.788)">
            <mask id="A" fill="#fff">
                <use xlink:href="#z"/>
            </mask>
            <path fill="#000" d="M11.14 29.396l-.172 2.697-.145 2.267-.142 2.22-.16 2.52c.906.269 1.696.5 2.428.71.73.208 1.405.393 2.078.569a83.13 83.13 0 0 0 2.072.513c.727.17 1.509.344 2.401.534l.271-2.462.238-2.169.243-2.215.29-2.638c-.934-.209-1.753-.4-2.514-.586a82.482 82.482 0 0 1-2.17-.563c-.705-.193-1.41-.396-2.176-.623-.767-.229-1.594-.482-2.543-.774" mask="url(#A)"/>
        </g>
        <g transform="translate(3.681 2.788)">
            <mask id="C" fill="#fff">
                <use xlink:href="#B"/>
            </mask>
            <path fill="#000" d="M39.39 33.298a75.58 75.58 0 0 1-1.447.144c-.453.04-.88.075-1.29.101-.41.026-.803.046-1.187.058a32.953 32.953 0 0 1-2.152.005c-.343-.01-.692-.024-1.056-.043a63.71 63.71 0 0 1-1.135-.07c-.395-.026-.81-.058-1.251-.093l-.406 2.6-.34 2.185-.334 2.139-.378 2.43c.421.032.817.06 1.196.086.377.025.737.045 1.083.063a35.716 35.716 0 0 0 4.196-.018 70.133 70.133 0 0 0 2.61-.224l.491-2.431.433-2.142.441-2.187.526-2.603" mask="url(#C)"/>
        </g>
        <g transform="translate(3.681 2.788)">
            <mask id="E" fill="#fff">
                <use xlink:href="#D"/>
            </mask>
            <path fill="#000" d="M60.497 26.154c-1.175.66-2.19 1.214-3.12 1.695-.926.478-1.768.885-2.597 1.254-.825.368-1.638.697-2.507 1.022-.867.323-1.79.641-2.838.986-.247.997-.461 1.862-.66 2.658a2667.224 2667.224 0 0 0-1.096 4.419l-.615 2.48a74.179 74.179 0 0 0 2.696-.896 41.747 41.747 0 0 0 2.38-.93 47.33 47.33 0 0 0 2.46-1.14c.88-.438 1.841-.94 2.952-1.54l.764-2.596.673-2.288.688-2.339.82-2.785" mask="url(#E)"/>
        </g>
        <g transform="translate(3.681 2.788)">
            <mask id="G" fill="#fff">
                <use xlink:href="#F"/>
            </mask>
            <path fill="#000" d="M1.337 36.222l-.045 2.53-.037 2.127-.037 2.082-.042 2.366 2.383.737c.717.22 1.377.423 2.035.622a194.433 194.433 0 0 0 4.363 1.27l.146-2.302.13-2.026c.042-.665.084-1.336.132-2.068l.156-2.46c-.908-.266-1.704-.504-2.445-.73a239.547 239.547 0 0 1-4.246-1.342l-2.493-.806" mask="url(#G)"/>
        </g>
        <g transform="translate(3.681 2.788)">
            <mask id="I" fill="#fff">
                <use xlink:href="#H"/>
            </mask>
            <path fill="#000" d="M19.5 41.426l-.263 2.403c-.08.715-.15 1.37-.222 2.021l-.218 1.98-.247 2.25c.851.174 1.596.32 2.287.446a47.037 47.037 0 0 0 3.943.57 77.52 77.52 0 0 0 2.302.2l.347-2.223a9883.108 9883.108 0 0 1 .615-3.949l.37-2.37c-.896-.07-1.68-.14-2.405-.219a47.623 47.623 0 0 1-4.12-.622c-.722-.138-1.499-.298-2.388-.487" mask="url(#I)"/>
        </g>
        <g transform="translate(3.681 2.788)">
            <mask id="K" fill="#fff">
                <use xlink:href="#J"/>
            </mask>
            <path fill="#000" d="M47.064 40.67c-.993.312-1.855.568-2.648.784a34.938 34.938 0 0 1-4.416.91c-.76.107-1.574.202-2.5.297l-.48 2.373-.404 1.997c-.128.638-.256 1.274-.395 1.956l-.449 2.224a68.27 68.27 0 0 0 2.39-.272 35.436 35.436 0 0 0 2.086-.342 36.542 36.542 0 0 0 2.13-.49 67.821 67.821 0 0 0 2.523-.718l.562-2.267.495-1.995c.163-.656.326-1.316.506-2.036.18-.726.374-1.514.6-2.422" mask="url(#K)"/>
        </g>
        <g transform="translate(3.681 2.788)">
            <mask id="M" fill="#fff">
                <use xlink:href="#L"/>
            </mask>
            <path fill="#000" d="M-7.85 42.611l.069 2.375c.02.707.039 1.353.056 1.997l.056 1.955.064 2.22c.874.24 1.636.451 2.342.65a351.934 351.934 0 0 1 3.994 1.158c.697.206 1.445.428 2.299.679.013-.798.027-1.504.038-2.162L1.1 49.58c.011-.626.023-1.256.034-1.944l.042-2.31c-.892-.275-1.674-.519-2.401-.744-.73-.226-1.405-.435-2.081-.64-.678-.206-1.357-.409-2.095-.625-.738-.217-1.535-.446-2.45-.706" mask="url(#M)"/>
        </g>
        <g transform="translate(3.681 2.788)">
            <mask id="O" fill="#fff">
                <use xlink:href="#N"/>
            </mask>
            <path fill="#000" d="M9.957 47.956L9.82 50.09l-.114 1.802-.11 1.738c-.04.596-.08 1.223-.124 1.924l-.008.125-.008.125a110.392 110.392 0 0 0-.016.256c.83.224 1.555.418 2.226.593s1.29.33 1.908.478c.617.147 1.234.287 1.9.428.668.141 1.386.287 2.205.445l.027-.238.025-.233.025-.228.025-.223.19-1.73.176-1.602.184-1.682.22-1.988c-.856-.174-1.604-.332-2.3-.488a83.91 83.91 0 0 1-3.971-.99c-.701-.19-1.457-.403-2.323-.647" mask="url(#O)"/>
        </g>
        <g transform="translate(3.681 2.788)">
            <mask id="Q" fill="#fff">
                <use xlink:href="#P"/>
            </mask>
            <path fill="#000" d="M35.772 51.21c-.469.047-.906.087-1.32.121a47.617 47.617 0 0 1-2.259.133 35.3 35.3 0 0 1-1.965.004 46.448 46.448 0 0 1-2.001-.094c-.361-.023-.741-.05-1.145-.079l-.295 1.894-.25 1.607-.237 1.52-.252 1.617c-.016.095-.03.19-.045.286l-.046.294a37.317 37.317 0 0 1-.096.613c.385.027.747.05 1.092.072.344.02.672.038.988.052a35.692 35.692 0 0 0 3.847-.017c.359-.02.734-.044 1.131-.075.398-.031.819-.067 1.27-.11.022-.108.044-.214.064-.319l.063-.31.06-.3.06-.292.325-1.61.306-1.514.324-1.604.381-1.888" mask="url(#Q)"/>
        </g>
        <g transform="translate(3.681 2.788)">
            <mask id="S" fill="#fff">
                <use xlink:href="#R"/>
            </mask>
            <path fill="#000" d="M54.874 45.265a91.692 91.692 0 0 1-2.803 1.41c-.832.398-1.59.736-2.337 1.043-.745.307-1.479.58-2.266.85-.783.27-1.619.535-2.567.821l-.5 2.01-.421 1.7-.403 1.624-.436 1.76-.053.215-.055.218-.055.225c-.02.075-.038.152-.057.228a71.276 71.276 0 0 0 2.451-.75 39.734 39.734 0 0 0 4.387-1.734 86.292 86.292 0 0 0 2.665-1.29l.638-2.168.56-1.906.573-1.945c.204-.693.424-1.444.68-2.31" mask="url(#S)"/>
        </g>
    </g>
</svg>
