<svg xmlns="http://www.w3.org/2000/svg" width="42" height="37" viewBox="0 0 42 37">
    <g fill="none" fill-rule="evenodd">
        <path fill="#4A90E2" d="M27.638 19.154c.644.284 1.18.48 1.609.594.43.112.843.168 1.239.168.395 0 .707-.083.935-.248.229-.165.344-.41.344-.736a.803.803 0 0 0-.147-.48 1.73 1.73 0 0 0-.447-.412c-.201-.137-.595-.345-1.183-.622-.59-.277-1.023-.536-1.302-.778-.622-.537-.933-1.21-.933-2.018 0-.808.277-1.447.83-1.917.56-.47 1.33-.705 2.312-.705.825 0 1.743.218 2.755.654l-.635 1.53a9.663 9.663 0 0 0-1.213-.42 4.015 4.015 0 0 0-1.006-.126c-.341 0-.612.085-.815.257a.848.848 0 0 0-.305.682.86.86 0 0 0 .117.454c.078.129.205.254.38.375.177.12.595.337 1.255.65.863.41 1.456.827 1.777 1.25.327.407.49.917.49 1.53 0 .83-.303 1.492-.91 1.987-.604.478-1.422.718-2.456.718-1.032 0-1.93-.186-2.691-.56v-1.827zM26.27 21.414h-1.834V17.02c0-.296.002-.531.006-.704.005-.174.034-.897.088-2.171h-.056l-2.393 7.268H20.28l-2.235-7.281h-.058c.08 1.443.12 2.43.12 2.965v4.316h-1.758v-9.28h2.68l2.196 7.096h.038l2.328-7.096h2.68v9.28zM9 19.154c.644.284 1.18.48 1.609.594.43.112.843.168 1.239.168.395 0 .707-.083.935-.248.229-.165.344-.41.344-.736a.803.803 0 0 0-.147-.48 1.73 1.73 0 0 0-.447-.412c-.201-.137-.595-.345-1.183-.622-.589-.277-1.023-.536-1.302-.778-.622-.537-.933-1.21-.933-2.018 0-.808.277-1.447.831-1.917.559-.47 1.329-.705 2.311-.705.825 0 1.743.218 2.755.654l-.635 1.53a9.663 9.663 0 0 0-1.213-.42 4.015 4.015 0 0 0-1.006-.126c-.341 0-.612.085-.815.257a.848.848 0 0 0-.305.682.86.86 0 0 0 .117.454c.078.129.205.254.381.375.176.12.594.337 1.254.65.863.41 1.456.827 1.777 1.25.327.407.49.917.49 1.53 0 .83-.303 1.492-.909 1.987-.605.478-1.423.718-2.457.718-1.032 0-1.929-.186-2.691-.56v-1.827z"/>
        <path stroke="#4A90E2" stroke-width="1.5" d="M8.832 36.114c.959-.184 1.964-.55 3.127-1.094.135-.063 1.587-.769 1.966-.933.742-.323 1.286-.471 1.797-.433.452.034.56.044 1.779.159.698.065 1.143.104 1.605.138.713.052 1.33.079 1.894.079 10.87 0 20.25-7.414 20.25-16.64C41.25 7.946 32.392.767 20.999.75 9.622.734.75 7.935.75 17.39c0 5.842 3.683 11.04 9.618 14.085l.488.25-.091.541c-.233 1.39-.86 2.69-1.933 3.848z"/>
    </g>
</svg>
