<svg xmlns="http://www.w3.org/2000/svg" width="42" height="37" viewBox="0 0 42 37">
    <g fill="none" fill-rule="evenodd">
        <path stroke="#4A90E2" stroke-width="1.5" d="M8.832 36.114c.959-.184 1.964-.55 3.127-1.094.135-.063 1.587-.769 1.966-.933.742-.323 1.286-.471 1.797-.433.452.034.56.044 1.779.159.698.065 1.143.104 1.605.138.713.052 1.33.079 1.894.079 10.87 0 20.25-7.414 20.25-16.64C41.25 7.946 32.392.767 20.999.75 9.622.734.75 7.935.75 17.39c0 5.842 3.683 11.04 9.618 14.085l.488.25-.091.541c-.233 1.39-.86 2.69-1.933 3.848z"/>
        <text fill="#4A90E2" font-family="AlmoniDLAAA-Bold, Almoni DL AAA" font-size="14" font-weight="bold">
            <tspan x="9.985" y="22">SMS</tspan>
        </text>
    </g>
</svg>
