<svg xmlns="http://www.w3.org/2000/svg" width="30.532" height="51.2" viewBox="0 0 30.532 51.2">
    <defs>
        <style>
            .cls-1{fill:#fff}
        </style>
    </defs>
    <path id="start_en" d="M14.093 0H9.864v15.03l5.872 10.57-1.643 6.81-2.584-4.227H0v4.227h8.455l4.7 7.752a4.377 4.377 0 0 0 3.524 2.112 2.124 2.124 0 0 0 1.174-.234l12.682-3.992V25.835h-4.229v8.69l-4.934 1.644L30.531 0h-4.225l-6.812 19.024-5.4-7.28V0zm-2.35 42.746a4.21 4.21 0 1 0 3 1.233 4.2 4.2 0 0 0-3-1.233z" class="cls-1" transform="rotate(180 15.266 25.6)"/>
</svg>
