<svg xmlns="http://www.w3.org/2000/svg" xmlns:xlink="http://www.w3.org/1999/xlink" width="33" height="37" viewBox="0 0 33 37">
    <defs>
        <filter id="a" width="178.6%" height="165.6%" x="-38.3%" y="-32.8%" filterUnits="objectBoundingBox">
            <feOffset dx="3" dy="3" in="SourceAlpha" result="shadowOffsetOuter1"/>
            <feGaussianBlur in="shadowOffsetOuter1" result="shadowBlurOuter1" stdDeviation="1"/>
            <feColorMatrix in="shadowBlurOuter1" result="shadowMatrixOuter1" values="0 0 0 0 0 0 0 0 0 0 0 0 0 0 0 0 0 0 0.28685462 0"/>
            <feMerge>
                <feMergeNode in="shadowMatrixOuter1"/>
                <feMergeNode in="SourceGraphic"/>
            </feMerge>
        </filter>
        <path id="b" d="M.269.254h27.155V32H.269z"/>
        <path id="d" d="M.129 12.27c0 6.714 5.442 12.156 12.155 12.156 6.713 0 12.155-5.442 12.155-12.155 0-6.714-5.442-12.155-12.155-12.155C5.57.116.129 5.557.129 12.27"/>
        <path id="f" d="M.129 12.27c0 6.714 5.442 12.156 12.155 12.156 6.713 0 12.155-5.442 12.155-12.155 0-6.714-5.442-12.155-12.155-12.155C5.57.116.129 5.557.129 12.27"/>
        <path id="h" d="M.129 12.27c0 6.714 5.442 12.156 12.155 12.156 6.713 0 12.155-5.442 12.155-12.155 0-6.714-5.442-12.155-12.155-12.155C5.57.116.129 5.557.129 12.27"/>
        <path id="j" d="M.129 12.27c0 6.714 5.442 12.156 12.155 12.156 6.713 0 12.155-5.442 12.155-12.155 0-6.714-5.442-12.155-12.155-12.155C5.57.116.129 5.557.129 12.27"/>
        <path id="l" d="M.129 12.27c0 6.714 5.442 12.156 12.155 12.156 6.713 0 12.155-5.442 12.155-12.155 0-6.714-5.442-12.155-12.155-12.155C5.57.116.129 5.557.129 12.27"/>
        <path id="n" d="M.129 12.27c0 6.714 5.442 12.156 12.155 12.156 6.713 0 12.155-5.442 12.155-12.155 0-6.714-5.442-12.155-12.155-12.155C5.57.116.129 5.557.129 12.27"/>
        <path id="p" d="M.129 12.27c0 6.714 5.442 12.156 12.155 12.156 6.713 0 12.155-5.442 12.155-12.155 0-6.714-5.442-12.155-12.155-12.155C5.57.116.129 5.557.129 12.27"/>
        <path id="r" d="M.129 12.27c0 6.714 5.442 12.156 12.155 12.156 6.713 0 12.155-5.442 12.155-12.155 0-6.714-5.442-12.155-12.155-12.155C5.57.116.129 5.557.129 12.27"/>
        <path id="t" d="M.129 12.27c0 6.714 5.442 12.156 12.155 12.156 6.713 0 12.155-5.442 12.155-12.155 0-6.714-5.442-12.155-12.155-12.155C5.57.116.129 5.557.129 12.27"/>
        <path id="v" d="M.129 12.27c0 6.714 5.442 12.156 12.155 12.156 6.713 0 12.155-5.442 12.155-12.155 0-6.714-5.442-12.155-12.155-12.155C5.57.116.129 5.557.129 12.27"/>
        <path id="x" d="M.129 12.27c0 6.714 5.442 12.156 12.155 12.156 6.713 0 12.155-5.442 12.155-12.155 0-6.714-5.442-12.155-12.155-12.155C5.57.116.129 5.557.129 12.27"/>
        <path id="z" d="M.129 12.27c0 6.714 5.442 12.156 12.155 12.156 6.713 0 12.155-5.442 12.155-12.155 0-6.714-5.442-12.155-12.155-12.155C5.57.116.129 5.557.129 12.27"/>
        <path id="B" d="M.129 12.27c0 6.714 5.442 12.156 12.155 12.156 6.713 0 12.155-5.442 12.155-12.155 0-6.714-5.442-12.155-12.155-12.155C5.57.116.129 5.557.129 12.27"/>
        <path id="D" d="M.129 12.27c0 6.714 5.442 12.156 12.155 12.156 6.713 0 12.155-5.442 12.155-12.155 0-6.714-5.442-12.155-12.155-12.155C5.57.116.129 5.557.129 12.27"/>
        <path id="F" d="M.129 12.27c0 6.714 5.442 12.156 12.155 12.156 6.713 0 12.155-5.442 12.155-12.155 0-6.714-5.442-12.155-12.155-12.155C5.57.116.129 5.557.129 12.27"/>
        <path id="H" d="M.129 12.27c0 6.714 5.442 12.156 12.155 12.156 6.713 0 12.155-5.442 12.155-12.155 0-6.714-5.442-12.155-12.155-12.155C5.57.116.129 5.557.129 12.27"/>
        <path id="J" d="M.129 12.27c0 6.714 5.442 12.156 12.155 12.156 6.713 0 12.155-5.442 12.155-12.155 0-6.714-5.442-12.155-12.155-12.155C5.57.116.129 5.557.129 12.27"/>
        <path id="L" d="M.129 12.27c0 6.714 5.442 12.156 12.155 12.156 6.713 0 12.155-5.442 12.155-12.155 0-6.714-5.442-12.155-12.155-12.155C5.57.116.129 5.557.129 12.27"/>
        <path id="N" d="M.129 12.27c0 6.714 5.442 12.156 12.155 12.156 6.713 0 12.155-5.442 12.155-12.155 0-6.714-5.442-12.155-12.155-12.155C5.57.116.129 5.557.129 12.27"/>
        <path id="P" d="M.129 12.27c0 6.714 5.442 12.156 12.155 12.156 6.713 0 12.155-5.442 12.155-12.155 0-6.714-5.442-12.155-12.155-12.155C5.57.116.129 5.557.129 12.27"/>
        <path id="R" d="M.129 12.27c0 6.714 5.442 12.156 12.155 12.156 6.713 0 12.155-5.442 12.155-12.155 0-6.714-5.442-12.155-12.155-12.155C5.57.116.129 5.557.129 12.27"/>
        <path id="T" d="M.129 12.27c0 6.714 5.442 12.156 12.155 12.156 6.713 0 12.155-5.442 12.155-12.155 0-6.714-5.442-12.155-12.155-12.155C5.57.116.129 5.557.129 12.27"/>
    </defs>
    <g fill="none" fill-rule="evenodd" filter="url(#a)">
        <mask id="c" fill="#fff">
            <use xlink:href="#b"/>
        </mask>
        <path fill="#FFF" d="M27.424 13.788c0-7.474-6.079-13.534-13.578-13.534S.27 6.314.27 13.788c0 6.246 4.246 11.501 10.017 13.06L13.846 32l3.56-5.151c5.772-1.56 10.018-6.815 10.018-13.06" mask="url(#c)"/>
        <g>
            <g transform="translate(1.407 1.758)">
                <mask id="e" fill="#fff">
                    <use xlink:href="#d"/>
                </mask>
                <path fill="#FFF" d="M-14.21-8.515l.176 1.46.156 1.29.157 1.296.177 1.464a48.253 48.253 0 0 0-1.313-.114 19.64 19.64 0 0 0-1.122-.04 14.303 14.303 0 0 0-1.1.042c-.193.013-.392.03-.602.052-.21.021-.43.046-.663.074l.261 1.567.219 1.31.213 1.277.24 1.445c-.445.053-.832.105-1.19.164a11.75 11.75 0 0 0-1.993.508c-.343.12-.707.262-1.12.434l.292 1.372.244 1.15.24 1.124.27 1.272c-.362.143-.68.275-.972.408a10.16 10.16 0 0 0-1.589.886c-.261.176-.532.375-.83.606l1.086 4.27c.288-.211.548-.392.799-.553a9.848 9.848 0 0 1 1.522-.803c.28-.12.584-.24.93-.369l-.245-1.152a3653.958 3653.958 0 0 0-.701-3.293c.394-.156.741-.285 1.067-.392a11.347 11.347 0 0 1 1.897-.457c.34-.054.71-.1 1.132-.148l-.217-1.3-.192-1.147-.195-1.176-.234-1.404a35.8 35.8 0 0 1 .631-.067 21.203 21.203 0 0 1 1.104-.076 14.246 14.246 0 0 1 1.03 0 26.882 26.882 0 0 1 1.125.07l.651.06-.174-1.445-.155-1.278-.158-1.31-.188-1.567c.485.05.911.099 1.306.154a22.919 22.919 0 0 1 2.255.422c.395.092.821.198 1.307.323l-.11-1.488-.099-1.317-.099-1.322-.113-1.524a47.098 47.098 0 0 0-2.551-.462 38.208 38.208 0 0 0-2.561-.296m-5.048.047a22.212 22.212 0 0 0-2.441.4 20.397 20.397 0 0 0-2.378.684l.323 1.518.28 1.317.279 1.311.315 1.481c-.398.178-.748.341-1.07.505a10.667 10.667 0 0 0-1.74 1.095c-.284.218-.578.464-.902.75l1.33 5.227c.312-.257.594-.477.866-.673a10.494 10.494 0 0 1 1.662-.98c.306-.148.64-.294 1.018-.453l-.3-1.412-.266-1.249a1240.201 1240.201 0 0 1-.598-2.81c.435-.191.818-.35 1.178-.483a11.668 11.668 0 0 1 2.1-.567c.378-.067.787-.125 1.257-.184l-.243-1.457-.215-1.29-.214-1.282-.241-1.448M-4.04-6.475l.046 1.617.039 1.367.038 1.34.043 1.515c-.475-.164-.89-.307-1.279-.437a40.458 40.458 0 0 0-2.222-.687c-.393-.11-.816-.223-1.3-.346l.114 1.54.096 1.288.094 1.257.105 1.421c-.459-.112-.861-.207-1.236-.29a22.645 22.645 0 0 0-2.13-.378 36.765 36.765 0 0 0-1.237-.137l.17 1.404.141 1.176.139 1.149.157 1.3a44.548 44.548 0 0 0-1.171-.093 18.33 18.33 0 0 0-1.003-.032 15.123 15.123 0 0 0-.994.033 22.729 22.729 0 0 0-1.142.103l.21 1.265.178 1.061.173 1.038.196 1.176c-.403.042-.754.084-1.078.132a11.252 11.252 0 0 0-1.81.414c-.31.099-.642.215-1.019.356l.239 1.123.2.944.197.923.223 1.048c-.331.118-.622.226-.89.336a9.593 9.593 0 0 0-1.461.733c-.242.146-.493.31-.77.502l.923 3.62a17.652 17.652 0 0 1 2.07-.805 19.25 19.25 0 0 1 2.148-.546 21.57 21.57 0 0 1 2.2-.307c.74-.067 1.486-.096 2.233-.096 1.076 0 2.154.062 3.233.172a45.7 45.7 0 0 1 3.216.452c1.063.185 2.12.4 3.17.63 1.045.227 2.081.469 3.113.709l.922.214.917.211a99.057 99.057 0 0 0 1.822.402l.052-.815.047-.735.049-.763.057-.904c.367.104.687.194.983.274a39.21 39.21 0 0 0 1.681.42c.295.065.611.132.973.206l.105-.952a1074.07 1074.07 0 0 1 .186-1.694l.111-1.017c.377.08.706.148 1.012.206a20.092 20.092 0 0 0 1.743.264c.307.033.638.063 1.018.092l.16-1.028.14-.906.145-.925.172-1.1a41.044 41.044 0 0 0 1.01.07 19.625 19.625 0 0 0 .875.024 14.755 14.755 0 0 0 .984-.033 34.691 34.691 0 0 0 1.158-.103l.229-1.13.201-.997.206-1.019.245-1.213c.432-.05.812-.098 1.168-.153a15.145 15.145 0 0 0 2.066-.466c.371-.11.776-.242 1.242-.402l.316-1.275.28-1.125.285-1.153.341-1.375a34.87 34.87 0 0 0 1.342-.51 19.733 19.733 0 0 0 2.423-1.181c.443-.25.928-.539 1.49-.884l.424-1.446.439-1.488.45-1.533.465-1.579a35.616 35.616 0 0 1-3.632 1.602c-1.158.433-2.281.775-3.373 1.04a26.538 26.538 0 0 1-6.252.744c-1.373 0-2.724-.103-4.064-.282a42.276 42.276 0 0 1-4.014-.752 73.263 73.263 0 0 1-4.037-1.08c-1.36-.401-2.729-.832-4.108-1.267a679.606 679.606 0 0 0-2.391-.747 176.008 176.008 0 0 0-2.425-.727M.79 1.075l.026-1.49.023-1.318.024-1.353.028-1.618 1.296.518a95.792 95.792 0 0 0 2.202.858c.384.145.796.297 1.265.469l-.1 1.562L5.47.01 5.39 1.284l-.092 1.442a123.238 123.238 0 0 1-2.236-.796c-.339-.125-.678-.253-1.047-.391L.79 1.075.763 2.522.742 3.734.72 4.917.697 6.256l-1.173-.42a191.584 191.584 0 0 0-2.044-.715c-.362-.124-.753-.255-1.201-.402l.038 1.344.032 1.127.031 1.1.036 1.248c-.427-.133-.802-.25-1.15-.355a37.855 37.855 0 0 0-1.995-.555 58.87 58.87 0 0 0-1.167-.279l.093 1.244.077 1.044.077 1.022.086 1.159c-.415-.09-.778-.168-1.115-.235a23.463 23.463 0 0 0-1.922-.308 38.2 38.2 0 0 0-1.115-.114 3013.864 3013.864 0 0 0 .498 4.12 45.184 45.184 0 0 0-1.062-.075 18.24 18.24 0 0 0-.91-.026 14.118 14.118 0 0 0-.901.028 20.642 20.642 0 0 0-1.038.086l.173 1.043.147.877.143.859.163.975c-.368.036-.689.07-.985.11a11.346 11.346 0 0 0-1.656.345c-.285.082-.59.179-.936.296l-.203-.958-.18-.843-.183-.86-.218-1.023c.361-.128.678-.235.976-.324a11.36 11.36 0 0 1 1.73-.377c.309-.044.644-.082 1.029-.12a545.03 545.03 0 0 1-.178-1.07l-.157-.94-.161-.963-.191-1.146a31.297 31.297 0 0 1 1.087-.095 16.948 16.948 0 0 1 .946-.03 14.726 14.726 0 0 1 .954.028c.168.01.342.021.527.035.185.014.379.03.586.048l-.142-1.175-.125-1.036c-.04-.341-.082-.685-.128-1.061l-.152-1.265c.435.04.817.08 1.172.124a22.87 22.87 0 0 1 2.021.34c.355.075.737.16 1.173.261l-.096-1.28-.084-1.13-.086-1.157-.104-1.382c.46.11.86.212 1.231.31a39.726 39.726 0 0 1 2.103.615c.367.117.761.246 1.21.394l-.039-1.383-.034-1.223-.036-1.252-.043-1.497A127.123 127.123 0 0 1-.449.609c.375.141.778.294 1.238.466m17.709 3.672l.28-1.382.246-1.222.253-1.252.302-1.496c.481-.06.904-.119 1.3-.186a15.376 15.376 0 0 0 2.31-.577c.417-.137.87-.3 1.394-.499A5448.86 5448.86 0 0 1 23.885.95c-.102.41-.203.815-.31 1.251l-.352 1.415c-.493.178-.92.324-1.313.446a15.322 15.322 0 0 1-2.18.517c-.376.06-.776.114-1.232.169l-.271 1.344-.228 1.126-.222 1.1-.252 1.247c-.229.026-.442.048-.644.067a20.864 20.864 0 0 1-1.101.074 14.575 14.575 0 0 1-1.425-.018c-.161-.008-.328-.02-.503-.032-.176-.013-.36-.027-.557-.044l-.189 1.212-.158 1.018-.156.995-.175 1.129a33.107 33.107 0 0 1-1.066-.101 19.728 19.728 0 0 1-1.825-.29c-.32-.064-.664-.138-1.058-.226l-.123 1.116-.103.938-.1.918-.115 1.042c-.378-.08-.708-.154-1.016-.226a34.172 34.172 0 0 1-1.756-.458c-.31-.089-.645-.187-1.028-.3l-.066 1.04-.056.876-.055.857-.062.974a104.42 104.42 0 0 1-2.707-.8l-1.009-.312-.017.977-.014.823-.014.805-.017.915-.972-.287a170.764 170.764 0 0 0-1.69-.49c-.3-.085-.622-.174-.992-.275l-.027-.94-.024-.827-.024-.846-.028-1.004a100.995 100.995 0 0 1 2.803.833c.308.096.639.2 1.016.316l.018-1.001.016-.881.015-.9.02-1.071 1.055.34a157.216 157.216 0 0 0 1.797.568c.313.096.65.197 1.034.31l.068-1.067.06-.94.061-.959.073-1.141c.401.123.751.23 1.076.327a34.908 34.908 0 0 0 1.84.502c.321.08.668.16 1.063.248l.126-1.144.11-1.01.114-1.033.135-1.23c.413.097.775.18 1.11.25a20.092 20.092 0 0 0 1.914.318c.338.04.702.077 1.118.112l.195-1.245a1141.705 1141.705 0 0 0 .346-2.225c.063-.401.13-.838.21-1.342a44.173 44.173 0 0 0 1.114.085 16.626 16.626 0 0 0 1.5.02 17.532 17.532 0 0 0 1.16-.083c.212-.02.437-.045.678-.074M9.69 4.046l.154-1.403.136-1.24.14-1.27.166-1.52c.458.121.859.223 1.23.31a20.706 20.706 0 0 0 2.122.394c.374.051.778.096 1.24.141L14.645.95l-.194 1.25-.19 1.22-.215 1.38c-.439-.04-.822-.079-1.177-.123a20.487 20.487 0 0 1-2.012-.352c-.353-.079-.733-.17-1.167-.278l-.15 1.363-.126 1.142-.122 1.116-.139 1.264a48.72 48.72 0 0 1-1.116-.272 35.225 35.225 0 0 1-1.93-.556c-.34-.107-.708-.225-1.13-.362a3856.678 3856.678 0 0 0-.147 2.321l-.066 1.035-.075 1.174a103.867 103.867 0 0 1-2.968-.969l-1.106-.375-.02 1.178-.018.989-.017.968-.02 1.098-1.063-.346c-.324-.105-.623-.202-.922-.297a100.293 100.293 0 0 0-2.015-.618 1853.357 1853.357 0 0 0 .058 2.029l.026.906.029 1.03c-.388-.11-.728-.207-1.044-.294a39 39 0 0 0-1.81-.46 63.03 63.03 0 0 0-1.06-.231 2390.937 2390.937 0 0 0 .205 2.74l.072.964A60.65 60.65 0 0 0-8 20.386a22.339 22.339 0 0 0-1.75-.256 36.303 36.303 0 0 0-1.015-.093l-.118-.976-.104-.86-.106-.877-.125-1.042c.394.033.74.066 1.062.103a22.864 22.864 0 0 1 1.832.28c.321.062.668.132 1.063.214l-.079-1.054-.07-.929-.07-.949-.084-1.129c.413.091.775.174 1.11.254a38.924 38.924 0 0 1 1.898.505c.332.095.688.2 1.095.322l-.032-1.13-.029-.997-.029-1.02-.034-1.214a136.69 136.69 0 0 1 2.115.684c.315.105.629.211.968.326l1.116.379.021-1.21.019-1.067.02-1.092.022-1.302 1.163.415a155.103 155.103 0 0 0 1.98.692c.344.117.715.24 1.137.378l.083-1.297.073-1.145.075-1.173.09-1.4c.442.151.83.283 1.188.402.358.118.687.224 1.017.324.328.1.657.195 1.013.292.355.096.737.194 1.174.302m-37.204-9.803a17.83 17.83 0 0 0-1.152.751h.34a29.575 29.575 0 0 1 .618-.578l.194-.173M26.952 6.225c-.527.31-.983.57-1.4.794a18.986 18.986 0 0 1-2.284 1.063c-.387.152-.8.3-1.267.46a1289.214 1289.214 0 0 0-.566 2.282l-.253 1.018-.286 1.155c-.442.145-.825.264-1.178.364a14.884 14.884 0 0 1-1.963.423c-.338.05-.699.094-1.11.138l-.223 1.102-.187.925-.183.907c-.063.314-.13.649-.208 1.029-.207.021-.4.04-.584.055a21.108 21.108 0 0 1-1 .062 14.287 14.287 0 0 1-.87.001 17.772 17.772 0 0 1-.884-.043c-.16-.01-.328-.023-.506-.036-.06.376-.11.702-.157 1.003a552.81 552.81 0 0 1-.26 1.671l-.147.941c-.363-.027-.68-.054-.974-.085a20.372 20.372 0 0 1-1.669-.24 50.963 50.963 0 0 1-.968-.19l-.092.842-.079.712-.074.678-.08.732a43.7 43.7 0 0 0 1.744.223 35.491 35.491 0 0 0 1.754.137l.107-.684a206.776 206.776 0 0 0 .206-1.324l.125-.801a41.292 41.292 0 0 0 .923.058 17.682 17.682 0 0 0 .8.02 13.912 13.912 0 0 0 .899-.028 21.71 21.71 0 0 0 1.056-.086l.19-.941.167-.828.17-.845.203-1.004c.393-.04.737-.08 1.06-.126a14.97 14.97 0 0 0 1.868-.385c.336-.091.7-.2 1.12-.332l.26-1.05.23-.925.235-.946.279-1.124c.443-.146.834-.28 1.201-.418a18.273 18.273 0 0 0 2.16-.963 42.65 42.65 0 0 0 1.32-.717l.331-1.125.34-1.153.347-1.183.357-1.213m-2.62 8.909c-.47.254-.878.467-1.25.652a17.77 17.77 0 0 1-2.049.876c-.348.125-.72.247-1.14.38l-.255 1.024-.214.863a1343.632 1343.632 0 0 1-.447 1.803c-.4.12-.748.22-1.068.303a14.917 14.917 0 0 1-1.784.353c-.307.041-.636.078-1.011.115l-.162.8a520.766 520.766 0 0 1-.266 1.319l-.138.681a25.994 25.994 0 0 0 1.813-.21 25.7 25.7 0 0 0 1.871-.359l.185-.745.17-.687.179-.72.211-.85c.402-.121.755-.233 1.087-.347a17.026 17.026 0 0 0 1.948-.802c.354-.169.74-.364 1.186-.596l.274-.93.28-.953.286-.973.293-.997" mask="url(#e)"/>
            </g>
            <g transform="translate(1.407 1.758)">
                <mask id="g" fill="#fff">
                    <use xlink:href="#f"/>
                </mask>
                <path fill="#eb2381" d="M.89-4.704L.862-3.086.838-1.733.815-.415l-.026 1.49 1.225.464c.369.138.708.266 1.047.39a103.076 103.076 0 0 0 2.236.797l.092-1.442L5.47.01l.083-1.307.1-1.562a124.187 124.187 0 0 1-2.361-.89c-.358-.14-.716-.281-1.106-.436L.89-4.705" mask="url(#g)"/>
            </g>
            <g transform="translate(1.407 1.758)">
                <mask id="i" fill="#fff">
                    <use xlink:href="#h"/>
                </mask>
                <path fill="#eb2381" d="M10.286-1.386L10.12.132l-.14 1.272a3001.75 3001.75 0 0 0-.29 2.642c.435.108.815.2 1.168.278a20.423 20.423 0 0 0 2.013.352c.354.044.737.084 1.175.123l.216-1.38.19-1.22.195-1.25.232-1.491c-.462-.045-.866-.09-1.24-.14a20.37 20.37 0 0 1-2.121-.394c-.372-.088-.773-.19-1.23-.31" mask="url(#i)"/>
            </g>
            <g transform="translate(1.407 1.758)">
                <mask id="k" fill="#fff">
                    <use xlink:href="#j"/>
                </mask>
                <path fill="#eb2381" d="M24.583-1.867a32.74 32.74 0 0 1-1.394.499 15.376 15.376 0 0 1-2.31.577c-.396.067-.819.127-1.3.186L19.277.891l-.253 1.252-.247 1.222-.279 1.382c.456-.055.856-.108 1.23-.169a15.32 15.32 0 0 0 2.182-.517c.393-.122.82-.268 1.313-.446l.351-1.415c.108-.436.21-.842.31-1.25a3640.519 3640.519 0 0 1 .699-2.817" mask="url(#k)"/>
            </g>
            <g transform="translate(1.407 1.758)">
                <mask id="m" fill="#fff">
                    <use xlink:href="#l"/>
                </mask>
                <path fill="#eb2381" d="M-3.874-.636L-3.83.86l.035 1.254.035 1.222.04 1.383A125.703 125.703 0 0 1-.476 5.837l1.173.419.024-1.34.02-1.182.022-1.212.026-1.447L-.45.61C-.825.467-1.174.336-1.523.207a111.898 111.898 0 0 0-2.35-.843" mask="url(#m)"/>
            </g>
            <g transform="translate(1.407 1.758)">
                <mask id="o" fill="#fff">
                    <use xlink:href="#n"/>
                </mask>
                <path fill="#eb2381" d="M5.297 2.726l-.089 1.4-.075 1.173-.073 1.145-.083 1.297c.422.137.79.256 1.13.363.34.106.654.201.967.292.312.09.625.176.963.263.338.087.701.175 1.116.272l.139-1.264c.043-.39.083-.75.122-1.116L9.54 5.41l.15-1.364a48.84 48.84 0 0 1-1.174-.301 34.077 34.077 0 0 1-2.03-.617c-.359-.118-.746-.25-1.189-.401" mask="url(#o)"/>
            </g>
            <g transform="translate(1.407 1.758)">
                <mask id="q" fill="#fff">
                    <use xlink:href="#p"/>
                </mask>
                <path fill="#eb2381" d="M18.498 4.747c-.241.028-.466.053-.678.075-.212.02-.413.038-.604.051a15.858 15.858 0 0 1-1.089.04 15.188 15.188 0 0 1-.967-.03c-.17-.009-.345-.02-.53-.035a43.98 43.98 0 0 1-.584-.049c-.08.504-.147.94-.21 1.342l-.175 1.126-.172 1.099-.193 1.245a47.491 47.491 0 0 0 1.06.076 17.11 17.11 0 0 0 .918.027 14.556 14.556 0 0 0 1.034-.036c.182-.013.372-.028.574-.047.201-.02.414-.042.643-.067l.252-1.247.222-1.1.228-1.127c.081-.402.17-.839.27-1.343" mask="url(#q)"/>
            </g>
            <g transform="translate(1.407 1.758)">
                <mask id="s" fill="#fff">
                    <use xlink:href="#r"/>
                </mask>
                <path fill="#eb2381" d="M28.477 1.04c-.561.345-1.046.634-1.489.884-.44.249-.841.46-1.235.651-.391.19-.777.362-1.188.53-.41.167-.847.331-1.342.51l-.341 1.375-.286 1.153-.28 1.125c-.095.39-.199.804-.315 1.275.468-.161.88-.31 1.267-.46a18.986 18.986 0 0 0 2.284-1.064c.417-.225.873-.484 1.4-.794l.394-1.34.348-1.183.357-1.213.426-1.449" mask="url(#s)"/>
            </g>
            <g transform="translate(1.407 1.758)">
                <mask id="u" fill="#fff">
                    <use xlink:href="#t"/>
                </mask>
                <path fill="#eb2381" d="M.697 6.256L.674 7.558.654 8.65.637 9.717l-.021 1.21 1.106.375.945.319a95.078 95.078 0 0 0 2.023.65l.075-1.174.066-1.035.067-1.059.08-1.262a109.239 109.239 0 0 1-3.117-1.07L.697 6.256" mask="url(#u)"/>
            </g>
            <g transform="translate(1.407 1.758)">
                <mask id="w" fill="#fff">
                    <use xlink:href="#v"/>
                </mask>
                <path fill="#eb2381" d="M9.153 8.931l-.135 1.23-.113 1.033-.111 1.01-.126 1.144c.394.088.738.162 1.059.227a20.146 20.146 0 0 0 1.824.29c.322.035.669.068 1.066.1l.176-1.129.155-.995a3152.34 3152.34 0 0 0 .348-2.23c-.417-.036-.781-.072-1.119-.111a20.022 20.022 0 0 1-1.914-.318 48.529 48.529 0 0 1-1.11-.251" mask="url(#w)"/>
            </g>
            <g transform="translate(1.407 1.758)">
                <mask id="y" fill="#fff">
                    <use xlink:href="#x"/>
                </mask>
                <path fill="#eb2381" d="M22 8.543c-.465.16-.87.292-1.242.402a15.145 15.145 0 0 1-2.066.466c-.355.055-.735.104-1.167.153l-.245 1.213-.206 1.019-.201.996-.228 1.13a29.01 29.01 0 0 0 1.11-.138 14.884 14.884 0 0 0 1.963-.423c.353-.1.736-.22 1.178-.364l.286-1.155.253-1.018.258-1.04.308-1.241" mask="url(#y)"/>
            </g>
            <g transform="translate(1.407 1.758)">
                <mask id="A" fill="#fff">
                    <use xlink:href="#z"/>
                </mask>
                <path fill="#eb2381" d="M-3.584 9.538l.034 1.214.03 1.02.028.996.032 1.131a110.189 110.189 0 0 1 2.937.915l1.063.346.02-1.099.017-.967.017-.99c.007-.352.013-.735.02-1.177L-.5 10.548c-.34-.115-.653-.221-.968-.326a105.084 105.084 0 0 0-2.115-.684" mask="url(#A)"/>
            </g>
            <g transform="translate(1.407 1.758)">
                <mask id="C" fill="#fff">
                    <use xlink:href="#B"/>
                </mask>
                <path fill="#eb2381" d="M4.689 12.27l-.073 1.142-.061.96-.06.94-.068 1.066c.383.113.718.211 1.028.3a40.774 40.774 0 0 0 1.756.458c.308.072.639.146 1.016.226l.115-1.042.1-.918.103-.937.123-1.117c-.395-.088-.742-.169-1.064-.248a34.908 34.908 0 0 1-1.839-.502c-.325-.096-.675-.204-1.076-.327" mask="url(#C)"/>
            </g>
            <g transform="translate(1.407 1.758)">
                <mask id="E" fill="#fff">
                    <use xlink:href="#D"/>
                </mask>
                <path fill="#eb2381" d="M16.645 13.922a31.986 31.986 0 0 1-1.159.104 16.58 16.58 0 0 1-.984.033 14.199 14.199 0 0 1-.876-.025 26.962 26.962 0 0 1-1.01-.069l-.171 1.1c-.05.328-.098.628-.144.925l-.141.906c-.05.313-.101.648-.16 1.028a47.389 47.389 0 0 0 .964.063 19.546 19.546 0 0 0 .836.022 14.313 14.313 0 0 0 .94-.03 22.814 22.814 0 0 0 1.105-.094l.207-1.03.183-.906.187-.925.223-1.102" mask="url(#E)"/>
            </g>
            <g transform="translate(1.407 1.758)">
                <mask id="G" fill="#fff">
                    <use xlink:href="#F"/>
                </mask>
                <path fill="#eb2381" d="M25.577 10.899c-.497.28-.927.513-1.32.717a18.404 18.404 0 0 1-2.16.963c-.367.137-.758.272-1.2.418-.106.421-.196.788-.28 1.124a1129.118 1129.118 0 0 0-.464 1.87l-.26 1.05c.42-.132.792-.255 1.14-.379a17.668 17.668 0 0 0 2.049-.876c.373-.185.78-.398 1.25-.652l.322-1.099.285-.968.292-.99.346-1.178" mask="url(#G)"/>
            </g>
            <g transform="translate(1.407 1.758)">
                <mask id="I" fill="#fff">
                    <use xlink:href="#H"/>
                </mask>
                <path fill="#eb2381" d="M.54 15.16l-.019 1.07-.015.9-.016.882-.018 1.001 1.009.312a155.06 155.06 0 0 0 1.718.518c.3.087.622.18.99.282l.061-.974.055-.857.056-.875.066-1.041a106.722 106.722 0 0 1-1.93-.588l-.901-.29-1.056-.34" mask="url(#I)"/>
            </g>
            <g transform="translate(1.407 1.758)">
                <mask id="K" fill="#fff">
                    <use xlink:href="#J"/>
                </mask>
                <path fill="#eb2381" d="M8.227 17.362l-.111 1.017-.094.855-.093.839-.104.952c.36.073.675.135.968.188a19.907 19.907 0 0 0 1.669.24c.294.032.611.06.974.086l.147-.94a4190.85 4190.85 0 0 1 .26-1.672l.156-1.003c-.379-.03-.71-.06-1.017-.093a20.155 20.155 0 0 1-1.744-.263 53.269 53.269 0 0 1-1.01-.206" mask="url(#K)"/>
            </g>
            <g transform="translate(1.407 1.758)">
                <mask id="M" fill="#fff">
                    <use xlink:href="#L"/>
                </mask>
                <path fill="#eb2381" d="M19.892 17.042c-.42.132-.784.24-1.12.332a15.125 15.125 0 0 1-1.869.385c-.322.045-.666.085-1.058.126l-.204 1.004-.17.845-.167.828-.19.941c.374-.037.704-.074 1.011-.115.308-.042.594-.088.883-.145.29-.057.581-.125.901-.207.32-.084.668-.183 1.068-.304l.238-.96c.073-.294.14-.568.21-.844l.213-.862c.076-.307.16-.64.254-1.024" mask="url(#M)"/>
            </g>
            <g transform="translate(1.407 1.758)">
                <mask id="O" fill="#fff">
                    <use xlink:href="#N"/>
                </mask>
                <path fill="#eb2381" d="M-3.347 17.864l.028 1.005.024.845.024.827.027.94a147.935 147.935 0 0 1 1.839.518c.274.079.547.16.843.247l.972.287.016-.915.014-.805.015-.823.017-.977-1.016-.315a144.298 144.298 0 0 0-1.767-.536c-.312-.091-.65-.189-1.036-.298" mask="url(#O)"/>
            </g>
            <g transform="translate(1.407 1.758)">
                <mask id="Q" fill="#fff">
                    <use xlink:href="#P"/>
                </mask>
                <path fill="#eb2381" d="M4.188 20.125l-.057.904-.049.763-.047.735-.052.815-.003.052-.004.053a3.124 3.124 0 0 0-.003.054l-.003.055c.351.094.658.177.942.25a37.77 37.77 0 0 0 1.612.384c.282.06.586.122.933.188a6.212 6.212 0 0 0 .022-.199l.01-.096.01-.095a402.928 402.928 0 0 0 .155-1.41c.025-.227.05-.46.079-.712l.092-.841c-.362-.074-.678-.14-.973-.207a35.512 35.512 0 0 1-1.68-.419c-.297-.08-.617-.17-.984-.274" mask="url(#Q)"/>
            </g>
            <g transform="translate(1.407 1.758)">
                <mask id="S" fill="#fff">
                    <use xlink:href="#R"/>
                </mask>
                <path fill="#eb2381" d="M15.114 21.503a33.286 33.286 0 0 1-1.057.086 15.403 15.403 0 0 1-2.137-.017c-.153-.01-.313-.02-.484-.033l-.125.801-.106.68-.1.644-.107.684-.019.12-.02.125c-.006.042-.012.085-.02.128-.006.043-.012.087-.02.132a51.806 51.806 0 0 0 .88.052 19.988 19.988 0 0 0 .763.019 13.85 13.85 0 0 0 .865-.026 35.384 35.384 0 0 0 1.016-.078 20.805 20.805 0 0 0 .054-.266c.01-.043.018-.085.026-.127l.025-.124.138-.681.13-.641.136-.679.162-.8" mask="url(#S)"/>
            </g>
            <g transform="translate(1.407 1.758)">
                <mask id="U" fill="#fff">
                    <use xlink:href="#T"/>
                </mask>
                <path fill="#eb2381" d="M23.198 18.987c-.446.232-.832.427-1.186.596a17.036 17.036 0 0 1-1.948.802c-.332.114-.686.226-1.087.347l-.211.85-.179.72-.17.687-.185.745a6.42 6.42 0 0 1-.045.184l-.024.095-.024.096c.383-.11.72-.213 1.038-.318a16.816 16.816 0 0 0 1.856-.733 36.52 36.52 0 0 0 1.128-.546l.27-.918.237-.806.242-.823.288-.978" mask="url(#U)"/>
            </g>
        </g>
    </g>
</svg>
