<svg xmlns="http://www.w3.org/2000/svg" id="prefix__emojy" width="56" height="56" viewBox="0 0 56 56">
    <defs>
        <style>
            .prefix__cls-1{fill:#005baf}
        </style>
    </defs>
    <path id="prefix__Fill_4" d="M8.066 5.945a1.48 1.48 0 0 1-.612-.132L.887 2.869A1.5 1.5 0 1 1 2.114.132L8.68 3.076a1.5 1.5 0 0 1-.614 2.869" class="prefix__cls-1" data-name="Fill 4" transform="translate(37.093 14.778)"/>
    <path id="prefix__Fill_6" d="M8 4a4 4 0 1 1-4-4 4 4 0 0 1 4 4" class="prefix__cls-1" data-name="Fill 6" transform="translate(34.427 21.736)"/>
    <path id="prefix__Fill_8" d="M1.5 5.945a1.5 1.5 0 0 1-.612-2.869L7.453.132A1.5 1.5 0 1 1 8.68 2.869L2.114 5.813a1.48 1.48 0 0 1-.612.132" class="prefix__cls-1" data-name="Fill 8" transform="translate(10.927 14.778)"/>
    <path id="prefix__Fill_10" d="M0 4a4 4 0 1 0 4-4 4 4 0 0 0-4 4" class="prefix__cls-1" data-name="Fill 10" transform="translate(15.16 21.736)"/>
    <path id="prefix__Fill_12" d="M1.5 7.508A1.5 1.5 0 0 1 .35 5.046C3.069 1.792 9.266 0 17.8 0a1.5 1.5 0 0 1 0 3C10.391 3 4.729 4.484 2.652 6.97a1.5 1.5 0 0 1-1.152.538" class="prefix__cls-1" data-name="Fill 12" transform="translate(17.759 34.756)"/>
    <g id="prefix__Ellipse_8" data-name="Ellipse 8" style="stroke:#005baf;stroke-width:3px;fill:none">
        <circle cx="28" cy="28" r="28" style="stroke:none"/>
        <circle cx="28" cy="28" r="26.5" style="fill:none"/>
    </g>
</svg>
