<svg xmlns="http://www.w3.org/2000/svg" id="prefix__food" width="40.484" height="38.31" viewBox="0 0 40.484 38.31">
    <path id="prefix__Path" d="M40.314 16.456a8.179 8.179 0 0 0-1.207-6.321 4.288 4.288 0 0 0-3.444-1.605h-5.128l.4-7.614a.919.919 0 0 0-.91-.916H.9a.913.913 0 0 0-.9.916l1.691 33.25a4.141 4.141 0 0 0 4.134 4.144h19.3a4.136 4.136 0 0 0 4.117-4.144l.317-7.473a11.585 11.585 0 0 0 10.62-9.6c.049-.238.08-.459.131-.636" style="fill:#005baf"/>
    <path id="prefix__Fill_1" d="M6.324.821a6.565 6.565 0 0 1 .637 4.273c-.031.176-.065.393-.1.629C6.507 8.081 4.693 12.372 0 12.916L.6 0h4.171a1.784 1.784 0 0 1 1.553.821" data-name="Fill 1" transform="translate(29.446 11.104)" style="fill:#fff"/>
</svg>
