<svg xmlns="http://www.w3.org/2000/svg" xmlns:xlink="http://www.w3.org/1999/xlink" width="98.762" height="111.719" viewBox="0 0 98.762 111.719">
  <defs>
    <style>
      .cls-1 {
        fill: none;
      }

      .cls-2 {
        fill: #fff;
      }

      .cls-3 {
        clip-path: url(#clip-path);
      }

      .cls-4 {
        fill: #eb2381;
      }

      .cls-5 {
        filter: url(#Path_638);
      }
    </style>
    <filter id="Path_638" x="0" y="0" width="98.762" height="111.719" filterUnits="userSpaceOnUse">
      <feOffset dx="4" dy="4" input="SourceAlpha"/>
      <feGaussianBlur stdDeviation="4" result="blur"/>
      <feFlood flood-opacity="0.396"/>
      <feComposite operator="in" in2="blur"/>
      <feComposite in="SourceGraphic"/>
    </filter>
    <clipPath id="clip-path">
      <circle id="Ellipse_15" data-name="Ellipse 15" class="cls-1" cx="32.918" cy="32.918" r="32.918"/>
    </clipPath>
  </defs>
  <g id="pin_shadow" transform="translate(-1803.03 -13.853)">
    <g class="cls-5" transform="matrix(1, 0, 0, 1, 1803.03, 13.85)">
      <path id="Path_638-2" data-name="Path 638" class="cls-2" d="M1885.792,59.234a37.381,37.381,0,1,0-45.806,36.416l8.425,13.923,8.424-13.923A37.387,37.387,0,0,0,1885.792,59.234Z" transform="translate(-1803.03 -13.85)"/>
    </g>
    <g id="Group_34" data-name="Group 34" transform="translate(1815.493 26.516)">
      <g id="Group_33" data-name="Group 33" class="cls-3">
        <g id="Group_32" data-name="Group 32" transform="translate(-8.941 -45.367)">
          <path id="Path_639" data-name="Path 639" class="cls-4" d="M1902.047,70.581c4.408,1.782,6.613,3.094,11.021,6.933-.049,4.488-.073,6.732-.123,11.22-4.4-3.84-6.6-5.152-11-6.94C1901.987,77.309,1902.007,75.066,1902.047,70.581Z" transform="translate(-1801.869 21.36)"/>
          <path id="Path_640" data-name="Path 640" class="cls-2" d="M1891.564,68.335a27.36,27.36,0,0,1,11.022,2.362c-.04,4.485-.06,6.727-.1,11.212a27.31,27.31,0,0,0-11-2.38C1891.52,75.051,1891.534,72.812,1891.564,68.335Z" transform="translate(-1802.408 21.244)"/>
          <path id="Path_641" data-name="Path 641" class="cls-4" d="M1881.081,69.4a36.169,36.169,0,0,1,11.021-1.065c-.03,4.477-.045,6.716-.074,11.194a36.053,36.053,0,0,0-11,1.041C1881.052,76.1,1881.061,73.872,1881.081,69.4Z" transform="translate(-1802.946 21.241)"/>
          <path id="Path_642" data-name="Path 642" class="cls-2" d="M1870.6,72.7a67.553,67.553,0,0,1,11.021-3.352c-.02,4.469-.029,6.7-.049,11.17a67.236,67.236,0,0,0-11,3.322C1870.585,79.384,1870.589,77.155,1870.6,72.7Z" transform="translate(-1803.485 21.296)"/>
          <path id="Path_643" data-name="Path 643" class="cls-4" d="M1860.116,77.029c4.409-1.874,6.613-2.849,11.022-4.493-.01,4.455-.015,6.683-.025,11.14-4.4,1.633-6.6,2.6-11,4.462Z" transform="translate(-1804.024 21.46)"/>
          <path id="Path_644" data-name="Path 644" class="cls-2" d="M1849.635,81.3c4.409-1.645,6.613-2.62,11.021-4.494V87.917c-4.4,1.86-6.6,2.829-11,4.462C1849.65,87.949,1849.646,85.733,1849.635,81.3Z" transform="translate(-1804.564 21.68)"/>
          <path id="Path_645" data-name="Path 645" class="cls-4" d="M1839.154,84.434a67.443,67.443,0,0,0,11.021-3.351c.01,4.43.015,6.645.025,11.075a67.262,67.262,0,0,1-11,3.322C1839.184,91.062,1839.174,88.853,1839.154,84.434Z" transform="translate(-1805.103 21.901)"/>
          <path id="Path_646" data-name="Path 646" class="cls-2" d="M1828.672,85.336a36.139,36.139,0,0,0,11.022-1.066c.02,4.418.029,6.628.05,11.046a36.052,36.052,0,0,1-11,1.041Z" transform="translate(-1805.643 22.065)"/>
          <path id="Path_647" data-name="Path 647" class="cls-4" d="M1818.191,83.038a27.357,27.357,0,0,0,11.021,2.362l.075,11.021a27.327,27.327,0,0,1-11-2.38C1818.25,89.639,1818.231,87.439,1818.191,83.038Z" transform="translate(-1806.183 22.001)"/>
          <path id="Path_648" data-name="Path 648" class="cls-2" d="M1807.71,76.445c4.408,3.839,6.612,5.149,11.021,6.933.04,4.4.059,6.6.1,11-4.4-1.788-6.6-3.1-11-6.94C1807.784,83.042,1807.76,80.843,1807.71,76.445Z" transform="translate(-1806.723 21.662)"/>
          <path id="Path_649" data-name="Path 649" class="cls-2" d="M1902.141,59.918c4.419,1.778,6.628,3.087,11.046,6.926l-.124,11.218c-4.408-3.839-6.613-5.15-11.021-6.933C1902.081,66.646,1902.1,64.4,1902.141,59.918Z" transform="translate(-1801.865 20.81)"/>
          <path id="Path_650" data-name="Path 650" class="cls-4" d="M1891.635,57.688a27.4,27.4,0,0,1,11.046,2.345c-.04,4.485-.06,6.728-.1,11.212a27.36,27.36,0,0,0-11.022-2.362C1891.591,64.4,1891.605,62.166,1891.635,57.688Z" transform="translate(-1802.404 20.696)"/>
          <path id="Path_651" data-name="Path 651" class="cls-2" d="M1881.128,58.782a36.219,36.219,0,0,1,11.046-1.091c-.03,4.478-.044,6.717-.074,11.2a36.169,36.169,0,0,0-11.021,1.065C1881.1,65.483,1881.109,63.25,1881.128,58.782Z" transform="translate(-1802.944 20.693)"/>
          <path id="Path_652" data-name="Path 652" class="cls-4" d="M1870.622,62.107a67.85,67.85,0,0,1,11.046-3.381c-.02,4.468-.03,6.7-.05,11.169a67.545,67.545,0,0,0-11.021,3.352C1870.607,68.791,1870.613,66.563,1870.622,62.107Z" transform="translate(-1803.484 20.749)"/>
          <path id="Path_653" data-name="Path 653" class="cls-2" d="M1860.116,66.468c4.419-1.887,6.628-2.868,11.046-4.527-.009,4.456-.015,6.684-.024,11.141-4.409,1.645-6.613,2.619-11.022,4.493Z" transform="translate(-1804.024 20.915)"/>
          <path id="Path_654" data-name="Path 654" class="cls-4" d="M1849.612,70.772c4.417-1.657,6.626-2.639,11.045-4.526V77.353c-4.408,1.874-6.612,2.85-11.021,4.494C1849.627,77.417,1849.621,75.2,1849.612,70.772Z" transform="translate(-1804.565 21.136)"/>
          <path id="Path_655" data-name="Path 655" class="cls-2" d="M1839.107,73.932a67.778,67.778,0,0,0,11.046-3.382c.009,4.431.014,6.645.024,11.075a67.445,67.445,0,0,1-11.021,3.351C1839.136,80.559,1839.127,78.35,1839.107,73.932Z" transform="translate(-1805.106 21.358)"/>
          <path id="Path_656" data-name="Path 656" class="cls-4" d="M1828.6,74.856a36.253,36.253,0,0,0,11.046-1.09c.02,4.418.029,6.628.049,11.045a36.139,36.139,0,0,1-11.022,1.066C1828.646,81.469,1828.631,79.265,1828.6,74.856Z" transform="translate(-1805.647 21.524)"/>
          <path id="Path_657" data-name="Path 657" class="cls-2" d="M1818.1,72.573a27.362,27.362,0,0,0,11.046,2.345c.029,4.409.044,6.613.073,11.021a27.359,27.359,0,0,1-11.021-2.362C1818.156,79.175,1818.136,76.975,1818.1,72.573Z" transform="translate(-1806.188 21.462)"/>
          <path id="Path_658" data-name="Path 658" class="cls-4" d="M1807.592,65.987c4.418,3.839,6.628,5.148,11.046,6.925.039,4.4.059,6.6.1,11-4.409-1.783-6.613-3.094-11.021-6.933C1807.667,72.585,1807.641,70.385,1807.592,65.987Z" transform="translate(-1806.729 21.123)"/>
          <path id="Path_659" data-name="Path 659" class="cls-4" d="M1902.235,49.256c4.428,1.773,6.642,3.08,11.07,6.919-.049,4.488-.075,6.732-.123,11.218-4.418-3.839-6.628-5.148-11.046-6.926C1902.175,55.982,1902.195,53.741,1902.235,49.256Z" transform="translate(-1801.86 20.261)"/>
          <path id="Path_660" data-name="Path 660" class="cls-2" d="M1891.7,47.042a27.417,27.417,0,0,1,11.071,2.328c-.04,4.485-.06,6.726-.1,11.211a27.4,27.4,0,0,0-11.046-2.345Z" transform="translate(-1802.401 20.147)"/>
          <path id="Path_661" data-name="Path 661" class="cls-4" d="M1881.176,48.16a36.329,36.329,0,0,1,11.07-1.116l-.073,11.194a36.217,36.217,0,0,0-11.046,1.091C1881.146,54.862,1881.155,52.628,1881.176,48.16Z" transform="translate(-1802.942 20.145)"/>
          <path id="Path_662" data-name="Path 662" class="cls-2" d="M1870.646,51.514a68.105,68.105,0,0,1,11.071-3.411c-.02,4.468-.03,6.7-.049,11.17a67.852,67.852,0,0,0-11.046,3.381C1870.632,58.2,1870.636,55.969,1870.646,51.514Z" transform="translate(-1803.483 20.202)"/>
          <path id="Path_663" data-name="Path 663" class="cls-4" d="M1860.116,55.905c4.428-1.9,6.643-2.888,11.071-4.558-.01,4.455-.014,6.683-.024,11.14-4.418,1.658-6.627,2.639-11.046,4.527Z" transform="translate(-1804.024 20.369)"/>
          <path id="Path_664" data-name="Path 664" class="cls-2" d="M1849.588,60.241c4.428-1.671,6.642-2.659,11.07-4.559V66.79c-4.418,1.886-6.628,2.868-11.045,4.526C1849.6,66.886,1849.6,64.671,1849.588,60.241Z" transform="translate(-1804.566 20.592)"/>
          <path id="Path_665" data-name="Path 665" class="cls-4" d="M1839.06,63.429a68.179,68.179,0,0,0,11.07-3.411c.011,4.43.015,6.644.025,11.074a67.768,67.768,0,0,1-11.046,3.382C1839.09,70.056,1839.08,67.846,1839.06,63.429Z" transform="translate(-1805.108 20.816)"/>
          <path id="Path_666" data-name="Path 666" class="cls-2" d="M1828.531,64.378a36.337,36.337,0,0,0,11.072-1.116c.02,4.417.029,6.627.049,11.045a36.25,36.25,0,0,1-11.046,1.09Z" transform="translate(-1805.65 20.983)"/>
          <path id="Path_667" data-name="Path 667" class="cls-4" d="M1818,62.109a27.412,27.412,0,0,0,11.07,2.328l.074,11.02a27.361,27.361,0,0,1-11.046-2.345C1818.062,68.711,1818.042,66.511,1818,62.109Z" transform="translate(-1806.193 20.923)"/>
          <path id="Path_668" data-name="Path 668" class="cls-2" d="M1807.475,55.529c4.428,3.839,6.642,5.146,11.07,6.919.039,4.4.059,6.6.1,11-4.418-1.777-6.627-3.086-11.046-6.925Z" transform="translate(-1806.735 20.584)"/>
          <path id="Path_669" data-name="Path 669" class="cls-2" d="M1902.329,38.593c4.437,1.768,6.657,3.074,11.094,6.913-.049,4.488-.073,6.731-.123,11.218-4.428-3.839-6.642-5.146-11.07-6.919C1902.269,45.321,1902.289,43.078,1902.329,38.593Z" transform="translate(-1801.855 19.712)"/>
          <path id="Path_670" data-name="Path 670" class="cls-4" d="M1891.776,36.4a27.434,27.434,0,0,1,11.1,2.31c-.04,4.485-.06,6.728-.1,11.212A27.418,27.418,0,0,0,1891.7,47.59C1891.731,43.112,1891.746,40.873,1891.776,36.4Z" transform="translate(-1802.397 19.599)"/>
          <path id="Path_671" data-name="Path 671" class="cls-2" d="M1881.222,37.538a36.454,36.454,0,0,1,11.1-1.14c-.03,4.477-.045,6.716-.075,11.194a36.33,36.33,0,0,0-11.07,1.116C1881.193,44.24,1881.2,42.006,1881.222,37.538Z" transform="translate(-1802.939 19.597)"/>
          <path id="Path_672" data-name="Path 672" class="cls-4" d="M1870.669,40.921a68.387,68.387,0,0,1,11.1-3.441c-.02,4.468-.029,6.7-.05,11.17a68.113,68.113,0,0,0-11.071,3.411C1870.654,47.6,1870.66,45.377,1870.669,40.921Z" transform="translate(-1803.482 19.655)"/>
          <path id="Path_673" data-name="Path 673" class="cls-2" d="M1860.116,45.344c4.439-1.914,6.657-2.908,11.1-4.592-.009,4.456-.014,6.684-.025,11.141-4.428,1.67-6.642,2.658-11.071,4.558Z" transform="translate(-1804.024 19.823)"/>
          <path id="Path_674" data-name="Path 674" class="cls-4" d="M1849.565,49.71c4.438-1.683,6.656-2.678,11.094-4.591V56.226c-4.428,1.9-6.642,2.888-11.07,4.559C1849.58,56.355,1849.574,54.14,1849.565,49.71Z" transform="translate(-1804.567 20.048)"/>
          <path id="Path_675" data-name="Path 675" class="cls-2" d="M1839.013,52.927a68.377,68.377,0,0,0,11.1-3.442c.009,4.43.015,6.645.024,11.075a68.179,68.179,0,0,1-11.07,3.411C1839.042,59.553,1839.033,57.344,1839.013,52.927Z" transform="translate(-1805.111 20.273)"/>
          <path id="Path_676" data-name="Path 676" class="cls-4" d="M1828.461,53.9a36.452,36.452,0,0,0,11.1-1.14c.02,4.417.029,6.627.05,11.045a36.337,36.337,0,0,1-11.072,1.116C1828.505,60.511,1828.49,58.306,1828.461,53.9Z" transform="translate(-1805.654 20.442)"/>
          <path id="Path_677" data-name="Path 677" class="cls-2" d="M1817.909,51.644a27.434,27.434,0,0,0,11.1,2.311c.03,4.408.044,6.613.074,11.021a27.411,27.411,0,0,1-11.07-2.328C1817.968,58.246,1817.948,56.046,1817.909,51.644Z" transform="translate(-1806.197 20.384)"/>
          <path id="Path_678" data-name="Path 678" class="cls-4" d="M1807.358,45.071c4.437,3.838,6.656,5.144,11.094,6.912.039,4.4.059,6.6.1,11-4.428-1.773-6.642-3.08-11.07-6.919C1807.432,51.669,1807.407,49.469,1807.358,45.071Z" transform="translate(-1806.741 20.046)"/>
          <path id="Path_679" data-name="Path 679" class="cls-4" d="M1902.422,27.931c4.449,1.762,6.673,3.067,11.121,6.905-.049,4.487-.075,6.731-.124,11.218-4.437-3.839-6.657-5.145-11.094-6.913C1902.363,34.657,1902.383,32.416,1902.422,27.931Z" transform="translate(-1801.85 19.163)"/>
          <path id="Path_680" data-name="Path 680" class="cls-2" d="M1891.846,25.749a27.467,27.467,0,0,1,11.12,2.294c-.039,4.485-.059,6.726-.1,11.211a27.436,27.436,0,0,0-11.1-2.31Z" transform="translate(-1802.393 19.051)"/>
          <path id="Path_681" data-name="Path 681" class="cls-4" d="M1881.27,26.916a36.565,36.565,0,0,1,11.12-1.165l-.074,11.2a36.452,36.452,0,0,0-11.1,1.14C1881.24,33.618,1881.249,31.384,1881.27,26.916Z" transform="translate(-1802.937 19.049)"/>
          <path id="Path_682" data-name="Path 682" class="cls-2" d="M1870.692,30.328a68.607,68.607,0,0,1,11.121-3.471c-.02,4.468-.03,6.7-.049,11.17a68.39,68.39,0,0,0-11.1,3.441C1870.677,37.012,1870.683,34.784,1870.692,30.328Z" transform="translate(-1803.48 19.108)"/>
          <path id="Path_683" data-name="Path 683" class="cls-4" d="M1860.116,34.781c4.448-1.926,6.672-2.927,11.12-4.623-.01,4.456-.015,6.684-.024,11.14-4.438,1.683-6.657,2.678-11.1,4.592Z" transform="translate(-1804.024 19.278)"/>
          <path id="Path_684" data-name="Path 684" class="cls-2" d="M1849.541,39.178c4.448-1.7,6.672-2.7,11.12-4.623V45.663c-4.438,1.913-6.657,2.907-11.094,4.591C1849.556,45.824,1849.551,43.608,1849.541,39.178Z" transform="translate(-1804.568 19.504)"/>
          <path id="Path_685" data-name="Path 685" class="cls-4" d="M1838.966,42.423a68.493,68.493,0,0,0,11.12-3.471c.009,4.43.015,6.645.025,11.075a68.38,68.38,0,0,1-11.1,3.442C1839,49.051,1838.986,46.841,1838.966,42.423Z" transform="translate(-1805.113 19.731)"/>
          <path id="Path_686" data-name="Path 686" class="cls-2" d="M1828.39,43.418a36.539,36.539,0,0,0,11.12-1.165c.02,4.418.029,6.628.05,11.046a36.452,36.452,0,0,1-11.1,1.14C1828.435,50.031,1828.421,47.827,1828.39,43.418Z" transform="translate(-1805.658 19.901)"/>
          <path id="Path_687" data-name="Path 687" class="cls-4" d="M1817.815,41.18a27.45,27.45,0,0,0,11.12,2.293c.031,4.409.045,6.613.075,11.021a27.432,27.432,0,0,1-11.1-2.311C1817.874,47.782,1817.855,45.582,1817.815,41.18Z" transform="translate(-1806.202 19.845)"/>
          <path id="Path_688" data-name="Path 688" class="cls-2" d="M1807.24,34.613c4.448,3.838,6.671,5.142,11.119,6.905.04,4.4.059,6.6.1,11-4.438-1.768-6.657-3.074-11.094-6.912C1807.315,41.211,1807.29,39.011,1807.24,34.613Z" transform="translate(-1806.747 19.507)"/>
          <path id="Path_689" data-name="Path 689" class="cls-2" d="M1902.516,17.268c4.458,1.758,6.688,3.061,11.145,6.9-.049,4.487-.073,6.731-.123,11.218-4.448-3.838-6.672-5.143-11.121-6.905C1902.457,24,1902.477,21.753,1902.516,17.268Z" transform="translate(-1801.845 18.614)"/>
          <path id="Path_690" data-name="Path 690" class="cls-4" d="M1891.916,15.1a27.486,27.486,0,0,1,11.145,2.276c-.039,4.485-.059,6.728-.1,11.212a27.467,27.467,0,0,0-11.12-2.294Z" transform="translate(-1802.39 18.502)"/>
          <path id="Path_691" data-name="Path 691" class="cls-2" d="M1881.316,16.294A36.648,36.648,0,0,1,1892.46,15.1l-.074,11.194a36.565,36.565,0,0,0-11.12,1.165C1881.286,23,1881.3,20.763,1881.316,16.294Z" transform="translate(-1802.935 18.501)"/>
          <path id="Path_692" data-name="Path 692" class="cls-4" d="M1870.715,19.735a68.935,68.935,0,0,1,11.146-3.5c-.02,4.469-.031,6.7-.05,11.17a68.6,68.6,0,0,0-11.12,3.471C1870.7,26.419,1870.706,24.191,1870.715,19.735Z" transform="translate(-1803.479 18.561)"/>
          <path id="Path_693" data-name="Path 693" class="cls-2" d="M1860.116,24.22c4.458-1.94,6.687-2.948,11.144-4.656-.01,4.455-.015,6.683-.024,11.14-4.448,1.7-6.672,2.7-11.12,4.623Z" transform="translate(-1804.024 18.732)"/>
          <path id="Path_694" data-name="Path 694" class="cls-4" d="M1849.517,28.648c4.458-1.709,6.686-2.717,11.145-4.656V35.1c-4.448,1.926-6.672,2.928-11.12,4.623C1849.532,35.292,1849.528,33.078,1849.517,28.648Z" transform="translate(-1804.57 18.96)"/>
          <path id="Path_695" data-name="Path 695" class="cls-2" d="M1838.919,31.92a68.906,68.906,0,0,0,11.144-3.5c.01,4.43.015,6.644.025,11.074a68.494,68.494,0,0,1-11.12,3.471C1838.948,38.548,1838.939,36.339,1838.919,31.92Z" transform="translate(-1805.116 19.188)"/>
          <path id="Path_696" data-name="Path 696" class="cls-4" d="M1828.32,32.939a36.659,36.659,0,0,0,11.145-1.19c.02,4.418.03,6.628.049,11.045a36.539,36.539,0,0,1-11.12,1.165C1828.364,39.551,1828.35,37.347,1828.32,32.939Z" transform="translate(-1805.661 19.36)"/>
          <path id="Path_697" data-name="Path 697" class="cls-2" d="M1817.721,30.716a27.5,27.5,0,0,0,11.145,2.276c.03,4.408.044,6.612.074,11.02a27.449,27.449,0,0,1-11.12-2.293C1817.78,37.317,1817.761,35.117,1817.721,30.716Z" transform="translate(-1806.207 19.307)"/>
          <path id="Path_698" data-name="Path 698" class="cls-4" d="M1807.123,24.155c4.457,3.838,6.687,5.141,11.144,6.9.04,4.4.059,6.6.1,11-4.448-1.763-6.672-3.067-11.119-6.905C1807.2,30.753,1807.173,28.553,1807.123,24.155Z" transform="translate(-1806.753 18.969)"/>
          <path id="Path_699" data-name="Path 699" class="cls-4" d="M1902.61,6.605c4.468,1.754,6.7,3.055,11.17,6.892l-.124,11.22c-4.457-3.838-6.687-5.141-11.145-6.9C1902.551,13.333,1902.571,11.09,1902.61,6.605Z" transform="translate(-1801.84 18.065)"/>
          <path id="Path_700" data-name="Path 700" class="cls-2" d="M1891.987,4.457a27.516,27.516,0,0,1,11.169,2.259c-.039,4.485-.059,6.728-.1,11.212a27.484,27.484,0,0,0-11.145-2.277C1891.942,11.173,1891.957,8.934,1891.987,4.457Z" transform="translate(-1802.386 17.954)"/>
          <path id="Path_701" data-name="Path 701" class="cls-4" d="M1881.364,5.673a36.736,36.736,0,0,1,11.169-1.214c-.029,4.477-.044,6.716-.074,11.194a36.649,36.649,0,0,0-11.144,1.189C1881.333,12.374,1881.343,10.141,1881.364,5.673Z" transform="translate(-1802.932 17.953)"/>
          <path id="Path_702" data-name="Path 702" class="cls-2" d="M1870.739,9.142a69.2,69.2,0,0,1,11.17-3.53c-.02,4.468-.031,6.7-.05,11.169a68.935,68.935,0,0,0-11.146,3.5C1870.724,15.826,1870.729,13.6,1870.739,9.142Z" transform="translate(-1803.478 18.014)"/>
          <path id="Path_703" data-name="Path 703" class="cls-4" d="M1860.115,13.658c4.468-1.953,6.7-2.967,11.17-4.689-.011,4.456-.015,6.684-.026,11.141-4.457,1.708-6.686,2.716-11.144,4.656C1860.115,20.322,1860.115,18.1,1860.115,13.658Z" transform="translate(-1804.024 18.187)"/>
          <path id="Path_704" data-name="Path 704" class="cls-2" d="M1849.494,18.117c4.467-1.721,6.7-2.736,11.168-4.689,0,4.444,0,6.664,0,11.108-4.458,1.939-6.687,2.947-11.145,4.656C1849.509,24.762,1849.5,22.547,1849.494,18.117Z" transform="translate(-1804.571 18.416)"/>
          <path id="Path_705" data-name="Path 705" class="cls-4" d="M1838.872,21.418a69.125,69.125,0,0,0,11.169-3.531c.01,4.43.015,6.645.024,11.075a68.908,68.908,0,0,1-11.144,3.5C1838.9,28.045,1838.891,25.836,1838.872,21.418Z" transform="translate(-1805.118 18.646)"/>
          <path id="Path_706" data-name="Path 706" class="cls-2" d="M1828.249,22.459a36.777,36.777,0,0,0,11.17-1.214c.019,4.418.029,6.627.05,11.045a36.659,36.659,0,0,1-11.145,1.19Z" transform="translate(-1805.665 18.819)"/>
          <path id="Path_707" data-name="Path 707" class="cls-4" d="M1817.627,20.251a27.523,27.523,0,0,0,11.169,2.26l.075,11.021a27.5,27.5,0,0,1-11.145-2.276C1817.686,26.853,1817.666,24.653,1817.627,20.251Z" transform="translate(-1806.212 18.768)"/>
          <path id="Path_708" data-name="Path 708" class="cls-2" d="M1807.006,13.7c4.467,3.838,6.7,5.139,11.168,6.892.039,4.4.059,6.6.1,11-4.457-1.758-6.686-3.061-11.144-6.9C1807.08,20.3,1807.054,18.1,1807.006,13.7Z" transform="translate(-1806.759 18.43)"/>
          <path id="Path_709" data-name="Path 709" class="cls-2" d="M1902.7-4.057c4.477,1.748,6.717,3.047,11.194,6.884-.05,4.488-.075,6.732-.123,11.218-4.468-3.837-6.7-5.138-11.17-6.892C1902.645,2.669,1902.665.428,1902.7-4.057Z" transform="translate(-1801.836 17.516)"/>
          <path id="Path_710" data-name="Path 710" class="cls-4" d="M1892.058-6.19a27.54,27.54,0,0,1,11.193,2.243c-.039,4.485-.059,6.726-.1,11.211a27.517,27.517,0,0,0-11.169-2.259C1892.012.527,1892.027-1.712,1892.058-6.19Z" transform="translate(-1802.382 17.406)"/>
          <path id="Path_711" data-name="Path 711" class="cls-2" d="M1881.41-4.949a36.857,36.857,0,0,1,11.194-1.24c-.031,4.478-.045,6.717-.075,11.2a36.737,36.737,0,0,0-11.169,1.214Z" transform="translate(-1802.93 17.405)"/>
          <path id="Path_712" data-name="Path 712" class="cls-4" d="M1870.762-1.451a69.368,69.368,0,0,1,11.2-3.56l-.05,11.17a69.2,69.2,0,0,0-11.17,3.53C1870.747,5.234,1870.753,3.006,1870.762-1.451Z" transform="translate(-1803.477 17.467)"/>
          <path id="Path_713" data-name="Path 713" class="cls-2" d="M1860.116,3.1c4.478-1.966,6.716-2.987,11.193-4.721-.01,4.456-.015,6.684-.024,11.14-4.468,1.721-6.7,2.736-11.17,4.689C1860.115,9.761,1860.115,7.539,1860.116,3.1Z" transform="translate(-1804.024 17.641)"/>
          <path id="Path_714" data-name="Path 714" class="cls-4" d="M1849.47,7.585c4.477-1.733,6.716-2.755,11.194-4.72,0,4.443,0,6.664,0,11.107-4.467,1.953-6.7,2.967-11.168,4.689C1849.485,14.231,1849.481,12.015,1849.47,7.585Z" transform="translate(-1804.572 17.872)"/>
          <path id="Path_715" data-name="Path 715" class="cls-2" d="M1838.825,10.915a69.432,69.432,0,0,0,11.193-3.561c.01,4.43.015,6.645.025,11.075a69.125,69.125,0,0,1-11.169,3.531C1838.854,17.542,1838.845,15.333,1838.825,10.915Z" transform="translate(-1805.12 18.103)"/>
          <path id="Path_716" data-name="Path 716" class="cls-4" d="M1828.179,11.98a36.859,36.859,0,0,0,11.194-1.239c.02,4.417.03,6.627.049,11.045A36.776,36.776,0,0,1,1828.253,23C1828.223,18.593,1828.209,16.389,1828.179,11.98Z" transform="translate(-1805.669 18.278)"/>
          <path id="Path_717" data-name="Path 717" class="cls-2" d="M1817.533,9.787a27.562,27.562,0,0,0,11.194,2.242c.03,4.409.044,6.613.074,11.021a27.523,27.523,0,0,1-11.169-2.26C1817.592,16.388,1817.572,14.188,1817.533,9.787Z" transform="translate(-1806.217 18.229)"/>
          <path id="Path_718" data-name="Path 718" class="cls-4" d="M1806.888,3.239c4.477,3.837,6.716,5.137,11.193,6.885.039,4.4.059,6.6.1,11-4.468-1.753-6.7-3.054-11.168-6.892Z" transform="translate(-1806.765 17.891)"/>
          <path id="Path_719" data-name="Path 719" class="cls-4" d="M1902.8-14.72c4.488,1.743,6.732,3.042,11.219,6.878-.049,4.488-.073,6.732-.123,11.218-4.477-3.837-6.717-5.137-11.194-6.884C1902.739-7.992,1902.759-10.235,1902.8-14.72Z" transform="translate(-1801.831 16.967)"/>
          <path id="Path_720" data-name="Path 720" class="cls-2" d="M1892.129-16.836a27.591,27.591,0,0,1,11.217,2.225c-.039,4.485-.059,6.728-.1,11.212a27.54,27.54,0,0,0-11.193-2.243C1892.083-10.119,1892.1-12.359,1892.129-16.836Z" transform="translate(-1802.379 16.858)"/>
          <path id="Path_721" data-name="Path 721" class="cls-4" d="M1881.458-15.571a36.984,36.984,0,0,1,11.22-1.264c-.031,4.477-.045,6.717-.075,11.194a36.858,36.858,0,0,0-11.194,1.24C1881.428-8.869,1881.438-11.1,1881.458-15.571Z" transform="translate(-1802.927 16.857)"/>
          <path id="Path_722" data-name="Path 722" class="cls-2" d="M1870.786-12.043a69.68,69.68,0,0,1,11.219-3.591c-.02,4.468-.029,6.7-.049,11.17a69.358,69.358,0,0,0-11.2,3.56C1870.772-5.36,1870.777-7.588,1870.786-12.043Z" transform="translate(-1803.476 16.92)"/>
          <path id="Path_723" data-name="Path 723" class="cls-4" d="M1860.116-7.466c4.487-1.979,6.731-3.007,11.219-4.753-.01,4.455-.015,6.683-.025,11.14-4.477,1.734-6.716,2.755-11.193,4.721Z" transform="translate(-1804.024 17.095)"/>
          <path id="Path_724" data-name="Path 724" class="cls-2" d="M1849.447-2.945c4.487-1.747,6.731-2.775,11.218-4.754V3.409c-4.478,1.965-6.717,2.987-11.194,4.72C1849.462,3.7,1849.456,1.485,1849.447-2.945Z" transform="translate(-1804.573 17.328)"/>
          <path id="Path_725" data-name="Path 725" class="cls-4" d="M1838.778.413A69.735,69.735,0,0,0,1850-3.178c.009,4.43.015,6.644.024,11.074a69.431,69.431,0,0,1-11.193,3.561C1838.807,7.039,1838.8,4.83,1838.778.413Z" transform="translate(-1805.123 17.561)"/>
          <path id="Path_726" data-name="Path 726" class="cls-2" d="M1828.109,1.5A36.979,36.979,0,0,0,1839.328.237c.02,4.417.03,6.627.049,11.045a36.859,36.859,0,0,1-11.194,1.239Z" transform="translate(-1805.672 17.737)"/>
          <path id="Path_727" data-name="Path 727" class="cls-4" d="M1817.439-.678a27.585,27.585,0,0,0,11.219,2.226l.073,11.02a27.561,27.561,0,0,1-11.194-2.242C1817.5,5.924,1817.478,3.724,1817.439-.678Z" transform="translate(-1806.222 17.69)"/>
          <path id="Path_728" data-name="Path 728" class="cls-2" d="M1806.771-7.219c4.487,3.837,6.73,5.136,11.218,6.878.039,4.4.059,6.6.1,11-4.477-1.749-6.716-3.048-11.193-6.885C1806.845-.621,1806.821-2.82,1806.771-7.219Z" transform="translate(-1806.771 17.353)"/>
        </g>
      </g>
    </g>
  </g>
</svg>
