<svg xmlns="http://www.w3.org/2000/svg" xmlns:xlink="http://www.w3.org/1999/xlink" width="50" height="56" viewBox="0 0 50 56">
    <defs>
        <filter id="a" width="136.4%" height="132%" x="-18.2%" y="-16%" filterUnits="objectBoundingBox">
            <feOffset dx="1" dy="1" in="SourceAlpha" result="shadowOffsetOuter1"/>
            <feGaussianBlur in="shadowOffsetOuter1" result="shadowBlurOuter1" stdDeviation="1.5"/>
            <feColorMatrix in="shadowBlurOuter1" result="shadowMatrixOuter1" values="0 0 0 0 0 0 0 0 0 0 0 0 0 0 0 0 0 0 0.5 0"/>
            <feMerge>
                <feMergeNode in="shadowMatrixOuter1"/>
                <feMergeNode in="SourceGraphic"/>
            </feMerge>
        </filter>
        <path id="b" d="M.247 19.34c0 10.435 8.704 18.894 19.442 18.894 10.737 0 19.442-8.46 19.442-18.894C39.131 8.904 30.426.444 19.689.444 8.95.444.247 8.904.247 19.34"/>
        <path id="d" d="M.247 19.34c0 10.435 8.704 18.894 19.442 18.894 10.737 0 19.442-8.46 19.442-18.894C39.131 8.904 30.426.444 19.689.444 8.95.444.247 8.904.247 19.34"/>
        <path id="f" d="M.247 19.34c0 10.435 8.704 18.894 19.442 18.894 10.737 0 19.442-8.46 19.442-18.894C39.131 8.904 30.426.444 19.689.444 8.95.444.247 8.904.247 19.34"/>
        <path id="h" d="M.247 19.34c0 10.435 8.704 18.894 19.442 18.894 10.737 0 19.442-8.46 19.442-18.894C39.131 8.904 30.426.444 19.689.444 8.95.444.247 8.904.247 19.34"/>
        <path id="j" d="M.247 19.34c0 10.435 8.704 18.894 19.442 18.894 10.737 0 19.442-8.46 19.442-18.894C39.131 8.904 30.426.444 19.689.444 8.95.444.247 8.904.247 19.34"/>
        <path id="l" d="M.247 19.34c0 10.435 8.704 18.894 19.442 18.894 10.737 0 19.442-8.46 19.442-18.894C39.131 8.904 30.426.444 19.689.444 8.95.444.247 8.904.247 19.34"/>
        <path id="n" d="M.247 19.34c0 10.435 8.704 18.894 19.442 18.894 10.737 0 19.442-8.46 19.442-18.894C39.131 8.904 30.426.444 19.689.444 8.95.444.247 8.904.247 19.34"/>
        <path id="p" d="M.247 19.34c0 10.435 8.704 18.894 19.442 18.894 10.737 0 19.442-8.46 19.442-18.894C39.131 8.904 30.426.444 19.689.444 8.95.444.247 8.904.247 19.34"/>
        <path id="r" d="M.247 19.34c0 10.435 8.704 18.894 19.442 18.894 10.737 0 19.442-8.46 19.442-18.894C39.131 8.904 30.426.444 19.689.444 8.95.444.247 8.904.247 19.34"/>
        <path id="t" d="M.247 19.34c0 10.435 8.704 18.894 19.442 18.894 10.737 0 19.442-8.46 19.442-18.894C39.131 8.904 30.426.444 19.689.444 8.95.444.247 8.904.247 19.34"/>
        <path id="v" d="M.247 19.34c0 10.435 8.704 18.894 19.442 18.894 10.737 0 19.442-8.46 19.442-18.894C39.131 8.904 30.426.444 19.689.444 8.95.444.247 8.904.247 19.34"/>
        <path id="x" d="M.247 19.34c0 10.435 8.704 18.894 19.442 18.894 10.737 0 19.442-8.46 19.442-18.894C39.131 8.904 30.426.444 19.689.444 8.95.444.247 8.904.247 19.34"/>
        <path id="z" d="M.247 19.34c0 10.435 8.704 18.894 19.442 18.894 10.737 0 19.442-8.46 19.442-18.894C39.131 8.904 30.426.444 19.689.444 8.95.444.247 8.904.247 19.34"/>
        <path id="B" d="M.247 19.34c0 10.435 8.704 18.894 19.442 18.894 10.737 0 19.442-8.46 19.442-18.894C39.131 8.904 30.426.444 19.689.444 8.95.444.247 8.904.247 19.34"/>
        <path id="D" d="M.247 19.34c0 10.435 8.704 18.894 19.442 18.894 10.737 0 19.442-8.46 19.442-18.894C39.131 8.904 30.426.444 19.689.444 8.95.444.247 8.904.247 19.34"/>
        <path id="F" d="M.247 19.34c0 10.435 8.704 18.894 19.442 18.894 10.737 0 19.442-8.46 19.442-18.894C39.131 8.904 30.426.444 19.689.444 8.95.444.247 8.904.247 19.34"/>
        <path id="H" d="M.247 19.34c0 10.435 8.704 18.894 19.442 18.894 10.737 0 19.442-8.46 19.442-18.894C39.131 8.904 30.426.444 19.689.444 8.95.444.247 8.904.247 19.34"/>
        <path id="J" d="M.247 19.34c0 10.435 8.704 18.894 19.442 18.894 10.737 0 19.442-8.46 19.442-18.894C39.131 8.904 30.426.444 19.689.444 8.95.444.247 8.904.247 19.34"/>
        <path id="L" d="M.247 19.34c0 10.435 8.704 18.894 19.442 18.894 10.737 0 19.442-8.46 19.442-18.894C39.131 8.904 30.426.444 19.689.444 8.95.444.247 8.904.247 19.34"/>
        <path id="N" d="M.247 19.34c0 10.435 8.704 18.894 19.442 18.894 10.737 0 19.442-8.46 19.442-18.894C39.131 8.904 30.426.444 19.689.444 8.95.444.247 8.904.247 19.34"/>
        <path id="P" d="M.247 19.34c0 10.435 8.704 18.894 19.442 18.894 10.737 0 19.442-8.46 19.442-18.894C39.131 8.904 30.426.444 19.689.444 8.95.444.247 8.904.247 19.34"/>
        <path id="R" d="M.247 19.34c0 10.435 8.704 18.894 19.442 18.894 10.737 0 19.442-8.46 19.442-18.894C39.131 8.904 30.426.444 19.689.444 8.95.444.247 8.904.247 19.34"/>
    </defs>
    <g fill="none" fill-rule="evenodd" filter="url(#a)" transform="translate(2 2)">
        <path fill="#FFF" d="M43.89 21.174c0-11.654-9.72-21.1-21.71-21.1S.47 9.52.47 21.173c0 9.737 6.79 17.93 16.018 20.362l5.692 8.031 5.693-8.031c9.228-2.431 16.018-10.625 16.018-20.362"/>
        <g transform="translate(2.492 1.834)">
            <mask id="c" fill="#fff">
                <use xlink:href="#b"/>
            </mask>
            <path fill="#FFF" d="M-22.687-12.973l.281 2.27.25 2.005.25 2.016.283 2.275a79.354 79.354 0 0 0-1.106-.102c-.348-.03-.677-.055-.993-.075-.317-.02-.62-.035-.918-.046a25.627 25.627 0 0 0-1.742 0 26.1 26.1 0 0 0-.896.048c-.308.022-.626.049-.961.081-.335.033-.687.072-1.062.116l.418 2.435.35 2.037.34 1.986.386 2.245c-.713.082-1.333.163-1.905.256-.571.092-1.095.197-1.612.325-.517.127-1.029.279-1.576.465-.547.186-1.13.406-1.792.673l.468 2.134.391 1.788c.125.57.25 1.137.382 1.746l.433 1.978a35.61 35.61 0 0 0-1.555.634 16.339 16.339 0 0 0-2.541 1.377c-.417.274-.85.583-1.329.943l1.739 6.637c.46-.328.876-.609 1.277-.859a15.864 15.864 0 0 1 2.435-1.25c.448-.186.934-.371 1.488-.572l-.393-1.79a5544.79 5544.79 0 0 0-1.12-5.12c.63-.243 1.185-.443 1.706-.61a18.556 18.556 0 0 1 3.035-.71 42.093 42.093 0 0 1 1.81-.23c-.128-.745-.24-1.404-.347-2.02l-.307-1.785-.313-1.828-.374-2.182c.356-.04.691-.074 1.01-.104.32-.03.622-.054.914-.074a27.284 27.284 0 0 1 1.674-.058 30.033 30.033 0 0 1 1.691.056c.298.018.608.04.935.067.327.027.672.058 1.04.094l-.279-2.247-.247-1.986-.252-2.037c-.09-.729-.19-1.52-.302-2.436.776.077 1.457.154 2.09.239.632.084 1.217.176 1.801.283.585.107 1.17.229 1.805.373.633.143 1.313.308 2.09.502l-.177-2.312-.157-2.048-.158-2.056-.182-2.368a77.273 77.273 0 0 0-4.08-.72 62.79 62.79 0 0 0-2.047-.265 56.415 56.415 0 0 0-2.049-.194m-8.074.074a36.5 36.5 0 0 0-3.905.621 33.398 33.398 0 0 0-3.803 1.063l.517 2.36.448 2.048.446 2.038.505 2.303c-.638.275-1.198.529-1.712.784A17.08 17.08 0 0 0-41.048.02c-.454.339-.925.721-1.444 1.166l2.129 8.125c.497-.399.95-.741 1.385-1.046a16.84 16.84 0 0 1 2.657-1.524 35.72 35.72 0 0 1 1.63-.704l-.481-2.195-.425-1.94-.436-1.99-.52-2.378a34.365 34.365 0 0 1 1.883-.752 19.054 19.054 0 0 1 1.66-.519c.545-.143 1.096-.259 1.7-.362a41.14 41.14 0 0 1 2.01-.286l-.39-2.265-.343-2.006-.342-1.992-.386-2.251m24.34 3.098l.073 2.514.063 2.125.06 2.083.07 2.354c-.76-.255-1.426-.477-2.046-.68a85.388 85.388 0 0 0-1.773-.558 66.142 66.142 0 0 0-1.781-.51 96.016 96.016 0 0 0-2.081-.537l.183 2.394.154 2.003.15 1.954.17 2.209a95.488 95.488 0 0 0-1.978-.45 37.197 37.197 0 0 0-3.408-.588c-.6-.076-1.243-.145-1.978-.213l.271 2.182.227 1.828.221 1.785.251 2.022c-.348-.032-.675-.06-.985-.084a45.334 45.334 0 0 0-.888-.06 30.162 30.162 0 0 0-1.604-.05 24.888 24.888 0 0 0-1.589.051 50.38 50.38 0 0 0-1.828.16l.338 1.967.283 1.65.277 1.612.313 1.828a40.81 40.81 0 0 0-1.724.206 18.41 18.41 0 0 0-2.894.644c-.497.153-1.028.334-1.63.553l.382 1.746c.114.519.218.994.32 1.466l.315 1.436.357 1.63c-.53.182-.996.35-1.425.52-.428.17-.819.34-1.2.526-.381.185-.751.384-1.138.614-.385.227-.786.483-1.228.782l1.475 5.627a28.733 28.733 0 0 1 3.31-1.251c1.13-.35 2.277-.63 3.436-.849a35.441 35.441 0 0 1 3.52-.479 41.344 41.344 0 0 1 3.57-.149c1.722 0 3.447.098 5.172.268 1.72.17 3.435.413 5.144.702 1.7.288 3.39.623 5.07.979 1.671.354 3.33.73 4.979 1.103l1.475.334 1.467.327a162.416 162.416 0 0 0 2.915.624l.083-1.265.075-1.144.078-1.185.092-1.405c.586.16 1.098.3 1.572.425a58.186 58.186 0 0 0 2.689.651c.47.103.977.208 1.556.322l.167-1.48a1624.51 1624.51 0 0 1 .298-2.633l.178-1.58c.603.123 1.128.228 1.618.319a33.02 33.02 0 0 0 2.788.41c.491.052 1.02.098 1.628.144l.257-1.599.225-1.407c.074-.463.15-.93.23-1.438l.275-1.71a67.513 67.513 0 0 0 1.615.107 32.293 32.293 0 0 0 1.4.038 24.283 24.283 0 0 0 1.575-.051c.277-.017.566-.04.873-.066.307-.027.631-.059.98-.095l.365-1.757.322-1.549c.106-.51.212-1.023.33-1.583l.391-1.887a48.95 48.95 0 0 0 1.868-.237 24.854 24.854 0 0 0 3.304-.724 50.218 50.218 0 0 0 1.987-.626l.506-1.981.446-1.75.457-1.791.546-2.138c.792-.278 1.49-.534 2.146-.794a32.03 32.03 0 0 0 1.901-.822c.63-.298 1.27-.626 1.975-1.013A75.14 75.14 0 0 0 45.59 1.88l.68-2.248.7-2.313c.239-.787.48-1.58.722-2.383l.743-2.454a57.824 57.824 0 0 1-5.81 2.49 47.892 47.892 0 0 1-5.395 1.616 43.56 43.56 0 0 1-5.1.885 43.8 43.8 0 0 1-4.9.271c-2.195 0-4.357-.159-6.5-.438a69.378 69.378 0 0 1-6.42-1.168 119.903 119.903 0 0 1-6.457-1.68A380.377 380.377 0 0 1 1.28-7.51a1110.11 1110.11 0 0 0-3.823-1.162c-.643-.192-1.287-.383-1.933-.571-.647-.19-1.296-.376-1.946-.558M1.302 1.936l.042-2.317.037-2.05.038-2.103c.014-.752.03-1.57.046-2.515.774.302 1.448.565 2.073.806.623.242 1.196.463 1.768.68a202.332 202.332 0 0 0 3.777 1.382l-.16 2.43L8.79.28l-.13 1.98-.146 2.241a200.977 200.977 0 0 1-3.578-1.237c-.54-.194-1.084-.392-1.673-.608l-1.96-.72-.042 2.249-.034 1.884-.033 1.839-.038 2.081-1.877-.651c-.57-.198-1.1-.38-1.629-.562A204.173 204.173 0 0 0-5.912 7.6l.061 2.09.052 1.752.05 1.712.057 1.939c-.683-.208-1.282-.389-1.84-.553a78.075 78.075 0 0 0-1.591-.451 61.962 61.962 0 0 0-1.6-.411 96.45 96.45 0 0 0-1.866-.434l.148 1.934.125 1.624c.04.518.08 1.034.121 1.587l.138 1.802a96.62 96.62 0 0 0-1.783-.365 38.554 38.554 0 0 0-3.074-.48c-.54-.062-1.12-.119-1.783-.176a4563.42 4563.42 0 0 0 .795 6.405 74.324 74.324 0 0 0-1.698-.117 30.014 30.014 0 0 0-1.455-.04 23.235 23.235 0 0 0-1.442.043c-.252.014-.513.033-.788.055s-.564.048-.872.079l.278 1.62.234 1.364.229 1.335.26 1.517c-.588.055-1.1.109-1.575.171a18.583 18.583 0 0 0-2.648.536c-.456.127-.944.278-1.497.46l-.326-1.49-.287-1.31c-.094-.43-.19-.863-.292-1.337l-.35-1.59c.578-.2 1.086-.365 1.562-.503a18.597 18.597 0 0 1 2.766-.587c.495-.068 1.03-.127 1.646-.186-.105-.614-.199-1.155-.285-1.663l-.251-1.463-.257-1.497-.306-1.781c.323-.033.626-.062.914-.086a33.167 33.167 0 0 1 1.596-.097 23.896 23.896 0 0 1 1.488 0c.253.008.511.019.78.033.268.015.548.033.843.054.296.022.606.047.938.075l-.227-1.826-.2-1.611-.204-1.65-.245-1.966c.697.062 1.308.124 1.875.192a37.573 37.573 0 0 1 3.233.53c.568.115 1.178.249 1.876.405l-.153-1.99-.135-1.756-.138-1.8-.165-2.147c.734.172 1.374.328 1.968.48a64.988 64.988 0 0 1 3.363.957c.587.182 1.219.382 1.938.612l-.064-2.15-.055-1.9-.057-1.947-.068-2.327A207.288 207.288 0 0 1-.677 1.21l1.98.726m28.325 5.707l.447-2.148.394-1.899.405-1.947.483-2.325c.77-.092 1.447-.185 2.08-.29a25.217 25.217 0 0 0 3.695-.897 53.376 53.376 0 0 0 2.23-.774 8273.979 8273.979 0 0 1-1.118 4.376l-.496 1.945-.562 2.2c-.788.276-1.472.503-2.101.693-.627.19-1.2.344-1.765.474-.565.129-1.124.235-1.723.33-.6.094-1.24.178-1.969.262l-.433 2.09-.365 1.75-.355 1.71-.403 1.938c-.366.04-.707.075-1.03.105a34.318 34.318 0 0 1-1.761.115 23.987 23.987 0 0 1-1.53.004 30.16 30.16 0 0 1-.749-.031 68.74 68.74 0 0 1-1.695-.12l-.303 1.885-.254 1.583-.248 1.546-.28 1.755c-.636-.05-1.19-.1-1.705-.157-.515-.057-.99-.12-1.462-.193a37.08 37.08 0 0 1-1.457-.257 83.37 83.37 0 0 1-1.693-.351l-.196 1.735-.165 1.458-.16 1.426-.184 1.62a87.13 87.13 0 0 1-1.625-.351 55.968 55.968 0 0 1-2.81-.713c-.495-.137-1.03-.29-1.643-.465l-.106 1.617c-.032.481-.06.923-.09 1.361l-.087 1.332-.099 1.515a170.768 170.768 0 0 1-2.953-.835l-1.378-.41-1.613-.485-.028 1.52-.023 1.278-.022 1.252-.026 1.423-1.556-.447a279.2 279.2 0 0 0-2.704-.762c-.478-.13-.994-.27-1.585-.427l-.043-1.461-.038-1.286-.039-1.314-.045-1.562A165.154 165.154 0 0 1-.83 29.33l1.625.49.029-1.556.025-1.37.025-1.4.03-1.664 1.688.53a150.18 150.18 0 0 0 4.53 1.364l.107-1.658.097-1.46.097-1.492.116-1.775c.642.192 1.202.359 1.722.51.519.15.996.283 1.473.41.477.127.953.247 1.47.37a88.2 88.2 0 0 0 1.7.386l.202-1.78.177-1.57.181-1.605.216-1.912c.661.151 1.24.28 1.776.39a33.013 33.013 0 0 0 3.062.494c.54.062 1.121.118 1.788.172l.31-1.935.274-1.709c.09-.562.182-1.13.28-1.749l.336-2.087c.329.03.64.055.935.077a42.463 42.463 0 0 0 1.636.09 24.95 24.95 0 0 0 1.61-.004 28.847 28.847 0 0 0 1.855-.128c.34-.033.7-.071 1.085-.116M15.54 6.553l.247-2.18.217-1.927.224-1.976.266-2.36a79.56 79.56 0 0 0 1.968.481 34.007 34.007 0 0 0 3.393.613c.599.078 1.245.148 1.984.218l-.372 2.318-.311 1.943-.304 1.896-.344 2.145a55.884 55.884 0 0 1-1.882-.191 33.655 33.655 0 0 1-3.22-.547 82.64 82.64 0 0 1-1.866-.433l-.239 2.12-.201 1.775-.196 1.735-.222 1.965a79.807 79.807 0 0 1-1.785-.424 57.638 57.638 0 0 1-3.087-.863c-.545-.166-1.133-.35-1.807-.563a5829.047 5829.047 0 0 0-.236 3.608l-.106 1.609-.12 1.824a169.646 169.646 0 0 1-4.746-1.505l-1.77-.584-.033 1.831-.028 1.538-.027 1.504-.031 1.707-1.701-.537a163.844 163.844 0 0 0-4.698-1.422 2800.15 2800.15 0 0 0 .093 3.153l.041 1.41.047 1.6c-.62-.172-1.164-.321-1.67-.457a63.89 63.89 0 0 0-2.896-.714c-.511-.113-1.063-.23-1.693-.36a3614.402 3614.402 0 0 0 .327 4.261l.114 1.498a99.514 99.514 0 0 0-1.623-.306 36.715 36.715 0 0 0-2.8-.398 59.703 59.703 0 0 0-1.623-.145l-.188-1.518-.166-1.335-.17-1.364-.2-1.622c.63.052 1.184.104 1.699.161a37.574 37.574 0 0 1 2.93.436c.514.095 1.068.204 1.7.332l-.126-1.639-.11-1.443-.113-1.475-.136-1.756c.662.142 1.24.27 1.777.395a75.362 75.362 0 0 1 3.036.784c.53.15 1.1.313 1.75.502l-.05-1.758c-.017-.54-.032-1.043-.046-1.55l-.047-1.584-.055-1.887a176.69 176.69 0 0 1 3.384 1.063c.503.163 1.005.328 1.547.506l1.785.59.034-1.88.03-1.66.032-1.698.036-2.024 1.86.646c.56.194 1.075.372 1.589.547a168.423 168.423 0 0 0 3.397 1.116c.05-.744.092-1.4.132-2.016.041-.621.08-1.199.117-1.78l.12-1.824.143-2.177c.708.236 1.328.44 1.901.625.572.184 1.1.348 1.627.504a55.26 55.26 0 0 0 1.62.454c.568.15 1.18.302 1.877.47M-43.968-8.686a28.678 28.678 0 0 0-1.387.862c-.153.1-.304.202-.455.306h.544a46.755 46.755 0 0 1 .988-.9l.31-.268M43.15 9.941a71.55 71.55 0 0 1-2.24 1.235 30.848 30.848 0 0 1-3.653 1.653c-.62.235-1.279.465-2.027.715a1957.644 1957.644 0 0 0-.905 3.547l-.404 1.582-.458 1.795c-.707.225-1.32.411-1.885.566a24.432 24.432 0 0 1-3.14.657c-.54.078-1.117.146-1.775.216l-.356 1.712c-.105.51-.203.976-.3 1.44-.094.46-.19.916-.292 1.408-.1.488-.21 1.01-.332 1.6-.332.033-.641.062-.935.086a34.723 34.723 0 0 1-1.6.096 23.512 23.512 0 0 1-1.39.002 29.245 29.245 0 0 1-.682-.025 49.678 49.678 0 0 1-1.543-.098l-.25 1.56-.211 1.311-.206 1.286-.234 1.462a53.96 53.96 0 0 1-1.559-.132 33.485 33.485 0 0 1-2.669-.374c-.468-.083-.972-.18-1.548-.293l-.148 1.308-.125 1.107c-.04.35-.078.695-.12 1.054l-.128 1.138a63.725 63.725 0 0 0 2.79.347 51.985 51.985 0 0 0 2.805.212l.172-1.064.16-1 .17-1.057.2-1.246a67.932 67.932 0 0 0 1.477.09 29.097 29.097 0 0 0 1.278.031 22.895 22.895 0 0 0 1.438-.042 49.422 49.422 0 0 0 1.689-.135l.304-1.463.267-1.286.273-1.314.325-1.561a46.986 46.986 0 0 0 1.693-.196c.516-.07.995-.15 1.48-.246.484-.097.973-.211 1.51-.353.536-.141 1.12-.31 1.791-.516l.417-1.633.367-1.437.376-1.47.446-1.748c.709-.227 1.334-.436 1.921-.649a29.718 29.718 0 0 0 3.454-1.498c.63-.316 1.317-.68 2.112-1.115l.53-1.748.542-1.792.557-1.839.57-1.886m-4.192 13.85c-.751.394-1.402.725-1.998 1.013a28.922 28.922 0 0 1-3.277 1.362c-.557.194-1.15.384-1.825.59l-.406 1.593-.342 1.34a2040.785 2040.785 0 0 1-.715 2.804c-.64.188-1.197.342-1.709.471-.51.13-.978.235-1.441.323-.462.088-.92.16-1.412.225-.492.065-1.018.121-1.618.18l-.258 1.242a789.481 789.481 0 0 1-.427 2.051l-.22 1.06a42.746 42.746 0 0 0 2.9-.328 42.194 42.194 0 0 0 2.993-.557l.296-1.158.272-1.068.286-1.12.338-1.321a49.038 49.038 0 0 0 1.738-.54 27.733 27.733 0 0 0 3.115-1.246 62.796 62.796 0 0 0 1.898-.927l.438-1.447.447-1.48.458-1.513.47-1.55" mask="url(#c)"/>
        </g>
        <g transform="translate(2.492 1.834)">
            <mask id="e" fill="#fff">
                <use xlink:href="#d"/>
            </mask>
            <path fill="#eb2381" d="M1.465-7.049l-.046 2.515-.038 2.103-.037 2.05-.042 2.317 1.96.72a168 168 0 0 0 5.251 1.845l.148-2.24c.045-.69.086-1.333.13-1.981l.132-2.032.16-2.429a202.332 202.332 0 0 1-3.777-1.382c-.572-.217-1.145-.438-1.768-.68-.625-.241-1.299-.504-2.073-.806" mask="url(#e)"/>
        </g>
        <g transform="translate(2.492 1.834)">
            <mask id="g" fill="#fff">
                <use xlink:href="#f"/>
            </mask>
            <path fill="#eb2381" d="M16.493-1.89L16.227.47l-.224 1.976a4541.046 4541.046 0 0 0-.464 4.107c.695.168 1.303.31 1.867.432a33.55 33.55 0 0 0 3.22.548c.567.069 1.18.13 1.88.192l.345-2.147.304-1.896.311-1.942.372-2.319c-.739-.07-1.385-.14-1.983-.217a33.455 33.455 0 0 1-3.393-.613 84.177 84.177 0 0 1-1.969-.482" mask="url(#g)"/>
        </g>
        <g transform="translate(2.492 1.834)">
            <mask id="i" fill="#fff">
                <use xlink:href="#h"/>
            </mask>
            <path fill="#eb2381" d="M39.361-2.637c-.837.308-1.563.561-2.23.774-.664.212-1.27.384-1.87.529-.598.145-1.189.263-1.824.369-.633.104-1.31.197-2.08.289l-.483 2.325-.405 1.947c-.13.62-.257 1.237-.394 1.899l-.447 2.148c.73-.084 1.37-.168 1.969-.262a25.135 25.135 0 0 0 3.488-.804c.629-.19 1.313-.417 2.101-.693l.562-2.2.496-1.944a5527.044 5527.044 0 0 1 1.117-4.377" mask="url(#i)"/>
        </g>
        <g transform="translate(2.492 1.834)">
            <mask id="k" fill="#fff">
                <use xlink:href="#j"/>
            </mask>
            <path fill="#eb2381" d="M-6.155-.725l.068 2.327.057 1.948.055 1.9.063 2.15a205.146 205.146 0 0 1 5.19 1.738l1.878.651.038-2.081.033-1.839.034-1.884.041-2.25-1.98-.724C-1.28.99-1.837.787-2.395.586a182.358 182.358 0 0 0-3.76-1.31" mask="url(#k)"/>
        </g>
        <g transform="translate(2.492 1.834)">
            <mask id="m" fill="#fff">
                <use xlink:href="#l"/>
            </mask>
            <path fill="#eb2381" d="M8.513 4.501l-.142 2.177-.12 1.824-.117 1.78-.132 2.016c.674.213 1.262.397 1.807.563.544.166 1.045.314 1.546.455.5.14 1 .273 1.541.409.54.135 1.122.272 1.785.423l.222-1.965.196-1.735.2-1.776c.073-.634.15-1.323.24-2.119-.698-.167-1.309-.32-1.877-.47-.57-.15-1.095-.297-1.62-.452a72.17 72.17 0 0 1-1.627-.505c-.573-.185-1.192-.389-1.902-.625" mask="url(#m)"/>
        </g>
        <g transform="translate(2.492 1.834)">
            <mask id="o" fill="#fff">
                <use xlink:href="#n"/>
            </mask>
            <path fill="#eb2381" d="M29.628 7.643a58.94 58.94 0 0 1-1.085.116c-.339.033-.66.06-.966.08a26.091 26.091 0 0 1-1.74.063 24.996 24.996 0 0 1-1.548-.046 42.82 42.82 0 0 1-.847-.055 72.337 72.337 0 0 1-.935-.076l-.335 2.086-.28 1.75-.275 1.708-.31 1.936c.313.025.608.048.89.068a40.463 40.463 0 0 0 1.555.081 24.038 24.038 0 0 0 2.373-.045c.292-.02.595-.044.918-.073.322-.03.663-.065 1.03-.105l.402-1.938.355-1.71.364-1.751.434-2.089" mask="url(#o)"/>
        </g>
        <g transform="translate(2.492 1.834)">
            <mask id="q" fill="#fff">
                <use xlink:href="#p"/>
            </mask>
            <path fill="#eb2381" d="M45.59 1.881a75.14 75.14 0 0 1-2.382 1.374c-.705.387-1.346.715-1.975 1.013a32.03 32.03 0 0 1-1.901.822c-.656.26-1.354.516-2.146.794l-.546 2.138-.457 1.79c-.146.573-.29 1.14-.447 1.75l-.505 1.982c.748-.25 1.407-.48 2.027-.715a30.848 30.848 0 0 0 3.653-1.653c.667-.35 1.396-.753 2.24-1.235l.63-2.083.556-1.84.572-1.885.68-2.252" mask="url(#q)"/>
        </g>
        <g transform="translate(2.492 1.834)">
            <mask id="s" fill="#fff">
                <use xlink:href="#r"/>
            </mask>
            <path fill="#eb2381" d="M1.156 9.99l-.036 2.023-.032 1.699-.03 1.658-.034 1.88 1.77.584c.532.176 1.023.337 1.512.495a155.217 155.217 0 0 0 3.235 1.01l.12-1.824.105-1.609.108-1.646.128-1.962a178.293 178.293 0 0 1-4.986-1.663l-1.86-.646" mask="url(#s)"/>
        </g>
        <g transform="translate(2.492 1.834)">
            <mask id="u" fill="#fff">
                <use xlink:href="#t"/>
            </mask>
            <path fill="#eb2381" d="M14.681 14.148c-.08.718-.151 1.34-.216 1.912l-.181 1.606-.177 1.569-.202 1.78c.63.136 1.181.252 1.693.351a33.105 33.105 0 0 0 2.918.45c.515.056 1.07.107 1.705.157l.282-1.755.248-1.547a4775.733 4775.733 0 0 0 .556-3.466 56.565 56.565 0 0 1-1.789-.173 32.897 32.897 0 0 1-3.06-.494 79.545 79.545 0 0 1-1.777-.39" mask="url(#u)"/>
        </g>
        <g transform="translate(2.492 1.834)">
            <mask id="w" fill="#fff">
                <use xlink:href="#v"/>
            </mask>
            <path fill="#eb2381" d="M35.23 13.544c-.744.25-1.392.454-1.986.626a24.854 24.854 0 0 1-3.304.725 48.95 48.95 0 0 1-1.868.236l-.392 1.887-.33 1.583c-.104.507-.208 1.009-.321 1.549l-.365 1.757c.658-.07 1.236-.138 1.776-.215a24.432 24.432 0 0 0 3.14-.658 48.225 48.225 0 0 0 1.884-.566l.458-1.795.404-1.582.413-1.619.492-1.928" mask="url(#w)"/>
        </g>
        <g transform="translate(2.492 1.834)">
            <mask id="y" fill="#fff">
                <use xlink:href="#x"/>
            </mask>
            <path fill="#eb2381" d="M-5.692 15.092l.055 1.887.046 1.585.046 1.55.051 1.757a180.088 180.088 0 0 1 4.698 1.421l1.7.539c.013-.631.022-1.187.032-1.708l.028-1.504.027-1.538.033-1.83-1.784-.59a357.68 357.68 0 0 0-1.548-.507 171.535 171.535 0 0 0-3.384-1.062" mask="url(#y)"/>
        </g>
        <g transform="translate(2.492 1.834)">
            <mask id="A" fill="#fff">
                <use xlink:href="#z"/>
            </mask>
            <path fill="#eb2381" d="M7.54 19.34l-.116 1.774-.098 1.491c-.03.478-.062.951-.095 1.46l-.11 1.66c.614.176 1.149.328 1.645.465a57.621 57.621 0 0 0 2.81.713 84.33 84.33 0 0 0 1.624.35l.184-1.619.16-1.427.165-1.457.196-1.735a85.382 85.382 0 0 1-1.701-.386 57.148 57.148 0 0 1-1.469-.37c-.477-.127-.955-.261-1.473-.41-.52-.15-1.08-.317-1.721-.51" mask="url(#A)"/>
        </g>
        <g transform="translate(2.492 1.834)">
            <mask id="C" fill="#fff">
                <use xlink:href="#B"/>
            </mask>
            <path fill="#eb2381" d="M26.664 21.907c-.348.036-.673.068-.98.095-.306.026-.595.048-.873.066a27.28 27.28 0 0 1-1.574.05 29.681 29.681 0 0 1-1.4-.038 44.36 44.36 0 0 1-.769-.045 78.59 78.59 0 0 1-.847-.062l-.275 1.71c-.08.51-.156.976-.23 1.439l-.226 1.407-.256 1.598a77.955 77.955 0 0 0 1.543.099 32.163 32.163 0 0 0 1.337.034 23.554 23.554 0 0 0 1.503-.046 48.812 48.812 0 0 0 1.767-.147l.333-1.6.292-1.41.3-1.438.355-1.712" mask="url(#C)"/>
        </g>
        <g transform="translate(2.492 1.834)">
            <mask id="E" fill="#fff">
                <use xlink:href="#D"/>
            </mask>
            <path fill="#eb2381" d="M40.952 17.206a70.05 70.05 0 0 1-2.113 1.115 29.93 29.93 0 0 1-3.455 1.498c-.586.213-1.211.422-1.92.649l-.447 1.748a1714.028 1714.028 0 0 0-.742 2.908l-.416 1.632a51.238 51.238 0 0 0 1.825-.59 28.757 28.757 0 0 0 3.276-1.362 66.87 66.87 0 0 0 1.999-1.013l.516-1.708.456-1.505c.15-.496.3-.995.466-1.54l.555-1.832" mask="url(#E)"/>
        </g>
        <g transform="translate(2.492 1.834)">
            <mask id="G" fill="#fff">
                <use xlink:href="#F"/>
            </mask>
            <path fill="#eb2381" d="M.905 23.83l-.03 1.665-.025 1.399-.025 1.37c-.01.475-.018.982-.029 1.557l1.613.484a253.384 253.384 0 0 0 2.748.806c.48.135.995.279 1.583.439l.1-1.515.086-1.332c.03-.438.058-.88.09-1.36l.106-1.619c-.615-.176-1.154-.332-1.655-.48a165.62 165.62 0 0 1-2.874-.883l-1.688-.53" mask="url(#G)"/>
        </g>
        <g transform="translate(2.492 1.834)">
            <mask id="I" fill="#fff">
                <use xlink:href="#H"/>
            </mask>
            <path fill="#eb2381" d="M13.2 27.254l-.178 1.581-.15 1.33-.148 1.303-.167 1.48c.576.114 1.08.21 1.548.293a32.72 32.72 0 0 0 2.67.374c.47.048.977.09 1.558.132l.234-1.462a6338.093 6338.093 0 0 1 .417-2.598l.25-1.56a53.954 53.954 0 0 1-1.628-.143 33.124 33.124 0 0 1-2.788-.41 87.376 87.376 0 0 1-1.618-.32" mask="url(#I)"/>
        </g>
        <g transform="translate(2.492 1.834)">
            <mask id="K" fill="#fff">
                <use xlink:href="#J"/>
            </mask>
            <path fill="#eb2381" d="M31.859 26.756c-.672.206-1.256.374-1.793.516a24.276 24.276 0 0 1-2.99.599c-.514.07-1.064.133-1.692.196l-.325 1.56-.272 1.315-.268 1.286-.304 1.463a47.5 47.5 0 0 0 1.618-.178c.492-.065.95-.138 1.412-.226.463-.088.93-.193 1.441-.322.512-.13 1.068-.284 1.708-.473l.381-1.49.335-1.313.342-1.34.407-1.593" mask="url(#K)"/>
        </g>
        <g transform="translate(2.492 1.834)">
            <mask id="M" fill="#fff">
                <use xlink:href="#L"/>
            </mask>
            <path fill="#eb2381" d="M-5.313 28.034l.046 1.562.038 1.314.038 1.286.043 1.461c.591.157 1.107.296 1.586.427a243.51 243.51 0 0 1 2.704.762c.47.136.977.282 1.555.447l.026-1.423.022-1.252.024-1.278.027-1.52-1.625-.49a235.775 235.775 0 0 0-2.826-.832c-.5-.143-1.04-.294-1.658-.464" mask="url(#M)"/>
        </g>
        <g transform="translate(2.492 1.834)">
            <mask id="O" fill="#fff">
                <use xlink:href="#N"/>
            </mask>
            <path fill="#eb2381" d="M6.74 31.55l-.092 1.405-.078 1.185-.075 1.144-.083 1.266-.006.081-.005.083a4.721 4.721 0 0 0-.005.084l-.006.084c.562.148 1.053.275 1.507.39a61.855 61.855 0 0 0 2.578.596c.452.093.938.19 1.492.293a9.395 9.395 0 0 0 .036-.31l.017-.15.016-.146.129-1.138.119-1.054.125-1.107.148-1.308a88.085 88.085 0 0 1-1.556-.32 58.186 58.186 0 0 1-2.689-.652c-.474-.126-.986-.265-1.572-.426" mask="url(#O)"/>
        </g>
        <g transform="translate(2.492 1.834)">
            <mask id="Q" fill="#fff">
                <use xlink:href="#P"/>
            </mask>
            <path fill="#eb2381" d="M24.215 33.691c-.318.03-.613.057-.893.08a33.151 33.151 0 0 1-1.53.087 24.586 24.586 0 0 1-1.983-.021 50.783 50.783 0 0 1-1.476-.09l-.2 1.246-.17 1.057-.16 1-.17 1.064-.031.188-.031.193a23.917 23.917 0 0 1-.065.403 52.502 52.502 0 0 0 1.407.082 32.894 32.894 0 0 0 1.22.03 25.097 25.097 0 0 0 1.384-.04c.244-.014.498-.03.767-.05.27-.02.554-.045.86-.072a31.539 31.539 0 0 0 .085-.414c.015-.067.028-.133.041-.197l.04-.193c.08-.377.15-.723.22-1.059l.207-.996.22-1.055.258-1.243" mask="url(#Q)"/>
        </g>
        <g transform="translate(2.492 1.834)">
            <mask id="S" fill="#fff">
                <use xlink:href="#R"/>
            </mask>
            <path fill="#eb2381" d="M37.146 29.78c-.714.361-1.332.664-1.898.927a27.75 27.75 0 0 1-3.116 1.246c-.53.177-1.096.351-1.737.54l-.338 1.322-.286 1.119-.273 1.068-.295 1.158a9.748 9.748 0 0 1-.073.285l-.037.148-.039.15a49.29 49.29 0 0 0 1.66-.494 27.41 27.41 0 0 0 2.969-1.14c.538-.241 1.126-.518 1.804-.85l.432-1.425.38-1.255.387-1.279.46-1.52" mask="url(#S)"/>
        </g>
    </g>
</svg>
