<svg xmlns="http://www.w3.org/2000/svg" xmlns:xlink="http://www.w3.org/1999/xlink" width="79" height="92.692" viewBox="0 0 79 92.692">
  <defs>
    <style>
      .cls-1 {
        fill: none;
      }

      .cls-2 {
        fill: #fff;
      }

      .cls-3 {
        clip-path: url(#clip-path);
      }

      .cls-4 {
        fill: #4f8ac7;
      }
    </style>
    <clipPath id="clip-path">
      <circle id="Ellipse_1" data-name="Ellipse 1" class="cls-1" cx="34.784" cy="34.784" r="34.784" transform="translate(1790.905 51.912)"/>
    </clipPath>
  </defs>
  <g id="pin" transform="translate(-1786.439 -46.984)">
    <path id="Path_1" data-name="Path 1" class="cls-2" d="M1865.439,86.484a39.5,39.5,0,1,0-48.4,38.48l8.9,14.712,8.9-14.712A39.5,39.5,0,0,0,1865.439,86.484Z"/>
    <g id="Group_3" data-name="Group 3">
      <g id="Group_2" data-name="Group 2" class="cls-3">
        <g id="Group_1" data-name="Group 1">
          <path id="Path_2" data-name="Path 2" class="cls-4" d="M1887.314,101.127c4.658,1.884,6.987,3.268,11.645,7.326l-.13,11.854c-4.648-4.057-6.972-5.444-11.62-7.333Z"/>
          <path id="Path_3" data-name="Path 3" class="cls-2" d="M1875.668,98.631a28.9,28.9,0,0,1,11.646,2.5l-.1,11.847a28.869,28.869,0,0,0-11.62-2.514C1875.62,105.728,1875.636,103.362,1875.668,98.631Z"/>
          <path id="Path_4" data-name="Path 4" class="cls-4" d="M1864.022,99.757a38.172,38.172,0,0,1,11.646-1.126c-.032,4.731-.048,7.1-.079,11.829a38.1,38.1,0,0,0-11.619,1.1C1863.991,106.839,1864,104.478,1864.022,99.757Z"/>
          <path id="Path_5" data-name="Path 5" class="cls-2" d="M1852.376,103.3a71.422,71.422,0,0,1,11.646-3.541c-.021,4.721-.031,7.082-.052,11.8a71.191,71.191,0,0,0-11.621,3.51C1852.36,110.361,1852.365,108.007,1852.376,103.3Z"/>
          <path id="Path_6" data-name="Path 6" class="cls-4" d="M1840.73,108.047c4.658-1.98,6.987-3.01,11.646-4.749-.011,4.709-.016,7.063-.027,11.772-4.647,1.725-6.971,2.748-11.619,4.714Z"/>
          <path id="Path_7" data-name="Path 7" class="cls-2" d="M1829.084,112.8c4.658-1.739,6.987-2.769,11.646-4.749v11.737c-4.648,1.967-6.972,2.99-11.62,4.715C1829.1,119.818,1829.094,117.477,1829.084,112.8Z"/>
          <path id="Path_8" data-name="Path 8" class="cls-4" d="M1817.438,116.337a71.419,71.419,0,0,0,11.646-3.541c.01,4.681.015,7.022.026,11.7a71.076,71.076,0,0,1-11.62,3.509C1817.469,123.34,1817.459,121.006,1817.438,116.337Z"/>
          <path id="Path_9" data-name="Path 9" class="cls-2" d="M1805.792,117.464a38.207,38.207,0,0,0,11.646-1.127c.021,4.669.031,7,.052,11.671a38.078,38.078,0,0,1-11.62,1.1Z"/>
          <path id="Path_10" data-name="Path 10" class="cls-4" d="M1794.146,114.968a28.925,28.925,0,0,0,11.646,2.5l.078,11.645a28.886,28.886,0,0,1-11.62-2.514C1794.208,121.944,1794.188,119.618,1794.146,114.968Z"/>
          <path id="Path_11" data-name="Path 11" class="cls-2" d="M1782.5,107.642c4.658,4.057,6.987,5.442,11.646,7.326.042,4.65.062,6.976.1,11.627-4.648-1.89-6.972-3.276-11.62-7.333Z"/>
          <path id="Path_12" data-name="Path 12" class="cls-2" d="M1887.418,89.279c4.668,1.879,7,3.262,11.672,7.319l-.131,11.855c-4.658-4.058-6.987-5.442-11.645-7.326C1887.355,96.388,1887.376,94.018,1887.418,89.279Z"/>
          <path id="Path_13" data-name="Path 13" class="cls-4" d="M1875.746,86.8a28.953,28.953,0,0,1,11.672,2.478c-.042,4.739-.063,7.109-.1,11.848a28.9,28.9,0,0,0-11.646-2.5C1875.7,93.9,1875.715,91.533,1875.746,86.8Z"/>
          <path id="Path_14" data-name="Path 14" class="cls-2" d="M1864.074,87.954a38.3,38.3,0,0,1,11.672-1.153c-.031,4.732-.047,7.1-.078,11.83a38.172,38.172,0,0,0-11.646,1.126C1864.043,95.036,1864.053,92.675,1864.074,87.954Z"/>
          <path id="Path_15" data-name="Path 15" class="cls-4" d="M1852.4,91.527a71.668,71.668,0,0,1,11.672-3.573c-.021,4.721-.031,7.082-.052,11.8a71.422,71.422,0,0,0-11.646,3.541C1852.386,98.59,1852.391,96.236,1852.4,91.527Z"/>
          <path id="Path_16" data-name="Path 16" class="cls-2" d="M1840.73,96.31c4.668-1.994,7-3.031,11.672-4.783-.011,4.709-.016,7.063-.026,11.771-4.659,1.739-6.988,2.769-11.646,4.749Z"/>
          <path id="Path_17" data-name="Path 17" class="cls-4" d="M1829.058,101.093c4.668-1.752,7-2.789,11.672-4.783v11.737c-4.659,1.98-6.988,3.01-11.646,4.749C1829.074,108.115,1829.068,105.774,1829.058,101.093Z"/>
          <path id="Path_18" data-name="Path 18" class="cls-2" d="M1817.386,104.666a71.66,71.66,0,0,0,11.672-3.573c.01,4.681.016,7.022.026,11.7a71.419,71.419,0,0,1-11.646,3.541C1817.417,111.668,1817.407,109.334,1817.386,104.666Z"/>
          <path id="Path_19" data-name="Path 19" class="cls-4" d="M1805.713,105.818a38.31,38.31,0,0,0,11.673-1.152c.021,4.668.031,7,.052,11.671a38.207,38.207,0,0,1-11.646,1.127C1805.761,112.805,1805.745,110.476,1805.713,105.818Z"/>
          <path id="Path_20" data-name="Path 20" class="cls-2" d="M1794.041,103.34a28.924,28.924,0,0,0,11.672,2.478c.032,4.658.048,6.987.079,11.646a28.925,28.925,0,0,1-11.646-2.5Z"/>
          <path id="Path_21" data-name="Path 21" class="cls-4" d="M1782.37,96.022c4.668,4.057,7,5.44,11.671,7.318l.1,11.628c-4.659-1.884-6.988-3.269-11.646-7.326Z"/>
          <path id="Path_22" data-name="Path 22" class="cls-4" d="M1887.522,77.432c4.679,1.873,7.019,3.255,11.7,7.311l-.13,11.855c-4.669-4.057-7-5.44-11.672-7.319C1887.46,84.54,1887.481,82.171,1887.522,77.432Z"/>
          <path id="Path_23" data-name="Path 23" class="cls-2" d="M1875.824,74.972a28.963,28.963,0,0,1,11.7,2.46c-.041,4.739-.062,7.108-.1,11.847a28.953,28.953,0,0,0-11.672-2.478Z"/>
          <path id="Path_24" data-name="Path 24" class="cls-4" d="M1864.126,76.151a38.4,38.4,0,0,1,11.7-1.179l-.078,11.829a38.3,38.3,0,0,0-11.672,1.153C1864.095,83.233,1864.1,80.872,1864.126,76.151Z"/>
          <path id="Path_25" data-name="Path 25" class="cls-2" d="M1852.428,79.755a71.909,71.909,0,0,1,11.7-3.6c-.021,4.721-.031,7.082-.052,11.8a71.668,71.668,0,0,0-11.672,3.573C1852.412,86.818,1852.417,84.464,1852.428,79.755Z"/>
          <path id="Path_26" data-name="Path 26" class="cls-4" d="M1840.729,84.573c4.68-2.008,7.019-3.053,11.7-4.818-.011,4.709-.016,7.063-.026,11.772-4.669,1.752-7,2.789-11.672,4.783C1840.73,91.615,1840.73,89.267,1840.729,84.573Z"/>
          <path id="Path_27" data-name="Path 27" class="cls-2" d="M1829.032,89.39c4.679-1.765,7.018-2.81,11.7-4.817,0,4.694,0,7.042,0,11.737-4.669,1.994-7,3.031-11.672,4.783C1829.047,96.412,1829.042,94.071,1829.032,89.39Z"/>
          <path id="Path_28" data-name="Path 28" class="cls-4" d="M1817.334,92.994a71.9,71.9,0,0,0,11.7-3.6c.01,4.681.015,7.022.026,11.7a71.66,71.66,0,0,1-11.672,3.573C1817.365,100,1817.355,97.663,1817.334,92.994Z"/>
          <path id="Path_29" data-name="Path 29" class="cls-2" d="M1805.635,94.173a38.409,38.409,0,0,0,11.7-1.179c.021,4.669.031,7,.052,11.672a38.31,38.31,0,0,1-11.673,1.152Z"/>
          <path id="Path_30" data-name="Path 30" class="cls-4" d="M1793.937,91.713a28.946,28.946,0,0,0,11.7,2.46l.078,11.645a28.924,28.924,0,0,1-11.672-2.478C1794,98.69,1793.979,96.364,1793.937,91.713Z"/>
          <path id="Path_31" data-name="Path 31" class="cls-2" d="M1782.239,84.4c4.679,4.057,7.019,5.438,11.7,7.311.042,4.651.063,6.977.1,11.627-4.668-1.878-7-3.261-11.671-7.318Z"/>
          <path id="Path_32" data-name="Path 32" class="cls-2" d="M1887.627,65.585c4.689,1.868,7.034,3.248,11.724,7.3-.053,4.742-.079,7.113-.131,11.854-4.679-4.056-7.019-5.438-11.7-7.311Z"/>
          <path id="Path_33" data-name="Path 33" class="cls-4" d="M1875.9,63.143a28.994,28.994,0,0,1,11.725,2.442l-.1,11.847a28.963,28.963,0,0,0-11.7-2.46C1875.855,70.241,1875.871,67.875,1875.9,63.143Z"/>
          <path id="Path_34" data-name="Path 34" class="cls-2" d="M1864.178,64.348a38.537,38.537,0,0,1,11.724-1.2c-.031,4.732-.047,7.1-.078,11.829a38.4,38.4,0,0,0-11.7,1.179C1864.147,71.43,1864.157,69.069,1864.178,64.348Z"/>
          <path id="Path_35" data-name="Path 35" class="cls-4" d="M1852.453,67.984a72.162,72.162,0,0,1,11.725-3.636c-.021,4.721-.031,7.082-.052,11.8a71.909,71.909,0,0,0-11.7,3.6Z"/>
          <path id="Path_36" data-name="Path 36" class="cls-2" d="M1840.729,72.835c4.69-2.021,7.035-3.073,11.724-4.851l-.025,11.771c-4.68,1.765-7.019,2.81-11.7,4.818Z"/>
          <path id="Path_37" data-name="Path 37" class="cls-4" d="M1829.005,77.687c4.69-1.779,7.035-2.83,11.724-4.852V84.573c-4.679,2.007-7.018,3.052-11.7,4.817C1829.021,84.709,1829.016,82.368,1829.005,77.687Z"/>
          <path id="Path_38" data-name="Path 38" class="cls-2" d="M1817.281,81.323a72.22,72.22,0,0,0,11.724-3.636c.011,4.681.016,7.022.027,11.7a71.9,71.9,0,0,1-11.7,3.6C1817.313,88.326,1817.3,85.991,1817.281,81.323Z"/>
          <path id="Path_39" data-name="Path 39" class="cls-4" d="M1805.557,82.528a38.53,38.53,0,0,0,11.724-1.205c.021,4.668.032,7,.053,11.671a38.409,38.409,0,0,1-11.7,1.179C1805.6,89.515,1805.588,87.186,1805.557,82.528Z"/>
          <path id="Path_40" data-name="Path 40" class="cls-2" d="M1793.832,80.086a28.994,28.994,0,0,0,11.725,2.442c.031,4.658.047,6.987.078,11.645a28.946,28.946,0,0,1-11.7-2.46Z"/>
          <path id="Path_41" data-name="Path 41" class="cls-4" d="M1782.109,72.782c4.689,4.056,7.034,5.436,11.723,7.3l.1,11.627c-4.679-1.873-7.019-3.254-11.7-7.311Z"/>
          <path id="Path_42" data-name="Path 42" class="cls-4" d="M1887.731,53.737c4.7,1.863,7.05,3.242,11.75,7.3l-.13,11.855c-4.69-4.056-7.035-5.436-11.724-7.3C1887.668,60.846,1887.689,58.476,1887.731,53.737Z"/>
          <path id="Path_43" data-name="Path 43" class="cls-2" d="M1875.981,51.314a29.035,29.035,0,0,1,11.75,2.423c-.042,4.739-.063,7.109-.1,11.848a28.994,28.994,0,0,0-11.725-2.442Z"/>
          <path id="Path_44" data-name="Path 44" class="cls-4" d="M1864.23,52.545a38.6,38.6,0,0,1,11.751-1.231l-.079,11.829a38.537,38.537,0,0,0-11.724,1.2C1864.2,59.627,1864.209,57.266,1864.23,52.545Z"/>
          <path id="Path_45" data-name="Path 45" class="cls-2" d="M1852.479,56.212a72.536,72.536,0,0,1,11.751-3.667c-.021,4.721-.031,7.082-.052,11.8a72.162,72.162,0,0,0-11.725,3.636C1852.464,63.275,1852.469,60.921,1852.479,56.212Z"/>
          <path id="Path_46" data-name="Path 46" class="cls-4" d="M1840.729,61.1c4.7-2.035,7.05-3.094,11.75-4.886-.01,4.709-.015,7.063-.026,11.772-4.689,1.778-7.034,2.83-11.724,4.851Z"/>
          <path id="Path_47" data-name="Path 47" class="cls-2" d="M1828.979,65.984c4.7-1.792,7.05-2.85,11.75-4.886V72.835c-4.689,2.022-7.034,3.073-11.724,4.852C1828.995,73.006,1828.99,70.665,1828.979,65.984Z"/>
          <path id="Path_48" data-name="Path 48" class="cls-4" d="M1817.229,69.652a72.5,72.5,0,0,0,11.75-3.668c.011,4.681.016,7.022.026,11.7a72.22,72.22,0,0,1-11.724,3.636C1817.26,76.654,1817.25,74.32,1817.229,69.652Z"/>
          <path id="Path_49" data-name="Path 49" class="cls-2" d="M1805.478,70.883a38.636,38.636,0,0,0,11.751-1.231c.021,4.668.031,7,.052,11.671a38.53,38.53,0,0,1-11.724,1.205C1805.525,77.87,1805.51,75.541,1805.478,70.883Z"/>
          <path id="Path_50" data-name="Path 50" class="cls-4" d="M1793.728,68.459a29.033,29.033,0,0,0,11.75,2.424c.032,4.658.047,6.987.079,11.645a28.994,28.994,0,0,1-11.725-2.442C1793.791,75.435,1793.77,73.11,1793.728,68.459Z"/>
          <path id="Path_51" data-name="Path 51" class="cls-2" d="M1781.978,61.162c4.7,4.056,7.05,5.434,11.75,7.3.042,4.651.063,6.976.1,11.627-4.689-1.868-7.034-3.248-11.723-7.3C1782.057,68.134,1782.031,65.81,1781.978,61.162Z"/>
          <path id="Path_52" data-name="Path 52" class="cls-2" d="M1887.835,41.89c4.711,1.858,7.066,3.234,11.776,7.29l-.13,11.854c-4.7-4.055-7.05-5.434-11.75-7.3C1887.773,49,1887.794,46.629,1887.835,41.89Z"/>
          <path id="Path_53" data-name="Path 53" class="cls-4" d="M1876.059,39.484a29.076,29.076,0,0,1,11.776,2.406c-.041,4.739-.062,7.108-.1,11.847a29.035,29.035,0,0,0-11.75-2.423Z"/>
          <path id="Path_54" data-name="Path 54" class="cls-2" d="M1864.282,40.742a38.74,38.74,0,0,1,11.777-1.258l-.078,11.83a38.6,38.6,0,0,0-11.751,1.231C1864.251,47.824,1864.261,45.463,1864.282,40.742Z"/>
          <path id="Path_55" data-name="Path 55" class="cls-4" d="M1852.505,44.441a72.751,72.751,0,0,1,11.777-3.7c-.021,4.721-.031,7.082-.052,11.8a72.536,72.536,0,0,0-11.751,3.667C1852.49,51.5,1852.495,49.149,1852.505,44.441Z"/>
          <path id="Path_56" data-name="Path 56" class="cls-2" d="M1840.729,49.361c4.71-2.05,7.066-3.115,11.776-4.92-.01,4.708-.015,7.063-.026,11.771-4.7,1.792-7.05,2.851-11.75,4.886Z"/>
          <path id="Path_57" data-name="Path 57" class="cls-4" d="M1828.953,54.281c4.71-1.806,7.065-2.871,11.776-4.92V61.1c-4.7,2.036-7.05,3.094-11.75,4.886C1828.969,61.3,1828.963,58.962,1828.953,54.281Z"/>
          <path id="Path_58" data-name="Path 58" class="cls-2" d="M1817.177,57.98a72.74,72.74,0,0,0,11.776-3.7c.01,4.681.016,7.022.026,11.7a72.5,72.5,0,0,1-11.75,3.668C1817.208,64.983,1817.2,62.649,1817.177,57.98Z"/>
          <path id="Path_59" data-name="Path 59" class="cls-4" d="M1805.4,59.238a38.74,38.74,0,0,0,11.777-1.258c.021,4.669.031,7,.052,11.672a38.636,38.636,0,0,1-11.751,1.231C1805.447,66.225,1805.431,63.9,1805.4,59.238Z"/>
          <path id="Path_60" data-name="Path 60" class="cls-2" d="M1793.623,56.832a29.084,29.084,0,0,0,11.777,2.406c.031,4.658.047,6.987.078,11.645a29.033,29.033,0,0,1-11.75-2.424Z"/>
          <path id="Path_61" data-name="Path 61" class="cls-4" d="M1781.848,49.543c4.71,4.055,7.065,5.431,11.775,7.289l.1,11.627c-4.7-1.863-7.05-3.241-11.75-7.3Z"/>
          <path id="Path_62" data-name="Path 62" class="cls-4" d="M1887.94,30.043c4.72,1.852,7.081,3.227,11.8,7.282l-.131,11.855c-4.71-4.056-7.065-5.432-11.776-7.29Z"/>
          <path id="Path_63" data-name="Path 63" class="cls-2" d="M1876.137,27.655a29.075,29.075,0,0,1,11.8,2.388l-.1,11.847a29.076,29.076,0,0,0-11.776-2.406C1876.09,34.753,1876.106,32.387,1876.137,27.655Z"/>
          <path id="Path_64" data-name="Path 64" class="cls-4" d="M1864.334,28.939a38.84,38.84,0,0,1,11.8-1.284c-.031,4.732-.047,7.1-.078,11.829a38.74,38.74,0,0,0-11.777,1.258C1864.3,36.02,1864.314,33.66,1864.334,28.939Z"/>
          <path id="Path_65" data-name="Path 65" class="cls-2" d="M1852.531,32.669a73.094,73.094,0,0,1,11.8-3.73c-.02,4.721-.031,7.081-.052,11.8a72.751,72.751,0,0,0-11.777,3.7C1852.516,39.732,1852.521,37.378,1852.531,32.669Z"/>
          <path id="Path_66" data-name="Path 66" class="cls-4" d="M1840.729,37.623c4.721-2.063,7.081-3.135,11.8-4.954-.01,4.709-.015,7.063-.026,11.772-4.71,1.8-7.066,2.87-11.776,4.92Z"/>
          <path id="Path_67" data-name="Path 67" class="cls-2" d="M1828.927,42.578c4.72-1.819,7.081-2.891,11.8-4.955V49.361c-4.711,2.049-7.066,3.114-11.776,4.92C1828.942,49.6,1828.937,47.259,1828.927,42.578Z"/>
          <path id="Path_68" data-name="Path 68" class="cls-4" d="M1817.125,46.309a73.089,73.089,0,0,0,11.8-3.731c.01,4.681.015,7.022.026,11.7a72.74,72.74,0,0,1-11.776,3.7C1817.156,53.312,1817.145,50.977,1817.125,46.309Z"/>
          <path id="Path_69" data-name="Path 69" class="cls-2" d="M1805.322,47.592a38.838,38.838,0,0,0,11.8-1.283c.02,4.668.031,7,.052,11.671a38.74,38.74,0,0,1-11.777,1.258Z"/>
          <path id="Path_70" data-name="Path 70" class="cls-4" d="M1793.519,45.205a29.09,29.09,0,0,0,11.8,2.387l.078,11.646a29.084,29.084,0,0,1-11.777-2.406C1793.582,52.181,1793.561,49.855,1793.519,45.205Z"/>
          <path id="Path_71" data-name="Path 71" class="cls-2" d="M1781.718,37.923c4.72,4.054,7.08,5.429,11.8,7.282.042,4.65.063,6.976.1,11.627-4.71-1.858-7.065-3.234-11.775-7.289Z"/>
          <path id="Path_72" data-name="Path 72" class="cls-2" d="M1888.044,18.195c4.731,1.848,7.1,3.221,11.828,7.275l-.13,11.855c-4.721-4.055-7.082-5.43-11.8-7.282C1887.981,25.3,1888,22.934,1888.044,18.195Z"/>
          <path id="Path_73" data-name="Path 73" class="cls-4" d="M1876.216,15.826a29.114,29.114,0,0,1,11.828,2.369c-.042,4.739-.063,7.109-.1,11.848a29.075,29.075,0,0,0-11.8-2.388C1876.169,22.923,1876.184,20.558,1876.216,15.826Z"/>
          <path id="Path_74" data-name="Path 74" class="cls-2" d="M1864.387,17.135a38.967,38.967,0,0,1,11.829-1.309c-.032,4.732-.047,7.1-.079,11.829a38.84,38.84,0,0,0-11.8,1.284Z"/>
          <path id="Path_75" data-name="Path 75" class="cls-4" d="M1852.557,20.9a73.459,73.459,0,0,1,11.83-3.763l-.053,11.8a73.094,73.094,0,0,0-11.8,3.73C1852.542,27.961,1852.547,25.606,1852.557,20.9Z"/>
          <path id="Path_76" data-name="Path 76" class="cls-2" d="M1840.729,25.886c4.731-2.077,7.1-3.156,11.828-4.988-.01,4.708-.015,7.063-.026,11.771-4.721,1.819-7.081,2.891-11.8,4.954Z"/>
          <path id="Path_77" data-name="Path 77" class="cls-4" d="M1828.9,30.875c4.731-1.832,7.1-2.912,11.828-4.989V37.623c-4.721,2.064-7.082,3.136-11.8,4.955C1828.916,37.9,1828.911,35.556,1828.9,30.875Z"/>
          <path id="Path_78" data-name="Path 78" class="cls-2" d="M1817.072,34.638a73.418,73.418,0,0,0,11.829-3.763c.01,4.681.015,7.022.026,11.7a73.089,73.089,0,0,1-11.8,3.731C1817.1,41.64,1817.093,39.306,1817.072,34.638Z"/>
          <path id="Path_79" data-name="Path 79" class="cls-4" d="M1805.243,35.947a38.967,38.967,0,0,0,11.829-1.309c.021,4.668.032,7,.053,11.671a38.838,38.838,0,0,1-11.8,1.283C1805.29,42.934,1805.275,40.6,1805.243,35.947Z"/>
          <path id="Path_80" data-name="Path 80" class="cls-2" d="M1793.415,33.578a29.114,29.114,0,0,0,11.828,2.369c.032,4.658.047,6.987.079,11.645a29.09,29.09,0,0,1-11.8-2.387C1793.477,40.554,1793.456,38.228,1793.415,33.578Z"/>
          <path id="Path_81" data-name="Path 81" class="cls-4" d="M1781.587,26.3c4.731,4.054,7.1,5.427,11.828,7.275.041,4.65.062,6.976.1,11.627-4.721-1.853-7.081-3.228-11.8-7.282Z"/>
          <path id="Path_82" data-name="Path 82" class="cls-4" d="M1888.149,6.348c4.741,1.842,7.112,3.214,11.854,7.268-.052,4.742-.079,7.113-.131,11.854-4.731-4.054-7.1-5.427-11.828-7.275C1888.086,13.457,1888.107,11.087,1888.149,6.348Z"/>
          <path id="Path_83" data-name="Path 83" class="cls-2" d="M1876.294,4a29.147,29.147,0,0,1,11.855,2.351c-.042,4.739-.063,7.109-.105,11.847a29.114,29.114,0,0,0-11.828-2.369C1876.247,11.094,1876.263,8.728,1876.294,4Z"/>
          <path id="Path_84" data-name="Path 84" class="cls-4" d="M1864.44,5.332A39.031,39.031,0,0,1,1876.294,4c-.031,4.731-.047,7.1-.078,11.829a38.967,38.967,0,0,0-11.829,1.309C1864.408,12.414,1864.418,10.053,1864.44,5.332Z"/>
          <path id="Path_85" data-name="Path 85" class="cls-2" d="M1852.584,9.126a73.677,73.677,0,0,1,11.856-3.794c-.022,4.721-.032,7.082-.053,11.8a73.459,73.459,0,0,0-11.83,3.763C1852.568,16.189,1852.573,13.835,1852.584,9.126Z"/>
          <path id="Path_86" data-name="Path 86" class="cls-4" d="M1840.729,14.149c4.742-2.091,7.113-3.178,11.855-5.023-.011,4.709-.016,7.063-.027,11.772-4.731,1.832-7.1,2.911-11.828,4.988Z"/>
          <path id="Path_87" data-name="Path 87" class="cls-2" d="M1828.875,19.172c4.741-1.845,7.112-2.932,11.854-5.023V25.886c-4.732,2.077-7.1,3.157-11.828,4.989C1828.89,26.194,1828.885,23.853,1828.875,19.172Z"/>
          <path id="Path_88" data-name="Path 88" class="cls-4" d="M1817.02,22.966a73.694,73.694,0,0,0,11.855-3.794c.01,4.681.015,7.022.026,11.7a73.418,73.418,0,0,1-11.829,3.763C1817.052,29.969,1817.041,27.635,1817.02,22.966Z"/>
          <path id="Path_89" data-name="Path 89" class="cls-2" d="M1805.165,24.3a39.069,39.069,0,0,0,11.855-1.336c.021,4.669.032,7,.052,11.672a38.967,38.967,0,0,1-11.829,1.309Z"/>
          <path id="Path_90" data-name="Path 90" class="cls-4" d="M1793.31,21.95a29.148,29.148,0,0,0,11.855,2.352l.078,11.645a29.114,29.114,0,0,1-11.828-2.369Z"/>
          <path id="Path_91" data-name="Path 91" class="cls-2" d="M1781.457,14.683c4.741,4.054,7.111,5.425,11.853,7.267l.1,11.628c-4.732-1.848-7.1-3.221-11.828-7.275Z"/>
        </g>
      </g>
    </g>
  </g>
</svg>
