<svg xmlns="http://www.w3.org/2000/svg" width="40" height="40" viewBox="0 0 40 40">
    <path id="prefix__entrance" fill="#2e7078" d="M34.546 0H5.454A5.471 5.471 0 0 0 0 5.456v29.088A5.47 5.47 0 0 0 5.454 40H15.63V28.312l-6.5 6.5a1.924 1.924 0 0 1-3.285-1.361V26.54a1.919 1.919 0 0 1 .564-1.361L18.638 12.95a1.924 1.924 0 0 1 2.721 0l12.23 12.229a1.919 1.919 0 0 1 .564 1.361v6.909a1.924 1.924 0 0 1-3.285 1.361l-6.5-6.5V40h10.178A5.47 5.47 0 0 0 40 34.544V5.456A5.471 5.471 0 0 0 34.546 0"/>
</svg>
