<svg xmlns="http://www.w3.org/2000/svg" width="20.215" height="45.594" viewBox="0 0 20.215 45.594">
    <defs>
        <clipPath id="prefix__clip-path">
            <path id="prefix__Clip_2" d="M0 45.594h20.215V0H0z" class="prefix__cls-1" data-name="Clip 2" transform="translate(.001)"/>
        </clipPath>
        <style>
            .prefix__cls-1{fill:none}
        </style>
    </defs>
    <g id="prefix__info" transform="translate(-.001)">
        <path id="prefix__Clip_2-2" d="M0 45.594h20.215V0H0z" class="prefix__cls-1" data-name="Clip 2" transform="translate(.001)"/>
        <g id="prefix__info-2" clip-path="url(#prefix__clip-path)" data-name="info">
            <path id="prefix__Fill_1" fill="#2e7078" d="M20.216 45.039H.626v-2.171h4.763V18.935H0v-2.183h15.474v26.116h4.742v2.17zM8.871 12.424a6.278 6.278 0 0 1-4.449-1.808 6.208 6.208 0 0 1 0-8.8 6.331 6.331 0 0 1 8.87 0 6.227 6.227 0 0 1 0 8.8 6.224 6.224 0 0 1-4.421 1.808z" data-name="Fill 1"/>
        </g>
    </g>
</svg>
