<svg id="sms_icon" data-name="sms icon" xmlns="http://www.w3.org/2000/svg" width="40.064" height="35.294" viewBox="0 0 40.064 35.294">
  <defs>
    <style>
      .cls-1 {
        fill: #57aed9;
      }
    </style>
  </defs>
  <path id="Fill_2" data-name="Fill 2" class="cls-1" d="M7.049,35.294c-.215,0-.442-.01-.675-.031a6.96,6.96,0,0,0,3.19-4.6,19.006,19.006,0,0,1-6.869-5.8A14.078,14.078,0,0,1,0,16.588a15.188,15.188,0,0,1,5.872-11.9A22.352,22.352,0,0,1,19.994,0h.038A22.493,22.493,0,0,1,34.18,4.694a15.166,15.166,0,0,1,5.885,11.894,15.133,15.133,0,0,1-6.171,11.9,22.7,22.7,0,0,1-13.862,4.688c-1.182,0-2.43-.118-3.637-.232-.511-.048-.993-.094-1.452-.129-.03,0-.06,0-.092,0a6.473,6.473,0,0,0-2.328.851A12.524,12.524,0,0,1,7.049,35.294ZM19.994,1.907C9.852,1.907,1.908,8.356,1.908,16.588c0,5.01,3.187,9.636,8.525,12.375l1.242.637-.23,1.376a7.9,7.9,0,0,1-.313,1.241c.188-.089.377-.182.554-.269l.015-.007a7.568,7.568,0,0,1,3.15-1.036c.085,0,.162,0,.236.009.486.036,1.024.087,1.5.132l.029,0c1.15.108,2.339.22,3.419.22,8.753,0,18.124-5.9,18.124-14.681,0-8.353-7.793-14.665-18.128-14.681Z" transform="translate(0 0)"/>
  <g id="Group_12" data-name="Group 12" transform="translate(11)">
    <path id="Fill_1" data-name="Fill 1" class="cls-1" d="M.5,0V0Z" transform="translate(0.09 0)"/>
  </g>
  <path id="Fill_5" data-name="Fill 5" class="cls-1" d="M0,6.824a10.631,10.631,0,0,0,1.535.566,4.679,4.679,0,0,0,1.182.161,1.5,1.5,0,0,0,.892-.237.81.81,0,0,0,.329-.7A.763.763,0,0,0,3.8,6.155a1.6,1.6,0,0,0-.427-.393,9.393,9.393,0,0,0-1.128-.594A5.587,5.587,0,0,1,1,4.426,2.437,2.437,0,0,1,.11,2.5,2.273,2.273,0,0,1,.9.672,3.322,3.322,0,0,1,3.107,0,6.716,6.716,0,0,1,5.735.624L5.13,2.083a9.254,9.254,0,0,0-1.157-.4,3.845,3.845,0,0,0-.96-.121,1.164,1.164,0,0,0-.778.245.812.812,0,0,0-.291.651.811.811,0,0,0,.112.432,1.238,1.238,0,0,0,.363.359,11.677,11.677,0,0,0,1.2.62,4.607,4.607,0,0,1,1.7,1.193,2.249,2.249,0,0,1,.467,1.459,2.322,2.322,0,0,1-.867,1.9A3.677,3.677,0,0,1,2.567,9.1,5.766,5.766,0,0,1,0,8.567Z" transform="translate(26 11.301)"/>
  <path id="Fill_7" data-name="Fill 7" class="cls-1" d="M9.465,8.853H7.714V4.663q0-.424.007-.672T7.8,1.92H7.751L5.469,8.853H3.749L1.617,1.908H1.563q.114,2.066.114,2.828V8.853H0V0H2.556l2.1,6.77h.036L6.908,0H9.465Z" transform="translate(15 11.301)"/>
  <path id="Fill_9" data-name="Fill 9" class="cls-1" d="M0,6.824a10.631,10.631,0,0,0,1.535.566,4.679,4.679,0,0,0,1.182.161,1.493,1.493,0,0,0,.891-.237.808.808,0,0,0,.329-.7.769.769,0,0,0-.14-.457,1.621,1.621,0,0,0-.427-.393,9.349,9.349,0,0,0-1.129-.594A5.576,5.576,0,0,1,1,4.426,2.438,2.438,0,0,1,.109,2.5,2.274,2.274,0,0,1,.9.672,3.319,3.319,0,0,1,3.106,0,6.712,6.712,0,0,1,5.734.624L5.129,2.083a9.2,9.2,0,0,0-1.157-.4,3.831,3.831,0,0,0-.959-.121,1.164,1.164,0,0,0-.778.245.809.809,0,0,0-.291.651.811.811,0,0,0,.112.432,1.214,1.214,0,0,0,.363.359,11.563,11.563,0,0,0,1.2.62,4.616,4.616,0,0,1,1.7,1.193,2.254,2.254,0,0,1,.466,1.459,2.324,2.324,0,0,1-.866,1.9A3.677,3.677,0,0,1,2.567,9.1,5.76,5.76,0,0,1,0,8.567Z" transform="translate(8 11.301)"/>
</svg>
