<svg xmlns="http://www.w3.org/2000/svg" xmlns:xlink="http://www.w3.org/1999/xlink" width="80" height="94.159" viewBox="0 0 80 94.159">
  <defs>
    <style>
      .cls-1 {
        fill: none;
      }

      .cls-2, .cls-5 {
        fill: #fff;
      }

      .cls-2 {
        stroke: #2f3181;
        stroke-miterlimit: 10;
      }

      .cls-3 {
        clip-path: url(#clip-path);
      }

      .cls-4 {
        fill: #2f3181;
      }
    </style>
    <clipPath id="clip-path">
      <circle id="Ellipse_3" data-name="Ellipse 3" class="cls-1" cx="34.784" cy="34.784" r="34.784" transform="translate(606.147 117.805)"/>
    </clipPath>
  </defs>
  <g id="Group_11" data-name="Group 11" transform="translate(-601.181 -112.376)">
    <path id="Path_183" data-name="Path 183" class="cls-2" d="M680.681,152.376a39.5,39.5,0,1,0-48.4,38.481l8.9,14.712,8.9-14.712A39.507,39.507,0,0,0,680.681,152.376Z"/>
    <g id="Group_10" data-name="Group 10">
      <g id="Group_9" data-name="Group 9" class="cls-3">
        <g id="Group_8" data-name="Group 8">
          <path id="Path_184" data-name="Path 184" class="cls-4" d="M702.555,167.019c4.659,1.884,6.988,3.269,11.646,7.326l-.13,11.855c-4.648-4.058-6.972-5.445-11.62-7.334C702.493,174.127,702.514,171.758,702.555,167.019Z"/>
          <path id="Path_185" data-name="Path 185" class="cls-5" d="M690.909,164.523a28.891,28.891,0,0,1,11.646,2.5c-.041,4.739-.062,7.108-.1,11.847a28.886,28.886,0,0,0-11.62-2.514C690.862,171.621,690.878,169.255,690.909,164.523Z"/>
          <path id="Path_186" data-name="Path 186" class="cls-4" d="M679.264,165.649a38.2,38.2,0,0,1,11.645-1.126c-.031,4.732-.047,7.1-.078,11.829a38.078,38.078,0,0,0-11.62,1.1C679.232,172.731,679.243,170.371,679.264,165.649Z"/>
          <path id="Path_187" data-name="Path 187" class="cls-5" d="M667.618,169.191a71.3,71.3,0,0,1,11.646-3.542c-.021,4.722-.032,7.082-.053,11.8a71.076,71.076,0,0,0-11.62,3.509C667.6,176.254,667.607,173.9,667.618,169.191Z"/>
          <path id="Path_188" data-name="Path 188" class="cls-4" d="M655.971,173.939c4.659-1.98,6.988-3.01,11.647-4.748-.011,4.708-.016,7.063-.027,11.771-4.647,1.725-6.972,2.749-11.62,4.715Z"/>
          <path id="Path_189" data-name="Path 189" class="cls-5" d="M644.326,178.688c4.658-1.738,6.987-2.769,11.645-4.749v11.738c-4.647,1.966-6.971,2.989-11.619,4.714C644.341,185.71,644.336,183.369,644.326,178.688Z"/>
          <path id="Path_190" data-name="Path 190" class="cls-4" d="M632.68,182.229a71.35,71.35,0,0,0,11.646-3.541c.01,4.681.015,7.022.026,11.7a71.181,71.181,0,0,1-11.62,3.51C632.711,189.232,632.7,186.9,632.68,182.229Z"/>
          <path id="Path_191" data-name="Path 191" class="cls-5" d="M621.034,183.356a38.207,38.207,0,0,0,11.646-1.127c.021,4.669.031,7,.052,11.672a38.078,38.078,0,0,1-11.62,1.1Z"/>
          <path id="Path_192" data-name="Path 192" class="cls-4" d="M609.388,180.86a28.908,28.908,0,0,0,11.646,2.5L621.112,195a28.869,28.869,0,0,1-11.62-2.514C609.45,187.836,609.429,185.511,609.388,180.86Z"/>
          <path id="Path_193" data-name="Path 193" class="cls-5" d="M597.742,173.534c4.658,4.057,6.987,5.442,11.646,7.326.041,4.651.062,6.976.1,11.627-4.648-1.889-6.972-3.275-11.62-7.333Z"/>
          <path id="Path_194" data-name="Path 194" class="cls-5" d="M702.66,155.172c4.668,1.878,7,3.261,11.672,7.318l-.131,11.855c-4.658-4.057-6.987-5.442-11.646-7.326Z"/>
          <path id="Path_195" data-name="Path 195" class="cls-4" d="M690.988,152.694a28.92,28.92,0,0,1,11.672,2.478l-.1,11.847a28.891,28.891,0,0,0-11.646-2.5C690.941,159.791,690.957,157.425,690.988,152.694Z"/>
          <path id="Path_196" data-name="Path 196" class="cls-5" d="M679.316,153.846a38.3,38.3,0,0,1,11.672-1.152c-.031,4.731-.047,7.1-.079,11.829a38.2,38.2,0,0,0-11.645,1.126C679.285,160.928,679.295,158.568,679.316,153.846Z"/>
          <path id="Path_197" data-name="Path 197" class="cls-4" d="M667.644,157.419a71.664,71.664,0,0,1,11.672-3.573c-.021,4.722-.031,7.082-.052,11.8a71.3,71.3,0,0,0-11.646,3.542C667.628,164.482,667.633,162.128,667.644,157.419Z"/>
          <path id="Path_198" data-name="Path 198" class="cls-5" d="M655.971,162.2c4.669-1.994,7-3.031,11.673-4.783-.011,4.709-.016,7.063-.026,11.772-4.659,1.738-6.988,2.768-11.647,4.748Z"/>
          <path id="Path_199" data-name="Path 199" class="cls-4" d="M644.3,166.985c4.668-1.752,7-2.789,11.671-4.783v11.737c-4.658,1.98-6.987,3.011-11.645,4.749C644.315,174.007,644.31,171.666,644.3,166.985Z"/>
          <path id="Path_200" data-name="Path 200" class="cls-5" d="M632.628,170.558a71.693,71.693,0,0,0,11.672-3.573c.01,4.681.015,7.022.026,11.7a71.35,71.35,0,0,1-11.646,3.541C632.659,177.561,632.648,175.226,632.628,170.558Z"/>
          <path id="Path_201" data-name="Path 201" class="cls-4" d="M620.955,171.711a38.311,38.311,0,0,0,11.673-1.153c.02,4.668.031,7,.052,11.671a38.207,38.207,0,0,1-11.646,1.127C621,178.7,620.987,176.369,620.955,171.711Z"/>
          <path id="Path_202" data-name="Path 202" class="cls-5" d="M609.283,169.233a28.957,28.957,0,0,0,11.672,2.478c.032,4.658.047,6.987.079,11.645a28.908,28.908,0,0,1-11.646-2.5Z"/>
          <path id="Path_203" data-name="Path 203" class="cls-4" d="M597.612,161.914c4.668,4.057,7,5.44,11.671,7.319l.1,11.627c-4.659-1.884-6.988-3.269-11.646-7.326Z"/>
          <path id="Path_204" data-name="Path 204" class="cls-4" d="M702.764,143.324c4.679,1.874,7.019,3.255,11.7,7.312l-.13,11.854c-4.669-4.057-7-5.44-11.672-7.318C702.7,150.433,702.722,148.063,702.764,143.324Z"/>
          <path id="Path_205" data-name="Path 205" class="cls-5" d="M691.066,140.865a28.961,28.961,0,0,1,11.7,2.459c-.042,4.739-.063,7.109-.1,11.848a28.92,28.92,0,0,0-11.672-2.478Z"/>
          <path id="Path_206" data-name="Path 206" class="cls-4" d="M679.368,142.043a38.4,38.4,0,0,1,11.7-1.178l-.078,11.829a38.3,38.3,0,0,0-11.672,1.152C679.337,149.125,679.347,146.764,679.368,142.043Z"/>
          <path id="Path_207" data-name="Path 207" class="cls-5" d="M667.669,145.648a71.952,71.952,0,0,1,11.7-3.6c-.021,4.721-.031,7.082-.052,11.8a71.664,71.664,0,0,0-11.672,3.573Z"/>
          <path id="Path_208" data-name="Path 208" class="cls-4" d="M655.971,150.465c4.679-2.008,7.019-3.052,11.7-4.817l-.025,11.771c-4.669,1.752-7,2.789-11.673,4.783Z"/>
          <path id="Path_209" data-name="Path 209" class="cls-5" d="M644.273,155.282c4.68-1.765,7.019-2.809,11.7-4.817V162.2c-4.668,1.994-7,3.031-11.671,4.783C644.289,162.3,644.284,159.963,644.273,155.282Z"/>
          <path id="Path_210" data-name="Path 210" class="cls-4" d="M632.575,158.887a71.949,71.949,0,0,0,11.7-3.6c.011,4.681.016,7.022.027,11.7a71.693,71.693,0,0,1-11.672,3.573C632.607,165.889,632.6,163.555,632.575,158.887Z"/>
          <path id="Path_211" data-name="Path 211" class="cls-5" d="M620.877,160.065a38.4,38.4,0,0,0,11.7-1.178c.021,4.668.032,7,.053,11.671a38.311,38.311,0,0,1-11.673,1.153Z"/>
          <path id="Path_212" data-name="Path 212" class="cls-4" d="M609.179,157.606a28.962,28.962,0,0,0,11.7,2.459l.078,11.646a28.957,28.957,0,0,1-11.672-2.478C609.241,164.582,609.22,162.256,609.179,157.606Z"/>
          <path id="Path_213" data-name="Path 213" class="cls-5" d="M597.481,150.294c4.679,4.057,7.019,5.438,11.7,7.312.041,4.65.062,6.976.1,11.627-4.668-1.879-7-3.262-11.671-7.319Z"/>
          <path id="Path_214" data-name="Path 214" class="cls-5" d="M702.868,131.477c4.69,1.868,7.035,3.248,11.725,7.3-.053,4.742-.079,7.113-.131,11.855-4.679-4.057-7.019-5.438-11.7-7.312C702.806,138.585,702.827,136.216,702.868,131.477Z"/>
          <path id="Path_215" data-name="Path 215" class="cls-4" d="M691.144,129.035a29,29,0,0,1,11.724,2.442c-.041,4.739-.062,7.108-.1,11.847a28.961,28.961,0,0,0-11.7-2.459C691.1,136.133,691.113,133.767,691.144,129.035Z"/>
          <path id="Path_216" data-name="Path 216" class="cls-5" d="M679.42,130.24a38.536,38.536,0,0,1,11.724-1.205c-.031,4.732-.047,7.1-.078,11.83a38.4,38.4,0,0,0-11.7,1.178C679.389,137.322,679.4,134.961,679.42,130.24Z"/>
          <path id="Path_217" data-name="Path 217" class="cls-4" d="M667.7,133.876a72.26,72.26,0,0,1,11.725-3.636c-.021,4.721-.031,7.082-.052,11.8a71.952,71.952,0,0,0-11.7,3.6C667.68,140.939,667.685,138.585,667.7,133.876Z"/>
          <path id="Path_218" data-name="Path 218" class="cls-5" d="M655.971,138.728c4.69-2.022,7.035-3.073,11.724-4.852-.01,4.709-.015,7.063-.026,11.772-4.679,1.765-7.019,2.809-11.7,4.817Z"/>
          <path id="Path_219" data-name="Path 219" class="cls-4" d="M644.247,143.579c4.69-1.779,7.035-2.83,11.724-4.851v11.737c-4.679,2.008-7.018,3.052-11.7,4.817C644.263,150.6,644.258,148.26,644.247,143.579Z"/>
          <path id="Path_220" data-name="Path 220" class="cls-5" d="M632.523,147.215a72.12,72.12,0,0,0,11.724-3.636c.011,4.681.016,7.022.026,11.7a71.949,71.949,0,0,1-11.7,3.6C632.554,154.218,632.544,151.884,632.523,147.215Z"/>
          <path id="Path_221" data-name="Path 221" class="cls-4" d="M620.8,148.42a38.5,38.5,0,0,0,11.724-1.205c.021,4.669.031,7,.052,11.672a38.4,38.4,0,0,1-11.7,1.178C620.846,155.407,620.83,153.078,620.8,148.42Z"/>
          <path id="Path_222" data-name="Path 222" class="cls-5" d="M609.074,145.978A28.978,28.978,0,0,0,620.8,148.42c.031,4.658.047,6.987.078,11.645a28.962,28.962,0,0,1-11.7-2.459C609.137,152.955,609.116,150.629,609.074,145.978Z"/>
          <path id="Path_223" data-name="Path 223" class="cls-4" d="M597.351,138.675c4.689,4.056,7.034,5.435,11.723,7.3.042,4.651.063,6.977.105,11.628-4.679-1.874-7.019-3.255-11.7-7.312Z"/>
          <path id="Path_224" data-name="Path 224" class="cls-4" d="M702.973,119.63c4.7,1.863,7.05,3.241,11.75,7.3l-.13,11.854c-4.69-4.056-7.035-5.436-11.725-7.3C702.91,126.738,702.931,124.369,702.973,119.63Z"/>
          <path id="Path_225" data-name="Path 225" class="cls-5" d="M691.222,117.206a29.021,29.021,0,0,1,11.751,2.424c-.042,4.739-.063,7.108-.105,11.847a29,29,0,0,0-11.724-2.442Z"/>
          <path id="Path_226" data-name="Path 226" class="cls-4" d="M679.472,118.437a38.633,38.633,0,0,1,11.75-1.231l-.078,11.829a38.536,38.536,0,0,0-11.724,1.205C679.441,125.519,679.451,123.158,679.472,118.437Z"/>
          <path id="Path_227" data-name="Path 227" class="cls-5" d="M667.721,122.105a72.508,72.508,0,0,1,11.751-3.668c-.021,4.721-.031,7.082-.052,11.8a72.26,72.26,0,0,0-11.725,3.636C667.706,129.167,667.711,126.813,667.721,122.105Z"/>
          <path id="Path_228" data-name="Path 228" class="cls-4" d="M655.971,126.99c4.7-2.035,7.05-3.094,11.75-4.885-.01,4.708-.015,7.062-.026,11.771-4.689,1.779-7.034,2.83-11.724,4.852Z"/>
          <path id="Path_229" data-name="Path 229" class="cls-5" d="M644.221,131.876c4.7-1.792,7.05-2.85,11.75-4.886v11.738c-4.689,2.021-7.034,3.072-11.724,4.851C644.237,138.9,644.231,136.557,644.221,131.876Z"/>
          <path id="Path_230" data-name="Path 230" class="cls-4" d="M632.471,135.544a72.5,72.5,0,0,0,11.75-3.668c.01,4.681.016,7.022.026,11.7a72.12,72.12,0,0,1-11.724,3.636C632.5,142.547,632.492,140.212,632.471,135.544Z"/>
          <path id="Path_231" data-name="Path 231" class="cls-5" d="M620.72,136.775a38.639,38.639,0,0,0,11.751-1.231c.021,4.668.031,7,.052,11.671A38.5,38.5,0,0,1,620.8,148.42C620.767,143.762,620.752,141.433,620.72,136.775Z"/>
          <path id="Path_232" data-name="Path 232" class="cls-4" d="M608.97,134.351a29.016,29.016,0,0,0,11.75,2.424c.032,4.658.047,6.987.079,11.645a28.978,28.978,0,0,1-11.725-2.442C609.032,141.328,609.012,139,608.97,134.351Z"/>
          <path id="Path_233" data-name="Path 233" class="cls-5" d="M597.22,127.055c4.7,4.055,7.05,5.433,11.75,7.3.042,4.651.062,6.977.1,11.627-4.689-1.868-7.034-3.247-11.723-7.3C597.3,134.027,597.272,131.7,597.22,127.055Z"/>
          <path id="Path_234" data-name="Path 234" class="cls-5" d="M703.077,107.782c4.711,1.858,7.066,3.235,11.776,7.29l-.13,11.855c-4.7-4.056-7.05-5.434-11.75-7.3C703.014,114.891,703.035,112.521,703.077,107.782Z"/>
          <path id="Path_235" data-name="Path 235" class="cls-4" d="M691.3,105.377a29.059,29.059,0,0,1,11.776,2.4c-.042,4.739-.063,7.109-.1,11.848a29.021,29.021,0,0,0-11.751-2.424Z"/>
          <path id="Path_236" data-name="Path 236" class="cls-5" d="M679.524,106.634a38.707,38.707,0,0,1,11.777-1.257l-.079,11.829a38.633,38.633,0,0,0-11.75,1.231C679.493,113.716,679.5,111.355,679.524,106.634Z"/>
          <path id="Path_237" data-name="Path 237" class="cls-4" d="M667.747,110.333a72.85,72.85,0,0,1,11.777-3.7c-.021,4.721-.031,7.082-.052,11.8a72.508,72.508,0,0,0-11.751,3.668C667.731,117.4,667.737,115.042,667.747,110.333Z"/>
          <path id="Path_238" data-name="Path 238" class="cls-5" d="M655.971,115.253c4.71-2.049,7.066-3.115,11.776-4.92-.01,4.709-.016,7.063-.026,11.772-4.7,1.791-7.05,2.85-11.75,4.885Z"/>
          <path id="Path_239" data-name="Path 239" class="cls-4" d="M644.2,120.173c4.71-1.805,7.065-2.87,11.776-4.92V126.99c-4.7,2.036-7.05,3.094-11.75,4.886C644.21,127.195,644.205,124.854,644.2,120.173Z"/>
          <path id="Path_240" data-name="Path 240" class="cls-5" d="M632.419,123.873a72.875,72.875,0,0,0,11.776-3.7c.01,4.681.015,7.022.026,11.7a72.5,72.5,0,0,1-11.75,3.668C632.45,130.875,632.439,128.541,632.419,123.873Z"/>
          <path id="Path_241" data-name="Path 241" class="cls-4" d="M620.642,125.13a38.77,38.77,0,0,0,11.777-1.257c.02,4.668.031,7,.052,11.671a38.639,38.639,0,0,1-11.751,1.231C620.689,132.117,620.673,129.788,620.642,125.13Z"/>
          <path id="Path_242" data-name="Path 242" class="cls-5" d="M608.865,122.724a29.048,29.048,0,0,0,11.777,2.406c.031,4.658.047,6.987.078,11.645a29.016,29.016,0,0,1-11.75-2.424Z"/>
          <path id="Path_243" data-name="Path 243" class="cls-4" d="M597.09,115.435c4.71,4.055,7.065,5.431,11.775,7.289l.1,11.627c-4.7-1.863-7.05-3.241-11.75-7.3C597.168,122.407,597.142,120.083,597.09,115.435Z"/>
          <path id="Path_244" data-name="Path 244" class="cls-4" d="M703.181,95.935c4.721,1.852,7.082,3.227,11.8,7.282l-.131,11.855c-4.71-4.055-7.065-5.432-11.776-7.29C703.119,103.043,703.14,100.674,703.181,95.935Z"/>
          <path id="Path_245" data-name="Path 245" class="cls-5" d="M691.379,93.547a29.1,29.1,0,0,1,11.8,2.388c-.041,4.739-.062,7.108-.1,11.847a29.059,29.059,0,0,0-11.776-2.4C691.332,100.645,691.348,98.279,691.379,93.547Z"/>
          <path id="Path_246" data-name="Path 246" class="cls-4" d="M679.576,94.831a38.84,38.84,0,0,1,11.8-1.284c-.031,4.732-.047,7.1-.078,11.83a38.707,38.707,0,0,0-11.777,1.257C679.545,101.913,679.555,99.552,679.576,94.831Z"/>
          <path id="Path_247" data-name="Path 247" class="cls-5" d="M667.773,98.562a73,73,0,0,1,11.8-3.731c-.021,4.721-.031,7.082-.052,11.8a72.85,72.85,0,0,0-11.777,3.7C667.758,105.624,667.763,103.27,667.773,98.562Z"/>
          <path id="Path_248" data-name="Path 248" class="cls-4" d="M655.97,103.516c4.721-2.063,7.082-3.136,11.8-4.954-.01,4.708-.015,7.062-.026,11.771-4.71,1.805-7.066,2.871-11.776,4.92C655.97,110.558,655.97,108.211,655.97,103.516Z"/>
          <path id="Path_249" data-name="Path 249" class="cls-5" d="M644.168,108.47c4.721-1.818,7.082-2.891,11.8-4.954,0,4.695,0,7.042,0,11.737-4.711,2.05-7.066,3.115-11.776,4.92C644.184,115.492,644.179,113.151,644.168,108.47Z"/>
          <path id="Path_250" data-name="Path 250" class="cls-4" d="M632.366,112.2a72.961,72.961,0,0,0,11.8-3.731c.011,4.681.016,7.022.027,11.7a72.875,72.875,0,0,1-11.776,3.7C632.4,119.2,632.387,116.87,632.366,112.2Z"/>
          <path id="Path_251" data-name="Path 251" class="cls-5" d="M620.564,113.485a38.83,38.83,0,0,0,11.8-1.284c.021,4.669.032,7,.053,11.672a38.77,38.77,0,0,1-11.777,1.257Z"/>
          <path id="Path_252" data-name="Path 252" class="cls-4" d="M608.761,111.1a29.109,29.109,0,0,0,11.8,2.388l.078,11.645a29.048,29.048,0,0,1-11.777-2.406C608.824,118.073,608.8,115.748,608.761,111.1Z"/>
          <path id="Path_253" data-name="Path 253" class="cls-5" d="M596.959,103.815c4.721,4.055,7.081,5.43,11.8,7.282.042,4.651.063,6.976.1,11.627-4.71-1.858-7.065-3.234-11.775-7.289C597.038,110.787,597.011,108.463,596.959,103.815Z"/>
          <path id="Path_254" data-name="Path 254" class="cls-5" d="M703.286,84.088c4.731,1.847,7.1,3.22,11.828,7.275l-.13,11.854c-4.721-4.055-7.082-5.43-11.8-7.282Z"/>
          <path id="Path_255" data-name="Path 255" class="cls-4" d="M691.458,81.718a29.115,29.115,0,0,1,11.828,2.37l-.1,11.847a29.1,29.1,0,0,0-11.8-2.388C691.41,88.816,691.426,86.45,691.458,81.718Z"/>
          <path id="Path_256" data-name="Path 256" class="cls-5" d="M679.629,83.028a38.968,38.968,0,0,1,11.829-1.31c-.032,4.732-.048,7.1-.079,11.829a38.84,38.84,0,0,0-11.8,1.284Z"/>
          <path id="Path_257" data-name="Path 257" class="cls-4" d="M667.8,86.79a73.353,73.353,0,0,1,11.83-3.762l-.053,11.8a73,73,0,0,0-11.8,3.731C667.784,93.853,667.789,91.5,667.8,86.79Z"/>
          <path id="Path_258" data-name="Path 258" class="cls-5" d="M655.971,91.779c4.731-2.078,7.1-3.157,11.828-4.989-.01,4.709-.015,7.063-.026,11.772-4.721,1.818-7.082,2.891-11.8,4.954C655.97,98.821,655.97,96.473,655.971,91.779Z"/>
          <path id="Path_259" data-name="Path 259" class="cls-4" d="M644.143,96.767c4.731-1.832,7.1-2.911,11.828-4.988,0,4.694,0,7.042,0,11.737-4.72,2.063-7.081,3.136-11.8,4.954Z"/>
          <path id="Path_260" data-name="Path 260" class="cls-5" d="M632.314,100.53a73.349,73.349,0,0,0,11.829-3.763l.025,11.7a72.961,72.961,0,0,1-11.8,3.731C632.345,107.533,632.335,105.2,632.314,100.53Z"/>
          <path id="Path_261" data-name="Path 261" class="cls-4" d="M620.485,101.839a38.936,38.936,0,0,0,11.829-1.309c.021,4.668.031,7,.052,11.671a38.83,38.83,0,0,1-11.8,1.284C620.532,108.827,620.517,106.5,620.485,101.839Z"/>
          <path id="Path_262" data-name="Path 262" class="cls-5" d="M608.657,99.47a29.114,29.114,0,0,0,11.828,2.369c.032,4.659.047,6.988.079,11.646a29.109,29.109,0,0,1-11.8-2.388C608.719,106.446,608.7,104.121,608.657,99.47Z"/>
          <path id="Path_263" data-name="Path 263" class="cls-4" d="M596.829,92.195c4.731,4.054,7.1,5.428,11.828,7.275.041,4.651.062,6.976.1,11.627-4.721-1.852-7.081-3.227-11.8-7.282Z"/>
          <path id="Path_264" data-name="Path 264" class="cls-4" d="M703.39,72.24c4.742,1.842,7.113,3.214,11.855,7.268-.053,4.742-.079,7.113-.131,11.855-4.731-4.055-7.1-5.428-11.828-7.275C703.328,79.349,703.349,76.979,703.39,72.24Z"/>
          <path id="Path_265" data-name="Path 265" class="cls-5" d="M691.536,69.889A29.156,29.156,0,0,1,703.39,72.24c-.041,4.739-.062,7.109-.1,11.848a29.115,29.115,0,0,0-11.828-2.37C691.489,76.986,691.505,74.621,691.536,69.889Z"/>
          <path id="Path_266" data-name="Path 266" class="cls-4" d="M679.681,71.225a39.072,39.072,0,0,1,11.855-1.336c-.031,4.732-.047,7.1-.078,11.829a38.968,38.968,0,0,0-11.829,1.31C679.65,78.307,679.66,75.946,679.681,71.225Z"/>
          <path id="Path_267" data-name="Path 267" class="cls-5" d="M667.826,75.018a73.59,73.59,0,0,1,11.855-3.793c-.021,4.721-.031,7.082-.052,11.8A73.353,73.353,0,0,0,667.8,86.79C667.81,82.081,667.815,79.727,667.826,75.018Z"/>
          <path id="Path_268" data-name="Path 268" class="cls-4" d="M655.971,80.041c4.742-2.091,7.113-3.177,11.855-5.023-.011,4.709-.016,7.063-.027,11.772-4.731,1.832-7.1,2.911-11.828,4.989Z"/>
          <path id="Path_269" data-name="Path 269" class="cls-5" d="M644.116,85.064c4.742-1.845,7.113-2.932,11.855-5.023V91.779c-4.732,2.077-7.1,3.156-11.828,4.988C644.132,92.086,644.127,89.745,644.116,85.064Z"/>
          <path id="Path_270" data-name="Path 270" class="cls-4" d="M632.262,88.859a73.559,73.559,0,0,0,11.854-3.795c.011,4.681.016,7.022.027,11.7a73.349,73.349,0,0,1-11.829,3.763C632.293,95.861,632.283,93.527,632.262,88.859Z"/>
          <path id="Path_271" data-name="Path 271" class="cls-5" d="M620.407,90.194a39.068,39.068,0,0,0,11.855-1.335c.021,4.668.031,7,.052,11.671a38.936,38.936,0,0,1-11.829,1.309Z"/>
          <path id="Path_272" data-name="Path 272" class="cls-4" d="M608.552,87.843a29.147,29.147,0,0,0,11.855,2.351l.078,11.645a29.114,29.114,0,0,1-11.828-2.369Z"/>
          <path id="Path_273" data-name="Path 273" class="cls-5" d="M596.7,80.575c4.741,4.054,7.111,5.426,11.853,7.268l.1,11.627c-4.732-1.847-7.1-3.221-11.828-7.275Z"/>
        </g>
      </g>
    </g>
  </g>
</svg>
