<svg id="food" xmlns="http://www.w3.org/2000/svg" width="40.484" height="38.31" viewBox="0 0 40.484 38.31">
  <defs>
    <style>
      .cls-1 {
        fill: #2f3181;
      }

      .cls-2 {
        fill: #fff;
      }
    </style>
  </defs>
  <path id="Path" class="cls-1" d="M40.314,16.456a8.179,8.179,0,0,0-1.207-6.321A4.288,4.288,0,0,0,35.663,8.53H30.535l.4-7.614A.919.919,0,0,0,30.025,0H.9A.913.913,0,0,0,0,.916l1.691,33.25A4.141,4.141,0,0,0,5.825,38.31h19.3a4.136,4.136,0,0,0,4.117-4.144l.317-7.473a11.585,11.585,0,0,0,10.62-9.6c.049-.238.08-.459.131-.636"/>
  <path id="Fill_1" data-name="Fill 1" class="cls-2" d="M6.324.821a6.565,6.565,0,0,1,.637,4.273c-.031.176-.065.393-.1.629C6.507,8.081,4.693,12.372,0,12.916L.6,0H4.771A1.784,1.784,0,0,1,6.324.821" transform="translate(29.446 11.104)"/>
</svg>
