<svg xmlns="http://www.w3.org/2000/svg" width="30.532" height="51.2" viewBox="0 0 30.532 51.2">
  <defs>
    <style>
      .cls-1 {
        fill: #fff;
      }
    </style>
  </defs>
  <path id="start_en" class="cls-1" d="M14.093,0H9.864v15.03L15.736,25.6l-1.643,6.81-2.584-4.227H0v4.227H8.455l4.7,7.752a4.377,4.377,0,0,0,3.524,2.112,2.124,2.124,0,0,0,1.174-.234l12.682-3.992V25.835H26.306v8.69l-4.934,1.644L30.531,0H26.306L19.494,19.024l-5.4-7.28V0Zm-2.35,42.746a4.21,4.21,0,1,0,3,1.233A4.2,4.2,0,0,0,11.743,42.746Z" transform="translate(30.532 51.2) rotate(180)"/>
</svg>
