<svg xmlns="http://www.w3.org/2000/svg" xmlns:xlink="http://www.w3.org/1999/xlink" width="81" height="94" viewBox="0 0 81 94">
    <defs>
        <path id="a" d="M.449 35.053c0 19.211 15.573 34.784 34.783 34.784 19.211 0 34.784-15.573 34.784-34.784C70.016 15.843 54.443.27 35.232.27 16.022.27.449 15.843.449 35.053"/>
        <path id="c" d="M.449 35.053c0 19.211 15.573 34.784 34.783 34.784 19.211 0 34.784-15.573 34.784-34.784C70.016 15.843 54.443.27 35.232.27 16.022.27.449 15.843.449 35.053"/>
        <path id="e" d="M.449 35.053c0 19.211 15.573 34.784 34.783 34.784 19.211 0 34.784-15.573 34.784-34.784C70.016 15.843 54.443.27 35.232.27 16.022.27.449 15.843.449 35.053z"/>
        <path id="g" d="M.449 35.053c0 19.211 15.573 34.784 34.783 34.784 19.211 0 34.784-15.573 34.784-34.784C70.016 15.843 54.443.27 35.232.27 16.022.27.449 15.843.449 35.053"/>
        <path id="i" d="M.449 35.053c0 19.211 15.573 34.784 34.783 34.784 19.211 0 34.784-15.573 34.784-34.784C70.016 15.843 54.443.27 35.232.27 16.022.27.449 15.843.449 35.053"/>
        <path id="k" d="M.449 35.053c0 19.211 15.573 34.784 34.783 34.784 19.211 0 34.784-15.573 34.784-34.784C70.016 15.843 54.443.27 35.232.27 16.022.27.449 15.843.449 35.053"/>
        <path id="m" d="M.449 35.053c0 19.211 15.573 34.784 34.783 34.784 19.211 0 34.784-15.573 34.784-34.784C70.016 15.843 54.443.27 35.232.27 16.022.27.449 15.843.449 35.053"/>
        <path id="o" d="M.449 35.053c0 19.211 15.573 34.784 34.783 34.784 19.211 0 34.784-15.573 34.784-34.784C70.016 15.843 54.443.27 35.232.27 16.022.27.449 15.843.449 35.053"/>
        <path id="q" d="M.449 35.053c0 19.211 15.573 34.784 34.783 34.784 19.211 0 34.784-15.573 34.784-34.784C70.016 15.843 54.443.27 35.232.27 16.022.27.449 15.843.449 35.053"/>
        <path id="s" d="M.449 35.053c0 19.211 15.573 34.784 34.783 34.784 19.211 0 34.784-15.573 34.784-34.784C70.016 15.843 54.443.27 35.232.27 16.022.27.449 15.843.449 35.053"/>
        <path id="u" d="M.449 35.053c0 19.211 15.573 34.784 34.783 34.784 19.211 0 34.784-15.573 34.784-34.784C70.016 15.843 54.443.27 35.232.27 16.022.27.449 15.843.449 35.053z"/>
        <path id="w" d="M.449 35.053c0 19.211 15.573 34.784 34.783 34.784 19.211 0 34.784-15.573 34.784-34.784C70.016 15.843 54.443.27 35.232.27 16.022.27.449 15.843.449 35.053"/>
        <path id="y" d="M.449 35.053c0 19.211 15.573 34.784 34.783 34.784 19.211 0 34.784-15.573 34.784-34.784C70.016 15.843 54.443.27 35.232.27 16.022.27.449 15.843.449 35.053"/>
        <path id="A" d="M.449 35.053c0 19.211 15.573 34.784 34.783 34.784 19.211 0 34.784-15.573 34.784-34.784C70.016 15.843 54.443.27 35.232.27 16.022.27.449 15.843.449 35.053"/>
        <path id="C" d="M.449 35.053c0 19.211 15.573 34.784 34.783 34.784 19.211 0 34.784-15.573 34.784-34.784C70.016 15.843 54.443.27 35.232.27 16.022.27.449 15.843.449 35.053"/>
        <path id="E" d="M.449 35.053c0 19.211 15.573 34.784 34.783 34.784 19.211 0 34.784-15.573 34.784-34.784C70.016 15.843 54.443.27 35.232.27 16.022.27.449 15.843.449 35.053"/>
        <path id="G" d="M.449 35.053c0 19.211 15.573 34.784 34.783 34.784 19.211 0 34.784-15.573 34.784-34.784C70.016 15.843 54.443.27 35.232.27 16.022.27.449 15.843.449 35.053"/>
        <path id="I" d="M.449 35.053c0 19.211 15.573 34.784 34.783 34.784 19.211 0 34.784-15.573 34.784-34.784C70.016 15.843 54.443.27 35.232.27 16.022.27.449 15.843.449 35.053"/>
        <path id="K" d="M.449 35.053c0 19.211 15.573 34.784 34.783 34.784 19.211 0 34.784-15.573 34.784-34.784C70.016 15.843 54.443.27 35.232.27 16.022.27.449 15.843.449 35.053z"/>
        <path id="M" d="M.449 35.053c0 19.211 15.573 34.784 34.783 34.784 19.211 0 34.784-15.573 34.784-34.784C70.016 15.843 54.443.27 35.232.27 16.022.27.449 15.843.449 35.053"/>
        <path id="O" d="M.449 35.053c0 19.211 15.573 34.784 34.783 34.784 19.211 0 34.784-15.573 34.784-34.784C70.016 15.843 54.443.27 35.232.27 16.022.27.449 15.843.449 35.053"/>
        <path id="Q" d="M.449 35.053c0 19.211 15.573 34.784 34.783 34.784 19.211 0 34.784-15.573 34.784-34.784C70.016 15.843 54.443.27 35.232.27 16.022.27.449 15.843.449 35.053"/>
        <path id="S" d="M.449 35.053c0 19.211 15.573 34.784 34.783 34.784 19.211 0 34.784-15.573 34.784-34.784C70.016 15.843 54.443.27 35.232.27 16.022.27.449 15.843.449 35.053"/>
        <path id="U" d="M.449 35.053c0 19.211 15.573 34.784 34.783 34.784 19.211 0 34.784-15.573 34.784-34.784C70.016 15.843 54.443.27 35.232.27 16.022.27.449 15.843.449 35.053"/>
        <path id="W" d="M.449 35.053c0 19.211 15.573 34.784 34.783 34.784 19.211 0 34.784-15.573 34.784-34.784C70.016 15.843 54.443.27 35.232.27 16.022.27.449 15.843.449 35.053"/>
        <path id="Y" d="M.449 35.053c0 19.211 15.573 34.784 34.783 34.784 19.211 0 34.784-15.573 34.784-34.784C70.016 15.843 54.443.27 35.232.27 16.022.27.449 15.843.449 35.053"/>
        <path id="aa" d="M.449 35.053c0 19.211 15.573 34.784 34.783 34.784 19.211 0 34.784-15.573 34.784-34.784C70.016 15.843 54.443.27 35.232.27 16.022.27.449 15.843.449 35.053"/>
        <path id="ac" d="M.449 35.053c0 19.211 15.573 34.784 34.783 34.784 19.211 0 34.784-15.573 34.784-34.784C70.016 15.843 54.443.27 35.232.27 16.022.27.449 15.843.449 35.053"/>
        <path id="ae" d="M.449 35.053c0 19.211 15.573 34.784 34.783 34.784 19.211 0 34.784-15.573 34.784-34.784C70.016 15.843 54.443.27 35.232.27 16.022.27.449 15.843.449 35.053"/>
        <path id="ag" d="M.449 35.053c0 19.211 15.573 34.784 34.783 34.784 19.211 0 34.784-15.573 34.784-34.784C70.016 15.843 54.443.27 35.232.27 16.022.27.449 15.843.449 35.053"/>
        <path id="ai" d="M.449 35.053c0 19.211 15.573 34.784 34.783 34.784 19.211 0 34.784-15.573 34.784-34.784C70.016 15.843 54.443.27 35.232.27 16.022.27.449 15.843.449 35.053"/>
        <path id="ak" d="M.449 35.053c0 19.211 15.573 34.784 34.783 34.784 19.211 0 34.784-15.573 34.784-34.784C70.016 15.843 54.443.27 35.232.27 16.022.27.449 15.843.449 35.053"/>
        <path id="am" d="M.449 35.053c0 19.211 15.573 34.784 34.783 34.784 19.211 0 34.784-15.573 34.784-34.784C70.016 15.843 54.443.27 35.232.27 16.022.27.449 15.843.449 35.053"/>
        <path id="ao" d="M.449 35.053c0 19.211 15.573 34.784 34.783 34.784 19.211 0 34.784-15.573 34.784-34.784C70.016 15.843 54.443.27 35.232.27 16.022.27.449 15.843.449 35.053"/>
        <path id="aq" d="M.449 35.053c0 19.211 15.573 34.784 34.783 34.784 19.211 0 34.784-15.573 34.784-34.784C70.016 15.843 54.443.27 35.232.27 16.022.27.449 15.843.449 35.053z"/>
        <path id="as" d="M.449 35.053c0 19.211 15.573 34.784 34.783 34.784 19.211 0 34.784-15.573 34.784-34.784C70.016 15.843 54.443.27 35.232.27 16.022.27.449 15.843.449 35.053"/>
        <path id="au" d="M.449 35.053c0 19.211 15.573 34.784 34.783 34.784 19.211 0 34.784-15.573 34.784-34.784C70.016 15.843 54.443.27 35.232.27 16.022.27.449 15.843.449 35.053"/>
        <path id="aw" d="M.449 35.053c0 19.211 15.573 34.784 34.783 34.784 19.211 0 34.784-15.573 34.784-34.784C70.016 15.843 54.443.27 35.232.27 16.022.27.449 15.843.449 35.053"/>
        <path id="ay" d="M.449 35.053c0 19.211 15.573 34.784 34.783 34.784 19.211 0 34.784-15.573 34.784-34.784C70.016 15.843 54.443.27 35.232.27 16.022.27.449 15.843.449 35.053"/>
        <path id="aA" d="M.449 35.053c0 19.211 15.573 34.784 34.783 34.784 19.211 0 34.784-15.573 34.784-34.784C70.016 15.843 54.443.27 35.232.27 16.022.27.449 15.843.449 35.053"/>
        <path id="aC" d="M.449 35.053c0 19.211 15.573 34.784 34.783 34.784 19.211 0 34.784-15.573 34.784-34.784C70.016 15.843 54.443.27 35.232.27 16.022.27.449 15.843.449 35.053"/>
        <path id="aE" d="M.449 35.053c0 19.211 15.573 34.784 34.783 34.784 19.211 0 34.784-15.573 34.784-34.784C70.016 15.843 54.443.27 35.232.27 16.022.27.449 15.843.449 35.053"/>
        <path id="aG" d="M.449 35.053c0 19.211 15.573 34.784 34.783 34.784 19.211 0 34.784-15.573 34.784-34.784C70.016 15.843 54.443.27 35.232.27 16.022.27.449 15.843.449 35.053"/>
        <path id="aI" d="M.449 35.053c0 19.211 15.573 34.784 34.783 34.784 19.211 0 34.784-15.573 34.784-34.784C70.016 15.843 54.443.27 35.232.27 16.022.27.449 15.843.449 35.053"/>
        <path id="aK" d="M.449 35.053c0 19.211 15.573 34.784 34.783 34.784 19.211 0 34.784-15.573 34.784-34.784C70.016 15.843 54.443.27 35.232.27 16.022.27.449 15.843.449 35.053"/>
        <path id="aM" d="M.449 35.053c0 19.211 15.573 34.784 34.783 34.784 19.211 0 34.784-15.573 34.784-34.784C70.016 15.843 54.443.27 35.232.27 16.022.27.449 15.843.449 35.053"/>
        <path id="aO" d="M.449 35.053c0 19.211 15.573 34.784 34.783 34.784 19.211 0 34.784-15.573 34.784-34.784C70.016 15.843 54.443.27 35.232.27 16.022.27.449 15.843.449 35.053"/>
        <path id="aQ" d="M.449 35.053c0 19.211 15.573 34.784 34.783 34.784 19.211 0 34.784-15.573 34.784-34.784C70.016 15.843 54.443.27 35.232.27 16.022.27.449 15.843.449 35.053"/>
        <path id="aS" d="M.449 35.053c0 19.211 15.573 34.784 34.783 34.784 19.211 0 34.784-15.573 34.784-34.784C70.016 15.843 54.443.27 35.232.27 16.022.27.449 15.843.449 35.053z"/>
        <path id="aU" d="M.449 35.053c0 19.211 15.573 34.784 34.783 34.784 19.211 0 34.784-15.573 34.784-34.784C70.016 15.843 54.443.27 35.232.27 16.022.27.449 15.843.449 35.053"/>
        <path id="aW" d="M.449 35.053c0 19.211 15.573 34.784 34.783 34.784 19.211 0 34.784-15.573 34.784-34.784C70.016 15.843 54.443.27 35.232.27 16.022.27.449 15.843.449 35.053"/>
        <path id="aY" d="M.449 35.053c0 19.211 15.573 34.784 34.783 34.784 19.211 0 34.784-15.573 34.784-34.784C70.016 15.843 54.443.27 35.232.27 16.022.27.449 15.843.449 35.053z"/>
        <path id="ba" d="M.449 35.053c0 19.211 15.573 34.784 34.783 34.784 19.211 0 34.784-15.573 34.784-34.784C70.016 15.843 54.443.27 35.232.27 16.022.27.449 15.843.449 35.053"/>
        <path id="bc" d="M.449 35.053c0 19.211 15.573 34.784 34.783 34.784 19.211 0 34.784-15.573 34.784-34.784C70.016 15.843 54.443.27 35.232.27 16.022.27.449 15.843.449 35.053"/>
        <path id="be" d="M.449 35.053c0 19.211 15.573 34.784 34.783 34.784 19.211 0 34.784-15.573 34.784-34.784C70.016 15.843 54.443.27 35.232.27 16.022.27.449 15.843.449 35.053"/>
        <path id="bg" d="M.449 35.053c0 19.211 15.573 34.784 34.783 34.784 19.211 0 34.784-15.573 34.784-34.784C70.016 15.843 54.443.27 35.232.27 16.022.27.449 15.843.449 35.053"/>
    </defs>
    <g fill="none" fill-rule="evenodd">
        <path fill="#FFF" d="M79.982 40.51c0-21.814-17.685-39.5-39.5-39.5S.982 18.697.982 40.51c0 18.754 13.072 34.443 30.598 38.48l8.902 14.713 8.902-14.712c17.526-4.038 30.598-19.727 30.598-38.48"/>
        <path stroke="#88CC1F" d="M79.982 40.51c0-21.814-17.685-39.5-39.5-39.5S.982 18.697.982 40.51c0 18.754 13.072 34.443 30.598 38.48l8.902 14.713 8.902-14.712c17.526-4.038 30.598-19.727 30.598-38.48z"/>
        <g>
            <g transform="translate(5 5.669)">
                <mask id="b" fill="#fff">
                    <use xlink:href="#a"/>
                </mask>
                <path fill="#88CC1F" d="M73.565 48.115c4.659-1.014 6.988-1.32 11.646-1.126l-.08 11.83c-4.647-.204-6.97.097-11.618 1.1.02-4.722.03-7.083.052-11.804" mask="url(#b)"/>
            </g>
            <g transform="translate(5 5.669)">
                <mask id="d" fill="#fff">
                    <use xlink:href="#c"/>
                </mask>
                <path fill="#FFF" d="M61.919 51.656c4.658-1.738 6.988-2.527 11.646-3.54l-.052 11.802c-4.648 1.002-6.972 1.784-11.62 3.51l.026-11.772" mask="url(#d)"/>
            </g>
            <g transform="translate(5 5.669)">
                <mask id="f" fill="#fff">
                    <use xlink:href="#e"/>
                </mask>
                <path fill="#88CC1F" d="M50.273 56.405c4.658-1.98 6.988-3.01 11.646-4.749l-.026 11.771c-4.648 1.726-6.972 2.75-11.62 4.715V56.405z" mask="url(#f)"/>
            </g>
            <g transform="translate(5 5.669)">
                <mask id="h" fill="#fff">
                    <use xlink:href="#g"/>
                </mask>
                <path fill="#FFF" d="M38.627 61.154c4.658-1.74 6.987-2.77 11.646-4.75v11.739c-4.648 1.966-6.972 2.989-11.62 4.714l-.026-11.703" mask="url(#h)"/>
            </g>
            <g transform="translate(5 5.669)">
                <mask id="j" fill="#fff">
                    <use xlink:href="#i"/>
                </mask>
                <path fill="#88CC1F" d="M26.981 64.695c4.658-1.014 6.987-1.803 11.646-3.541l.026 11.703c-4.648 1.725-6.972 2.507-11.62 3.509-.02-4.668-.03-7.002-.052-11.671" mask="url(#j)"/>
            </g>
            <g transform="translate(5 5.669)">
                <mask id="l" fill="#fff">
                    <use xlink:href="#k"/>
                </mask>
                <path fill="#FFF" d="M15.335 65.821c4.659.193 6.988-.112 11.646-1.126l.052 11.671c-4.648 1.002-6.972 1.303-11.62 1.101l-.078-11.646" mask="url(#l)"/>
            </g>
            <g transform="translate(5 5.669)">
                <mask id="n" fill="#fff">
                    <use xlink:href="#m"/>
                </mask>
                <path fill="#88CC1F" d="M3.689 63.325c4.658 1.885 6.988 2.302 11.646 2.496l.079 11.645c-4.648-.203-6.973-.624-11.621-2.513l-.104-11.628" mask="url(#n)"/>
            </g>
            <g transform="translate(5 5.669)">
                <mask id="p" fill="#fff">
                    <use xlink:href="#o"/>
                </mask>
                <path fill="#FFF" d="M-7.957 56c4.658 4.057 6.987 5.442 11.646 7.326l.104 11.627c-4.648-1.89-6.972-3.276-11.62-7.333L-7.957 56" mask="url(#p)"/>
            </g>
            <g transform="translate(5 5.669)">
                <mask id="r" fill="#fff">
                    <use xlink:href="#q"/>
                </mask>
                <path fill="#FFF" d="M73.617 36.312c4.67-1.026 7.003-1.337 11.672-1.153-.03 4.732-.047 7.098-.078 11.83-4.658-.194-6.988.112-11.646 1.126l.052-11.803" mask="url(#r)"/>
            </g>
            <g transform="translate(5 5.669)">
                <mask id="t" fill="#fff">
                    <use xlink:href="#s"/>
                </mask>
                <path fill="#88CC1F" d="M61.945 39.885c4.668-1.752 7.003-2.547 11.672-3.573-.02 4.72-.03 7.082-.052 11.803-4.659 1.014-6.988 1.803-11.646 3.54l.026-11.77" mask="url(#t)"/>
            </g>
            <g transform="translate(5 5.669)">
                <mask id="v" fill="#fff">
                    <use xlink:href="#u"/>
                </mask>
                <path fill="#FFF" d="M50.273 44.668c4.669-1.994 7.003-3.031 11.672-4.783l-.026 11.77c-4.658 1.74-6.988 2.77-11.646 4.75V44.668z" mask="url(#v)"/>
            </g>
            <g transform="translate(5 5.669)">
                <mask id="x" fill="#fff">
                    <use xlink:href="#w"/>
                </mask>
                <path fill="#88CC1F" d="M38.601 49.45c4.67-1.752 7.003-2.789 11.672-4.783v11.739c-4.658 1.979-6.987 3.008-11.646 4.748l-.026-11.704" mask="url(#x)"/>
            </g>
            <g transform="translate(5 5.669)">
                <mask id="z" fill="#fff">
                    <use xlink:href="#y"/>
                </mask>
                <path fill="#FFF" d="M26.93 53.023c4.667-1.025 7.002-1.82 11.671-3.573l.026 11.703c-4.658 1.74-6.988 2.528-11.646 3.541-.02-4.668-.03-7.002-.052-11.67" mask="url(#z)"/>
            </g>
            <g transform="translate(5 5.669)">
                <mask id="B" fill="#fff">
                    <use xlink:href="#A"/>
                </mask>
                <path fill="#88CC1F" d="M15.257 54.176c4.669.185 7.003-.127 11.672-1.153.02 4.67.032 7.003.053 11.672-4.66 1.014-6.988 1.32-11.647 1.126l-.078-11.645" mask="url(#B)"/>
            </g>
            <g transform="translate(5 5.669)">
                <mask id="D" fill="#fff">
                    <use xlink:href="#C"/>
                </mask>
                <path fill="#FFF" d="M3.584 51.698c4.67 1.88 7.003 2.293 11.672 2.478.033 4.658.047 6.987.079 11.645-4.659-.193-6.988-.612-11.647-2.496-.04-4.65-.062-6.976-.104-11.627" mask="url(#D)"/>
            </g>
            <g transform="translate(5 5.669)">
                <mask id="F" fill="#fff">
                    <use xlink:href="#E"/>
                </mask>
                <path fill="#88CC1F" d="M-8.087 44.38c4.668 4.057 7.003 5.44 11.671 7.318l.105 11.628C-.969 61.442-3.298 60.056-7.957 56l-.13-11.62" mask="url(#F)"/>
            </g>
            <g transform="translate(5 5.669)">
                <mask id="H" fill="#fff">
                    <use xlink:href="#G"/>
                </mask>
                <path fill="#88CC1F" d="M73.67 24.509c4.678-1.038 7.018-1.354 11.697-1.18-.03 4.733-.047 7.099-.078 11.83-4.669-.184-7.003.127-11.672 1.153l.052-11.803" mask="url(#H)"/>
            </g>
            <g transform="translate(5 5.669)">
                <mask id="J" fill="#fff">
                    <use xlink:href="#I"/>
                </mask>
                <path fill="#FFF" d="M61.971 28.113c4.68-1.765 7.02-2.567 11.698-3.605-.02 4.722-.03 7.083-.052 11.804-4.668 1.026-7.003 1.821-11.672 3.572l.026-11.77" mask="url(#J)"/>
            </g>
            <g transform="translate(5 5.669)">
                <mask id="L" fill="#fff">
                    <use xlink:href="#K"/>
                </mask>
                <path fill="#88CC1F" d="M50.273 32.93c4.679-2.008 7.019-3.052 11.698-4.817l-.026 11.772c-4.67 1.752-7.003 2.788-11.672 4.782V32.931z" mask="url(#L)"/>
            </g>
            <g transform="translate(5 5.669)">
                <mask id="N" fill="#fff">
                    <use xlink:href="#M"/>
                </mask>
                <path fill="#FFF" d="M38.575 37.747c4.679-1.765 7.019-2.81 11.698-4.817v11.737c-4.67 1.994-7.003 3.031-11.672 4.783l-.026-11.703" mask="url(#N)"/>
            </g>
            <g transform="translate(5 5.669)">
                <mask id="P" fill="#fff">
                    <use xlink:href="#O"/>
                </mask>
                <path fill="#88CC1F" d="M26.877 41.352c4.679-1.038 7.019-1.84 11.698-3.604L38.6 49.45c-4.668 1.752-7.003 2.547-11.672 3.572l-.052-11.671" mask="url(#P)"/>
            </g>
            <g transform="translate(5 5.669)">
                <mask id="R" fill="#fff">
                    <use xlink:href="#Q"/>
                </mask>
                <path fill="#FFF" d="M15.179 42.531c4.679.175 7.019-.142 11.698-1.179.02 4.668.03 7.003.052 11.671-4.668 1.026-7.003 1.338-11.672 1.153l-.078-11.645" mask="url(#R)"/>
            </g>
            <g transform="translate(5 5.669)">
                <mask id="T" fill="#fff">
                    <use xlink:href="#S"/>
                </mask>
                <path fill="#88CC1F" d="M3.48 40.071c4.679 1.873 7.02 2.284 11.699 2.46l.078 11.645c-4.669-.185-7.004-.599-11.673-2.478L3.48 40.071" mask="url(#T)"/>
            </g>
            <g transform="translate(5 5.669)">
                <mask id="V" fill="#fff">
                    <use xlink:href="#U"/>
                </mask>
                <path fill="#FFF" d="M-8.217 32.76c4.679 4.056 7.019 5.437 11.697 7.311l.105 11.627c-4.67-1.878-7.003-3.26-11.672-7.318l-.13-11.62" mask="url(#V)"/>
            </g>
            <g transform="translate(5 5.669)">
                <mask id="X" fill="#fff">
                    <use xlink:href="#W"/>
                </mask>
                <path fill="#FFF" d="M73.721 12.705c4.69-1.049 7.035-1.37 11.725-1.205l-.079 11.83c-4.679-.176-7.019.141-11.698 1.178l.052-11.803" mask="url(#X)"/>
            </g>
            <g transform="translate(5 5.669)">
                <mask id="Z" fill="#fff">
                    <use xlink:href="#Y"/>
                </mask>
                <path fill="#88CC1F" d="M61.997 16.342c4.69-1.778 7.035-2.587 11.725-3.636l-.052 11.803c-4.68 1.038-7.02 1.839-11.698 3.604l.025-11.771" mask="url(#Z)"/>
            </g>
            <g transform="translate(5 5.669)">
                <mask id="ab" fill="#fff">
                    <use xlink:href="#aa"/>
                </mask>
                <path fill="#FFF" d="M50.272 21.193c4.69-2.022 7.035-3.073 11.724-4.852l-.025 11.772c-4.68 1.765-7.019 2.81-11.699 4.817V21.193" mask="url(#ab)"/>
            </g>
            <g transform="translate(5 5.669)">
                <mask id="ad" fill="#fff">
                    <use xlink:href="#ac"/>
                </mask>
                <path fill="#88CC1F" d="M38.549 26.044c4.689-1.778 7.034-2.83 11.724-4.85V32.93c-4.68 2.008-7.02 3.052-11.698 4.817l-.026-11.703" mask="url(#ad)"/>
            </g>
            <g transform="translate(5 5.669)">
                <mask id="af" fill="#fff">
                    <use xlink:href="#ae"/>
                </mask>
                <path fill="#FFF" d="M26.825 29.68c4.689-1.049 7.035-1.857 11.724-3.636l.026 11.704c-4.68 1.765-7.02 2.567-11.698 3.604l-.052-11.671" mask="url(#af)"/>
            </g>
            <g transform="translate(5 5.669)">
                <mask id="ah" fill="#fff">
                    <use xlink:href="#ag"/>
                </mask>
                <path fill="#88CC1F" d="M15.1 30.886c4.69.167 7.035-.156 11.725-1.205l.052 11.67c-4.679 1.039-7.019 1.356-11.698 1.18L15.1 30.887" mask="url(#ah)"/>
            </g>
            <g transform="translate(5 5.669)">
                <mask id="aj" fill="#fff">
                    <use xlink:href="#ai"/>
                </mask>
                <path fill="#FFF" d="M3.376 28.444c4.689 1.868 7.035 2.276 11.724 2.442l.079 11.645c-4.679-.175-7.02-.587-11.699-2.46l-.104-11.627" mask="url(#aj)"/>
            </g>
            <g transform="translate(5 5.669)">
                <mask id="al" fill="#fff">
                    <use xlink:href="#ak"/>
                </mask>
                <path fill="#88CC1F" d="M-8.348 21.14c4.69 4.056 7.034 5.436 11.724 7.304L3.48 40.07c-4.679-1.873-7.019-3.255-11.698-7.311l-.13-11.62" mask="url(#al)"/>
            </g>
            <g transform="translate(5 5.669)">
                <mask id="an" fill="#fff">
                    <use xlink:href="#am"/>
                </mask>
                <path fill="#88CC1F" d="M73.773.903c4.7-1.061 7.05-1.39 11.75-1.231-.03 4.73-.046 7.097-.078 11.829-4.69-.166-7.034.156-11.724 1.205L73.773.903" mask="url(#an)"/>
            </g>
            <g transform="translate(5 5.669)">
                <mask id="ap" fill="#fff">
                    <use xlink:href="#ao"/>
                </mask>
                <path fill="#FFF" d="M62.022 4.57c4.7-1.792 7.051-2.606 11.751-3.667-.02 4.721-.03 7.081-.052 11.802-4.69 1.05-7.035 1.858-11.725 3.636l.026-11.77" mask="url(#ap)"/>
            </g>
            <g transform="translate(5 5.669)">
                <mask id="ar" fill="#fff">
                    <use xlink:href="#aq"/>
                </mask>
                <path fill="#88CC1F" d="M50.272 9.456c4.7-2.036 7.05-3.094 11.75-4.886l-.026 11.772c-4.689 1.778-7.035 2.829-11.724 4.85V9.457z" mask="url(#ar)"/>
            </g>
            <g transform="translate(5 5.669)">
                <mask id="at" fill="#fff">
                    <use xlink:href="#as"/>
                </mask>
                <path fill="#FFF" d="M38.522 14.342c4.7-1.792 7.05-2.85 11.75-4.886v11.738c-4.689 2.02-7.034 3.072-11.724 4.85l-.026-11.702" mask="url(#at)"/>
            </g>
            <g transform="translate(5 5.669)">
                <mask id="av" fill="#fff">
                    <use xlink:href="#au"/>
                </mask>
                <path fill="#88CC1F" d="M26.772 18.01c4.7-1.061 7.05-1.876 11.75-3.668l.026 11.703c-4.689 1.778-7.034 2.587-11.724 3.636-.02-4.67-.03-7.003-.052-11.671" mask="url(#av)"/>
            </g>
            <g transform="translate(5 5.669)">
                <mask id="ax" fill="#fff">
                    <use xlink:href="#aw"/>
                </mask>
                <path fill="#FFF" d="M15.022 19.24c4.7.158 7.05-.17 11.75-1.23l.053 11.67c-4.69 1.05-7.035 1.372-11.725 1.206l-.078-11.645" mask="url(#ax)"/>
            </g>
            <g transform="translate(5 5.669)">
                <mask id="az" fill="#fff">
                    <use xlink:href="#ay"/>
                </mask>
                <path fill="#88CC1F" d="M3.272 16.817c4.7 1.863 7.05 2.267 11.75 2.424.031 4.658.046 6.987.079 11.645-4.69-.166-7.036-.574-11.726-2.442l-.103-11.627" mask="url(#az)"/>
            </g>
            <g transform="translate(5 5.669)">
                <mask id="aB" fill="#fff">
                    <use xlink:href="#aA"/>
                </mask>
                <path fill="#FFF" d="M-8.479 9.52c4.7 4.056 7.05 5.434 11.75 7.296l.105 11.627c-4.69-1.867-7.035-3.247-11.724-7.303l-.13-11.62" mask="url(#aB)"/>
            </g>
            <g transform="translate(5 5.669)">
                <mask id="aD" fill="#fff">
                    <use xlink:href="#aC"/>
                </mask>
                <path fill="#FFF" d="M73.826-10.9c4.71-1.074 7.066-1.407 11.776-1.258l-.078 11.83c-4.7-.158-7.05.17-11.75 1.23.02-4.72.03-7.082.052-11.803" mask="url(#aD)"/>
            </g>
            <g transform="translate(5 5.669)">
                <mask id="aF" fill="#fff">
                    <use xlink:href="#aE"/>
                </mask>
                <path fill="#88CC1F" d="M62.048-7.201c4.711-1.805 7.066-2.626 11.777-3.7-.02 4.722-.03 7.083-.052 11.804-4.7 1.06-7.05 1.875-11.75 3.667l.025-11.771" mask="url(#aF)"/>
            </g>
            <g transform="translate(5 5.669)">
                <mask id="aH" fill="#fff">
                    <use xlink:href="#aG"/>
                </mask>
                <path fill="#FFF" d="M50.272-2.281c4.71-2.05 7.066-3.115 11.776-4.92L62.022 4.57c-4.699 1.79-7.05 2.85-11.75 4.885V-2.281" mask="url(#aH)"/>
            </g>
            <g transform="translate(5 5.669)">
                <mask id="aJ" fill="#fff">
                    <use xlink:href="#aI"/>
                </mask>
                <path fill="#88CC1F" d="M38.496 2.639c4.71-1.805 7.065-2.871 11.776-4.92V9.455c-4.7 2.037-7.05 3.095-11.75 4.886L38.496 2.64" mask="url(#aJ)"/>
            </g>
            <g transform="translate(5 5.669)">
                <mask id="aL" fill="#fff">
                    <use xlink:href="#aK"/>
                </mask>
                <path fill="#FFF" d="M26.72 6.338c4.71-1.073 7.065-1.894 11.776-3.7l.026 11.703c-4.7 1.792-7.05 2.607-11.75 3.668-.02-4.669-.03-7.003-.052-11.67" mask="url(#aL)"/>
            </g>
            <g transform="translate(5 5.669)">
                <mask id="aN" fill="#fff">
                    <use xlink:href="#aM"/>
                </mask>
                <path fill="#88CC1F" d="M14.943 7.596c4.71.147 7.066-.186 11.777-1.258l.052 11.671c-4.7 1.061-7.05 1.389-11.75 1.232l-.079-11.645" mask="url(#aN)"/>
            </g>
            <g transform="translate(5 5.669)">
                <mask id="aP" fill="#fff">
                    <use xlink:href="#aO"/>
                </mask>
                <path fill="#FFF" d="M3.167 5.19c4.71 1.857 7.066 2.257 11.776 2.406l.079 11.645c-4.7-.157-7.051-.561-11.751-2.424L3.167 5.19" mask="url(#aP)"/>
            </g>
            <g transform="translate(5 5.669)">
                <mask id="aR" fill="#fff">
                    <use xlink:href="#aQ"/>
                </mask>
                <path fill="#88CC1F" d="M-8.609-2.1c4.71 4.055 7.065 5.432 11.776 7.29l.104 11.627c-4.7-1.863-7.05-3.24-11.75-7.297-.05-4.648-.078-6.972-.13-11.62" mask="url(#aR)"/>
            </g>
            <g transform="translate(5 5.669)">
                <mask id="aT" fill="#fff">
                    <use xlink:href="#aS"/>
                </mask>
                <path fill="#88CC1F" d="M50.272-14.019c4.721-2.063 7.082-3.136 11.803-4.954l-.027 11.771c-4.71 1.806-7.066 2.871-11.776 4.92v-11.737z" mask="url(#aT)"/>
            </g>
            <g transform="translate(5 5.669)">
                <mask id="aV" fill="#fff">
                    <use xlink:href="#aU"/>
                </mask>
                <path fill="#FFF" d="M38.47-9.064c4.721-1.82 7.081-2.891 11.802-4.955v11.738c-4.71 2.049-7.066 3.114-11.776 4.92L38.47-9.064" mask="url(#aV)"/>
            </g>
            <g transform="translate(5 5.669)">
                <mask id="aX" fill="#fff">
                    <use xlink:href="#aW"/>
                </mask>
                <path fill="#88CC1F" d="M26.668-5.333c4.721-1.084 7.081-1.913 11.802-3.731l.026 11.703c-4.71 1.805-7.065 2.627-11.776 3.699l-.052-11.671" mask="url(#aX)"/>
            </g>
            <g transform="translate(5 5.669)">
                <mask id="aZ" fill="#fff">
                    <use xlink:href="#aY"/>
                </mask>
                <path fill="#FFF" d="M14.865-4.05c4.721.139 7.082-.199 11.803-1.283l.052 11.671c-4.71 1.073-7.066 1.405-11.777 1.258L14.865-4.05z" mask="url(#aZ)"/>
            </g>
            <g transform="translate(5 5.669)">
                <mask id="bb" fill="#fff">
                    <use xlink:href="#ba"/>
                </mask>
                <path fill="#88CC1F" d="M3.063-6.438c4.72 1.853 7.082 2.25 11.803 2.388l.078 11.645c-4.712-.148-7.067-.548-11.778-2.406L3.063-6.438" mask="url(#bb)"/>
            </g>
            <g transform="translate(5 5.669)">
                <mask id="bd" fill="#fff">
                    <use xlink:href="#bc"/>
                </mask>
                <path fill="#FFF" d="M-8.74-13.72c4.72 4.056 7.082 5.43 11.803 7.283.04 4.65.062 6.976.104 11.627C-1.543 3.332-3.9 1.956-8.61-2.1l-.13-11.62" mask="url(#bd)"/>
            </g>
            <g transform="translate(5 5.669)">
                <mask id="bf" fill="#fff">
                    <use xlink:href="#be"/>
                </mask>
                <path fill="#88CC1F" d="M14.787-15.695c4.73.13 7.098-.213 11.829-1.31.02 4.669.03 7.003.052 11.672-4.721 1.084-7.082 1.422-11.802 1.283l-.08-11.645" mask="url(#bf)"/>
            </g>
            <g transform="translate(5 5.669)">
                <mask id="bh" fill="#fff">
                    <use xlink:href="#bg"/>
                </mask>
                <path fill="#FFF" d="M2.958-18.065c4.731 1.847 7.097 2.24 11.829 2.37l.078 11.645c-4.721-.14-7.082-.536-11.803-2.388l-.104-11.627" mask="url(#bh)"/>
            </g>
        </g>
    </g>
</svg>
