<svg xmlns="http://www.w3.org/2000/svg" xmlns:xlink="http://www.w3.org/1999/xlink" width="57" height="57" viewBox="0 0 57 57">
    <defs>
        <path id="a" d="M0 .814h56.187V57H0z"/>
    </defs>
    <g fill="none" fill-rule="evenodd">
        <g transform="translate(0 -.814)">
            <mask id="b" fill="#fff">
                <use xlink:href="#a"/>
            </mask>
            <path fill="#37557A" d="M28.094 4.814C14.809 4.814 4 15.622 4 28.907S14.809 53 28.094 53c13.285 0 24.093-10.808 24.093-24.093S41.379 4.814 28.094 4.814m0 52.186C12.603 57 0 44.397 0 28.907S12.603.814 28.094.814c15.49 0 28.093 12.603 28.093 28.093S43.584 57 28.094 57" mask="url(#b)"/>
        </g>
        <path fill="#37557A" d="M45.16 22.223a1.48 1.48 0 0 1-.613-.132l-6.567-2.944a1.5 1.5 0 0 1 1.227-2.737l6.566 2.944c.756.339 1.095 1.226.756 1.982-.25.557-.797.887-1.37.887M42.427 27.236a4 4 0 1 1-8 0 4 4 0 0 1 8 0M12.429 22.223a1.501 1.501 0 0 1-.614-2.869l6.565-2.944a1.5 1.5 0 0 1 1.227 2.737l-6.566 2.944a1.48 1.48 0 0 1-.612.132M15.16 27.236a4 4 0 1 0 8 0 4 4 0 0 0-8 0M19.259 43.764a1.5 1.5 0 0 1-1.15-2.462c2.719-3.254 8.916-5.046 17.447-5.046a1.5 1.5 0 1 1 0 3c-7.406 0-13.068 1.484-15.145 3.97a1.496 1.496 0 0 1-1.152.538"/>
    </g>
</svg>
