<svg xmlns="http://www.w3.org/2000/svg" width="41" height="36" viewBox="0 0 41 36">
    <g fill="none" fill-rule="evenodd">
        <path fill="#70A9D8" d="M19.994 0C8.995 0 0 6.983 0 16.588c0 6.149 3.998 11.218 9.563 14.072-.246 1.466-1.071 3.152-3.189 4.604.227.02.452.03.675.03 3.506 0 6.324-2.481 7.802-2.481.032 0 .062 0 .092.003 1.541.117 3.405.361 5.089.361 10.255 0 20.032-6.973 20.032-16.589S31.049.016 20.032 0h-.038zm.035 1.907c10.334.016 18.127 6.326 18.127 14.681 0 8.781-9.371 14.681-18.124 14.681-1.089 0-2.288-.114-3.448-.223-.52-.049-1.024-.097-1.497-.132a3.025 3.025 0 0 0-.236-.009c-1.022 0-2.014.484-3.165 1.043-.181.089-.367.18-.555.269.151-.444.25-.863.313-1.241l.231-1.376-1.242-.637c-5.338-2.739-8.525-7.365-8.525-12.375 0-8.232 7.944-14.681 18.086-14.681h.035z"/>
        <path fill="#9ACCEF" d="M11.59 0v35.294V0z"/>
        <path fill="#70A9D8" d="M26 18.125c.614.271 1.126.459 1.535.566.41.107.804.161 1.182.161.377 0 .675-.08.892-.237.218-.157.329-.391.329-.702a.763.763 0 0 0-.141-.457 1.605 1.605 0 0 0-.427-.393c-.191-.131-.567-.33-1.128-.594-.562-.264-.975-.511-1.242-.742-.594-.512-.89-1.155-.89-1.925 0-.771.264-1.381.792-1.829.534-.449 1.269-.672 2.205-.672.788 0 1.663.208 2.628.624l-.605 1.459a9.254 9.254 0 0 0-1.157-.4 3.845 3.845 0 0 0-.96-.121c-.325 0-.584.081-.778.245a.812.812 0 0 0-.291.651.81.81 0 0 0 .112.432c.075.123.196.244.363.359.168.114.567.321 1.196.62.823.392 1.39.788 1.696 1.193.312.387.467.873.467 1.459 0 .791-.289 1.423-.867 1.895-.577.456-1.357.684-2.344.684-.984 0-1.839-.176-2.567-.533v-1.743zM24.465 20.154h-1.751v-4.19c0-.283.002-.507.007-.672.004-.166.031-.856.084-2.071h-.054l-2.282 6.933h-1.72l-2.132-6.945h-.054c.076 1.377.114 2.319.114 2.828v4.117H15v-8.853h2.556l2.095 6.77h.036l2.221-6.77h2.557v8.853zM8 18.125c.614.271 1.126.459 1.535.566.41.107.804.161 1.182.161.377 0 .674-.08.891-.237.219-.157.329-.391.329-.702a.769.769 0 0 0-.14-.457 1.62 1.62 0 0 0-.427-.393c-.191-.131-.567-.33-1.129-.594-.561-.264-.975-.511-1.241-.742-.594-.512-.891-1.155-.891-1.925 0-.771.265-1.381.793-1.829.534-.449 1.268-.672 2.204-.672.788 0 1.664.208 2.628.624l-.605 1.459a9.199 9.199 0 0 0-1.157-.4 3.831 3.831 0 0 0-.959-.121c-.325 0-.584.081-.778.245a.809.809 0 0 0-.291.651.81.81 0 0 0 .112.432c.074.123.195.244.363.359.168.114.566.321 1.196.62.823.392 1.389.788 1.696 1.193.311.387.466.873.466 1.459 0 .791-.289 1.423-.866 1.895-.577.456-1.357.684-2.344.684-.985 0-1.84-.176-2.567-.533v-1.743z"/>
    </g>
</svg>
