<svg xmlns="http://www.w3.org/2000/svg" xmlns:xlink="http://www.w3.org/1999/xlink" width="81" height="94" viewBox="0 0 81 94">
    <defs>
        <path id="a" d="M.449 35.02c0 19.21 15.574 34.784 34.783 34.784 19.211 0 34.784-15.574 34.784-34.784C70.016 15.809 54.443.236 35.232.236 16.023.236.449 15.809.449 35.02"/>
        <path id="c" d="M.449 35.02c0 19.21 15.574 34.784 34.783 34.784 19.211 0 34.784-15.574 34.784-34.784C70.016 15.809 54.443.236 35.232.236 16.023.236.449 15.809.449 35.02"/>
        <path id="e" d="M.449 35.02c0 19.21 15.574 34.784 34.783 34.784 19.211 0 34.784-15.574 34.784-34.784C70.016 15.809 54.443.236 35.232.236 16.023.236.449 15.809.449 35.02z"/>
        <path id="g" d="M.449 35.02c0 19.21 15.574 34.784 34.783 34.784 19.211 0 34.784-15.574 34.784-34.784C70.016 15.809 54.443.236 35.232.236 16.023.236.449 15.809.449 35.02"/>
        <path id="i" d="M.449 35.02c0 19.21 15.574 34.784 34.783 34.784 19.211 0 34.784-15.574 34.784-34.784C70.016 15.809 54.443.236 35.232.236 16.023.236.449 15.809.449 35.02"/>
        <path id="k" d="M.449 35.02c0 19.21 15.574 34.784 34.783 34.784 19.211 0 34.784-15.574 34.784-34.784C70.016 15.809 54.443.236 35.232.236 16.023.236.449 15.809.449 35.02"/>
        <path id="m" d="M.449 35.02c0 19.21 15.574 34.784 34.783 34.784 19.211 0 34.784-15.574 34.784-34.784C70.016 15.809 54.443.236 35.232.236 16.023.236.449 15.809.449 35.02"/>
        <path id="o" d="M.449 35.02c0 19.21 15.574 34.784 34.783 34.784 19.211 0 34.784-15.574 34.784-34.784C70.016 15.809 54.443.236 35.232.236 16.023.236.449 15.809.449 35.02"/>
        <path id="q" d="M.449 35.02c0 19.21 15.574 34.784 34.783 34.784 19.211 0 34.784-15.574 34.784-34.784C70.016 15.809 54.443.236 35.232.236 16.023.236.449 15.809.449 35.02"/>
        <path id="s" d="M.449 35.02c0 19.21 15.574 34.784 34.783 34.784 19.211 0 34.784-15.574 34.784-34.784C70.016 15.809 54.443.236 35.232.236 16.023.236.449 15.809.449 35.02"/>
        <path id="u" d="M.449 35.02c0 19.21 15.574 34.784 34.783 34.784 19.211 0 34.784-15.574 34.784-34.784C70.016 15.809 54.443.236 35.232.236 16.023.236.449 15.809.449 35.02z"/>
        <path id="w" d="M.449 35.02c0 19.21 15.574 34.784 34.783 34.784 19.211 0 34.784-15.574 34.784-34.784C70.016 15.809 54.443.236 35.232.236 16.023.236.449 15.809.449 35.02"/>
        <path id="y" d="M.449 35.02c0 19.21 15.574 34.784 34.783 34.784 19.211 0 34.784-15.574 34.784-34.784C70.016 15.809 54.443.236 35.232.236 16.023.236.449 15.809.449 35.02"/>
        <path id="A" d="M.449 35.02c0 19.21 15.574 34.784 34.783 34.784 19.211 0 34.784-15.574 34.784-34.784C70.016 15.809 54.443.236 35.232.236 16.023.236.449 15.809.449 35.02z"/>
        <path id="C" d="M.449 35.02c0 19.21 15.574 34.784 34.783 34.784 19.211 0 34.784-15.574 34.784-34.784C70.016 15.809 54.443.236 35.232.236 16.023.236.449 15.809.449 35.02"/>
        <path id="E" d="M.449 35.02c0 19.21 15.574 34.784 34.783 34.784 19.211 0 34.784-15.574 34.784-34.784C70.016 15.809 54.443.236 35.232.236 16.023.236.449 15.809.449 35.02"/>
        <path id="G" d="M.449 35.02c0 19.21 15.574 34.784 34.783 34.784 19.211 0 34.784-15.574 34.784-34.784C70.016 15.809 54.443.236 35.232.236 16.023.236.449 15.809.449 35.02"/>
        <path id="I" d="M.449 35.02c0 19.21 15.574 34.784 34.783 34.784 19.211 0 34.784-15.574 34.784-34.784C70.016 15.809 54.443.236 35.232.236 16.023.236.449 15.809.449 35.02"/>
        <path id="K" d="M.449 35.02c0 19.21 15.574 34.784 34.783 34.784 19.211 0 34.784-15.574 34.784-34.784C70.016 15.809 54.443.236 35.232.236 16.023.236.449 15.809.449 35.02"/>
        <path id="M" d="M.449 35.02c0 19.21 15.574 34.784 34.783 34.784 19.211 0 34.784-15.574 34.784-34.784C70.016 15.809 54.443.236 35.232.236 16.023.236.449 15.809.449 35.02"/>
        <path id="O" d="M.449 35.02c0 19.21 15.574 34.784 34.783 34.784 19.211 0 34.784-15.574 34.784-34.784C70.016 15.809 54.443.236 35.232.236 16.023.236.449 15.809.449 35.02"/>
        <path id="Q" d="M.449 35.02c0 19.21 15.574 34.784 34.783 34.784 19.211 0 34.784-15.574 34.784-34.784C70.016 15.809 54.443.236 35.232.236 16.023.236.449 15.809.449 35.02"/>
        <path id="S" d="M.449 35.02c0 19.21 15.574 34.784 34.783 34.784 19.211 0 34.784-15.574 34.784-34.784C70.016 15.809 54.443.236 35.232.236 16.023.236.449 15.809.449 35.02"/>
        <path id="U" d="M.449 35.02c0 19.21 15.574 34.784 34.783 34.784 19.211 0 34.784-15.574 34.784-34.784C70.016 15.809 54.443.236 35.232.236 16.023.236.449 15.809.449 35.02"/>
        <path id="W" d="M.449 35.02c0 19.21 15.574 34.784 34.783 34.784 19.211 0 34.784-15.574 34.784-34.784C70.016 15.809 54.443.236 35.232.236 16.023.236.449 15.809.449 35.02"/>
        <path id="Y" d="M.449 35.02c0 19.21 15.574 34.784 34.783 34.784 19.211 0 34.784-15.574 34.784-34.784C70.016 15.809 54.443.236 35.232.236 16.023.236.449 15.809.449 35.02"/>
        <path id="aa" d="M.449 35.02c0 19.21 15.574 34.784 34.783 34.784 19.211 0 34.784-15.574 34.784-34.784C70.016 15.809 54.443.236 35.232.236 16.023.236.449 15.809.449 35.02z"/>
        <path id="ac" d="M.449 35.02c0 19.21 15.574 34.784 34.783 34.784 19.211 0 34.784-15.574 34.784-34.784C70.016 15.809 54.443.236 35.232.236 16.023.236.449 15.809.449 35.02"/>
        <path id="ae" d="M.449 35.02c0 19.21 15.574 34.784 34.783 34.784 19.211 0 34.784-15.574 34.784-34.784C70.016 15.809 54.443.236 35.232.236 16.023.236.449 15.809.449 35.02"/>
        <path id="ag" d="M.449 35.02c0 19.21 15.574 34.784 34.783 34.784 19.211 0 34.784-15.574 34.784-34.784C70.016 15.809 54.443.236 35.232.236 16.023.236.449 15.809.449 35.02z"/>
        <path id="ai" d="M.449 35.02c0 19.21 15.574 34.784 34.783 34.784 19.211 0 34.784-15.574 34.784-34.784C70.016 15.809 54.443.236 35.232.236 16.023.236.449 15.809.449 35.02"/>
        <path id="ak" d="M.449 35.02c0 19.21 15.574 34.784 34.783 34.784 19.211 0 34.784-15.574 34.784-34.784C70.016 15.809 54.443.236 35.232.236 16.023.236.449 15.809.449 35.02"/>
        <path id="am" d="M.449 35.02c0 19.21 15.574 34.784 34.783 34.784 19.211 0 34.784-15.574 34.784-34.784C70.016 15.809 54.443.236 35.232.236 16.023.236.449 15.809.449 35.02"/>
        <path id="ao" d="M.449 35.02c0 19.21 15.574 34.784 34.783 34.784 19.211 0 34.784-15.574 34.784-34.784C70.016 15.809 54.443.236 35.232.236 16.023.236.449 15.809.449 35.02"/>
        <path id="aq" d="M.449 35.02c0 19.21 15.574 34.784 34.783 34.784 19.211 0 34.784-15.574 34.784-34.784C70.016 15.809 54.443.236 35.232.236 16.023.236.449 15.809.449 35.02z"/>
        <path id="as" d="M.449 35.02c0 19.21 15.574 34.784 34.783 34.784 19.211 0 34.784-15.574 34.784-34.784C70.016 15.809 54.443.236 35.232.236 16.023.236.449 15.809.449 35.02"/>
        <path id="au" d="M.449 35.02c0 19.21 15.574 34.784 34.783 34.784 19.211 0 34.784-15.574 34.784-34.784C70.016 15.809 54.443.236 35.232.236 16.023.236.449 15.809.449 35.02"/>
        <path id="aw" d="M.449 35.02c0 19.21 15.574 34.784 34.783 34.784 19.211 0 34.784-15.574 34.784-34.784C70.016 15.809 54.443.236 35.232.236 16.023.236.449 15.809.449 35.02"/>
        <path id="ay" d="M.449 35.02c0 19.21 15.574 34.784 34.783 34.784 19.211 0 34.784-15.574 34.784-34.784C70.016 15.809 54.443.236 35.232.236 16.023.236.449 15.809.449 35.02"/>
        <path id="aA" d="M.449 35.02c0 19.21 15.574 34.784 34.783 34.784 19.211 0 34.784-15.574 34.784-34.784C70.016 15.809 54.443.236 35.232.236 16.023.236.449 15.809.449 35.02"/>
        <path id="aC" d="M.449 35.02c0 19.21 15.574 34.784 34.783 34.784 19.211 0 34.784-15.574 34.784-34.784C70.016 15.809 54.443.236 35.232.236 16.023.236.449 15.809.449 35.02"/>
        <path id="aE" d="M.449 35.02c0 19.21 15.574 34.784 34.783 34.784 19.211 0 34.784-15.574 34.784-34.784C70.016 15.809 54.443.236 35.232.236 16.023.236.449 15.809.449 35.02"/>
        <path id="aG" d="M.449 35.02c0 19.21 15.574 34.784 34.783 34.784 19.211 0 34.784-15.574 34.784-34.784C70.016 15.809 54.443.236 35.232.236 16.023.236.449 15.809.449 35.02z"/>
        <path id="aI" d="M.449 35.02c0 19.21 15.574 34.784 34.783 34.784 19.211 0 34.784-15.574 34.784-34.784C70.016 15.809 54.443.236 35.232.236 16.023.236.449 15.809.449 35.02"/>
        <path id="aK" d="M.449 35.02c0 19.21 15.574 34.784 34.783 34.784 19.211 0 34.784-15.574 34.784-34.784C70.016 15.809 54.443.236 35.232.236 16.023.236.449 15.809.449 35.02"/>
        <path id="aM" d="M.449 35.02c0 19.21 15.574 34.784 34.783 34.784 19.211 0 34.784-15.574 34.784-34.784C70.016 15.809 54.443.236 35.232.236 16.023.236.449 15.809.449 35.02"/>
        <path id="aO" d="M.449 35.02c0 19.21 15.574 34.784 34.783 34.784 19.211 0 34.784-15.574 34.784-34.784C70.016 15.809 54.443.236 35.232.236 16.023.236.449 15.809.449 35.02"/>
        <path id="aQ" d="M.449 35.02c0 19.21 15.574 34.784 34.783 34.784 19.211 0 34.784-15.574 34.784-34.784C70.016 15.809 54.443.236 35.232.236 16.023.236.449 15.809.449 35.02"/>
        <path id="aS" d="M.449 35.02c0 19.21 15.574 34.784 34.783 34.784 19.211 0 34.784-15.574 34.784-34.784C70.016 15.809 54.443.236 35.232.236 16.023.236.449 15.809.449 35.02z"/>
        <path id="aU" d="M.449 35.02c0 19.21 15.574 34.784 34.783 34.784 19.211 0 34.784-15.574 34.784-34.784C70.016 15.809 54.443.236 35.232.236 16.023.236.449 15.809.449 35.02"/>
        <path id="aW" d="M.449 35.02c0 19.21 15.574 34.784 34.783 34.784 19.211 0 34.784-15.574 34.784-34.784C70.016 15.809 54.443.236 35.232.236 16.023.236.449 15.809.449 35.02"/>
        <path id="aY" d="M.449 35.02c0 19.21 15.574 34.784 34.783 34.784 19.211 0 34.784-15.574 34.784-34.784C70.016 15.809 54.443.236 35.232.236 16.023.236.449 15.809.449 35.02z"/>
        <path id="ba" d="M.449 35.02c0 19.21 15.574 34.784 34.783 34.784 19.211 0 34.784-15.574 34.784-34.784C70.016 15.809 54.443.236 35.232.236 16.023.236.449 15.809.449 35.02"/>
        <path id="bc" d="M.449 35.02c0 19.21 15.574 34.784 34.783 34.784 19.211 0 34.784-15.574 34.784-34.784C70.016 15.809 54.443.236 35.232.236 16.023.236.449 15.809.449 35.02"/>
        <path id="be" d="M.449 35.02c0 19.21 15.574 34.784 34.783 34.784 19.211 0 34.784-15.574 34.784-34.784C70.016 15.809 54.443.236 35.232.236 16.023.236.449 15.809.449 35.02z"/>
        <path id="bg" d="M.449 35.02c0 19.21 15.574 34.784 34.783 34.784 19.211 0 34.784-15.574 34.784-34.784C70.016 15.809 54.443.236 35.232.236 16.023.236.449 15.809.449 35.02"/>
    </defs>
    <g fill="none" fill-rule="evenodd">
        <path fill="#FFF" stroke="#0E7AA2" d="M79.982 40.51c0-21.815-17.685-39.5-39.5-39.5S.982 18.695.982 40.51c0 18.753 13.072 34.441 30.6 38.48l8.9 14.712 8.902-14.712c17.526-4.039 30.598-19.727 30.598-38.48"/>
        <g transform="translate(5 5.703)">
            <mask id="b" fill="#fff">
                <use xlink:href="#a"/>
            </mask>
            <path fill="#00739B" d="M73.565 48.08c4.658-1.014 6.987-1.32 11.646-1.126l-.079 11.83c-4.648-.203-6.97.098-11.62 1.1l.053-11.803" mask="url(#b)"/>
        </g>
        <g transform="translate(5 5.703)">
            <mask id="d" fill="#fff">
                <use xlink:href="#c"/>
            </mask>
            <path fill="#FFF" d="M61.919 51.622c4.658-1.738 6.988-2.527 11.646-3.541l-.052 11.803c-4.648 1.003-6.972 1.785-11.62 3.509l.026-11.771" mask="url(#d)"/>
        </g>
        <g transform="translate(5 5.703)">
            <mask id="f" fill="#fff">
                <use xlink:href="#e"/>
            </mask>
            <path fill="#00739B" d="M50.273 56.37c4.658-1.98 6.987-3.01 11.646-4.748l-.027 11.77c-4.647 1.727-6.972 2.75-11.619 4.716V56.37z" mask="url(#f)"/>
        </g>
        <g transform="translate(5 5.703)">
            <mask id="h" fill="#fff">
                <use xlink:href="#g"/>
            </mask>
            <path fill="#FFF" d="M38.627 61.119c4.659-1.738 6.988-2.77 11.646-4.748v11.737c-4.648 1.966-6.971 2.99-11.62 4.714l-.026-11.703" mask="url(#h)"/>
        </g>
        <g transform="translate(5 5.703)">
            <mask id="j" fill="#fff">
                <use xlink:href="#i"/>
            </mask>
            <path fill="#00739B" d="M26.981 64.66c4.658-1.014 6.987-1.802 11.646-3.541l.026 11.703c-4.648 1.726-6.972 2.508-11.62 3.51-.02-4.668-.03-7.003-.052-11.671" mask="url(#j)"/>
        </g>
        <g transform="translate(5 5.703)">
            <mask id="l" fill="#fff">
                <use xlink:href="#k"/>
            </mask>
            <path fill="#FFF" d="M15.335 65.787c4.659.193 6.988-.112 11.646-1.126l.052 11.67c-4.647 1.004-6.971 1.304-11.62 1.102l-.078-11.646" mask="url(#l)"/>
        </g>
        <g transform="translate(5 5.703)">
            <mask id="n" fill="#fff">
                <use xlink:href="#m"/>
            </mask>
            <path fill="#00739B" d="M3.69 63.29c4.657 1.885 6.986 2.304 11.645 2.497l.078 11.646c-4.648-.203-6.972-.625-11.62-2.515L3.69 63.29" mask="url(#n)"/>
        </g>
        <g transform="translate(5 5.703)">
            <mask id="p" fill="#fff">
                <use xlink:href="#o"/>
            </mask>
            <path fill="#FFF" d="M-7.956 55.966c4.658 4.057 6.987 5.44 11.646 7.325l.104 11.627c-4.648-1.89-6.972-3.275-11.62-7.333l-.13-11.62" mask="url(#p)"/>
        </g>
        <g transform="translate(5 5.703)">
            <mask id="r" fill="#fff">
                <use xlink:href="#q"/>
            </mask>
            <path fill="#FFF" d="M73.617 36.277c4.669-1.025 7.004-1.337 11.672-1.152l-.078 11.83c-4.658-.195-6.988.111-11.646 1.126l.052-11.804" mask="url(#r)"/>
        </g>
        <g transform="translate(5 5.703)">
            <mask id="t" fill="#fff">
                <use xlink:href="#s"/>
            </mask>
            <path fill="#00739B" d="M61.945 39.85c4.67-1.752 7.003-2.547 11.672-3.573-.02 4.721-.03 7.082-.052 11.803-4.658 1.014-6.988 1.803-11.646 3.541l.026-11.77" mask="url(#t)"/>
        </g>
        <g transform="translate(5 5.703)">
            <mask id="v" fill="#fff">
                <use xlink:href="#u"/>
            </mask>
            <path fill="#FFF" d="M50.273 44.634c4.668-1.994 7.003-3.031 11.672-4.783l-.026 11.77c-4.659 1.74-6.988 2.77-11.646 4.75V44.634z" mask="url(#v)"/>
        </g>
        <g transform="translate(5 5.703)">
            <mask id="x" fill="#fff">
                <use xlink:href="#w"/>
            </mask>
            <path fill="#00739B" d="M38.601 49.416c4.668-1.751 7.003-2.79 11.672-4.782V56.37c-4.658 1.98-6.987 3.01-11.647 4.748l-.025-11.703" mask="url(#x)"/>
        </g>
        <g transform="translate(5 5.703)">
            <mask id="z" fill="#fff">
                <use xlink:href="#y"/>
            </mask>
            <path fill="#FFF" d="M26.93 52.989c4.668-1.025 7.002-1.821 11.672-3.573l.025 11.703c-4.659 1.739-6.988 2.527-11.646 3.542-.02-4.669-.03-7.003-.052-11.672" mask="url(#z)"/>
        </g>
        <g transform="translate(5 5.703)">
            <mask id="B" fill="#fff">
                <use xlink:href="#A"/>
            </mask>
            <path fill="#00739B" d="M15.257 54.141c4.669.185 7.004-.126 11.673-1.152.02 4.67.03 7.003.052 11.672-4.66 1.013-6.988 1.32-11.647 1.126l-.078-11.646z" mask="url(#B)"/>
        </g>
        <g transform="translate(5 5.703)">
            <mask id="D" fill="#fff">
                <use xlink:href="#C"/>
            </mask>
            <path fill="#FFF" d="M3.585 51.664c4.669 1.879 7.003 2.294 11.672 2.478l.078 11.645c-4.658-.193-6.987-.612-11.646-2.496l-.104-11.627" mask="url(#D)"/>
        </g>
        <g transform="translate(5 5.703)">
            <mask id="F" fill="#fff">
                <use xlink:href="#E"/>
            </mask>
            <path fill="#00739B" d="M-8.087 44.346c4.669 4.057 7.003 5.439 11.672 7.318l.104 11.627c-4.658-1.883-6.987-3.268-11.645-7.325-.053-4.648-.08-6.973-.131-11.62" mask="url(#F)"/>
        </g>
        <g transform="translate(5 5.703)">
            <mask id="H" fill="#fff">
                <use xlink:href="#G"/>
            </mask>
            <path fill="#00739B" d="M73.67 24.474c4.679-1.037 7.019-1.354 11.697-1.179l-.078 11.83c-4.668-.185-7.003.126-11.672 1.152l.053-11.803" mask="url(#H)"/>
        </g>
        <g transform="translate(5 5.703)">
            <mask id="J" fill="#fff">
                <use xlink:href="#I"/>
            </mask>
            <path fill="#FFF" d="M61.97 28.079c4.68-1.766 7.02-2.567 11.7-3.604l-.053 11.802c-4.668 1.027-7.002 1.822-11.671 3.573l.025-11.771" mask="url(#J)"/>
        </g>
        <g transform="translate(5 5.703)">
            <mask id="L" fill="#fff">
                <use xlink:href="#K"/>
            </mask>
            <path fill="#00739B" d="M50.272 32.896c4.68-2.008 7.02-3.053 11.698-4.817l-.025 11.771c-4.669 1.752-7.004 2.79-11.672 4.783V32.896" mask="url(#L)"/>
        </g>
        <g transform="translate(5 5.703)">
            <mask id="N" fill="#fff">
                <use xlink:href="#M"/>
            </mask>
            <path fill="#FFF" d="M38.575 37.714c4.679-1.766 7.019-2.81 11.697-4.817l.001 11.737c-4.669 1.993-7.004 3.03-11.672 4.782l-.026-11.702" mask="url(#N)"/>
        </g>
        <g transform="translate(5 5.703)">
            <mask id="P" fill="#fff">
                <use xlink:href="#O"/>
            </mask>
            <path fill="#00739B" d="M26.877 41.318c4.68-1.038 7.02-1.84 11.698-3.604l.027 11.702c-4.67 1.752-7.004 2.548-11.672 3.573l-.053-11.67" mask="url(#P)"/>
        </g>
        <g transform="translate(5 5.703)">
            <mask id="R" fill="#fff">
                <use xlink:href="#Q"/>
            </mask>
            <path fill="#FFF" d="M15.179 42.497c4.68.175 7.02-.142 11.698-1.18.022 4.669.03 7.004.053 11.672-4.67 1.027-7.004 1.337-11.673 1.153l-.078-11.645" mask="url(#R)"/>
        </g>
        <g transform="translate(5 5.703)">
            <mask id="T" fill="#fff">
                <use xlink:href="#S"/>
            </mask>
            <path fill="#00739B" d="M3.48 40.037c4.68 1.873 7.02 2.284 11.698 2.46l.078 11.644c-4.669-.183-7.003-.598-11.672-2.477L3.48 40.037" mask="url(#T)"/>
        </g>
        <g transform="translate(5 5.703)">
            <mask id="V" fill="#fff">
                <use xlink:href="#U"/>
            </mask>
            <path fill="#FFF" d="M-8.218 32.725c4.68 4.057 7.02 5.438 11.698 7.312l.105 11.626c-4.669-1.878-7.003-3.26-11.672-7.318l-.13-11.62" mask="url(#V)"/>
        </g>
        <g transform="translate(5 5.703)">
            <mask id="X" fill="#fff">
                <use xlink:href="#W"/>
            </mask>
            <path fill="#FFF" d="M73.722 12.672c4.689-1.05 7.034-1.371 11.725-1.205-.034 4.73-.049 7.098-.08 11.829-4.678-.176-7.019.142-11.698 1.179l.053-11.803" mask="url(#X)"/>
        </g>
        <g transform="translate(5 5.703)">
            <mask id="Z" fill="#fff">
                <use xlink:href="#Y"/>
            </mask>
            <path fill="#00739B" d="M61.997 16.307c4.689-1.778 7.035-2.587 11.725-3.636l-.052 11.803c-4.68 1.037-7.02 1.84-11.7 3.604l.027-11.77" mask="url(#Z)"/>
        </g>
        <g transform="translate(5 5.703)">
            <mask id="ab" fill="#fff">
                <use xlink:href="#aa"/>
            </mask>
            <path fill="#FFF" d="M50.272 21.159c4.69-2.021 7.035-3.073 11.725-4.852l-.027 11.772c-4.678 1.765-7.018 2.809-11.698 4.817V21.159z" mask="url(#ab)"/>
        </g>
        <g transform="translate(5 5.703)">
            <mask id="ad" fill="#fff">
                <use xlink:href="#ac"/>
            </mask>
            <path fill="#00739B" d="M38.549 26.01c4.689-1.779 7.034-2.83 11.724-4.852v11.739c-4.68 2.008-7.02 3.052-11.698 4.817l-.026-11.703" mask="url(#ad)"/>
        </g>
        <g transform="translate(5 5.703)">
            <mask id="af" fill="#fff">
                <use xlink:href="#ae"/>
            </mask>
            <path fill="#FFF" d="M26.825 29.646c4.689-1.049 7.034-1.857 11.724-3.636l.026 11.703c-4.679 1.765-7.019 2.567-11.698 3.605l-.052-11.672" mask="url(#af)"/>
        </g>
        <g transform="translate(5 5.703)">
            <mask id="ah" fill="#fff">
                <use xlink:href="#ag"/>
            </mask>
            <path fill="#00739B" d="M15.1 30.851c4.69.166 7.034-.155 11.725-1.205l.051 11.672c-4.678 1.037-7.018 1.353-11.698 1.18L15.1 30.85z" mask="url(#ah)"/>
        </g>
        <g transform="translate(5 5.703)">
            <mask id="aj" fill="#fff">
                <use xlink:href="#ai"/>
            </mask>
            <path fill="#FFF" d="M3.376 28.41c4.689 1.868 7.034 2.275 11.725 2.44l.078 11.647c-4.68-.176-7.02-.587-11.7-2.46L3.377 28.41" mask="url(#aj)"/>
        </g>
        <g transform="translate(5 5.703)">
            <mask id="al" fill="#fff">
                <use xlink:href="#ak"/>
            </mask>
            <path fill="#00739B" d="M-8.348 21.106c4.69 4.056 7.034 5.436 11.724 7.304l.104 11.627c-4.68-1.873-7.018-3.255-11.698-7.312l-.13-11.619" mask="url(#al)"/>
        </g>
        <g transform="translate(5 5.703)">
            <mask id="an" fill="#fff">
                <use xlink:href="#am"/>
            </mask>
            <path fill="#00739B" d="M73.773.868c4.7-1.061 7.051-1.388 11.751-1.23-.03 4.731-.047 7.097-.078 11.829-4.69-.166-7.035.155-11.725 1.205L73.773.868" mask="url(#an)"/>
        </g>
        <g transform="translate(5 5.703)">
            <mask id="ap" fill="#fff">
                <use xlink:href="#ao"/>
            </mask>
            <path fill="#FFF" d="M62.022 4.536c4.7-1.792 7.051-2.606 11.751-3.668-.02 4.722-.03 7.082-.052 11.804-4.689 1.049-7.035 1.857-11.724 3.635l.025-11.771" mask="url(#ap)"/>
        </g>
        <g transform="translate(5 5.703)">
            <mask id="ar" fill="#fff">
                <use xlink:href="#aq"/>
            </mask>
            <path fill="#00739B" d="M50.272 9.422c4.7-2.035 7.05-3.094 11.75-4.886-.01 4.708-.016 7.063-.025 11.772-4.69 1.778-7.036 2.83-11.725 4.85V9.423z" mask="url(#ar)"/>
        </g>
        <g transform="translate(5 5.703)">
            <mask id="at" fill="#fff">
                <use xlink:href="#as"/>
            </mask>
            <path fill="#FFF" d="M38.522 14.307c4.7-1.792 7.05-2.85 11.75-4.886V21.16c-4.689 2.021-7.034 3.072-11.724 4.851l-.026-11.703" mask="url(#at)"/>
        </g>
        <g transform="translate(5 5.703)">
            <mask id="av" fill="#fff">
                <use xlink:href="#au"/>
            </mask>
            <path fill="#00739B" d="M26.772 17.975c4.7-1.062 7.05-1.876 11.75-3.668l.026 11.703c-4.689 1.778-7.034 2.587-11.723 3.636l-.053-11.67" mask="url(#av)"/>
        </g>
        <g transform="translate(5 5.703)">
            <mask id="ax" fill="#fff">
                <use xlink:href="#aw"/>
            </mask>
            <path fill="#FFF" d="M15.021 19.206c4.7.158 7.051-.17 11.751-1.23.02 4.668.031 7.002.053 11.67-4.69 1.05-7.035 1.372-11.725 1.206-.03-4.66-.047-6.988-.079-11.646" mask="url(#ax)"/>
        </g>
        <g transform="translate(5 5.703)">
            <mask id="az" fill="#fff">
                <use xlink:href="#ay"/>
            </mask>
            <path fill="#00739B" d="M3.271 16.783c4.7 1.862 7.051 2.266 11.75 2.423l.08 11.645c-4.69-.166-7.036-.573-11.726-2.441l-.104-11.627" mask="url(#az)"/>
        </g>
        <g transform="translate(5 5.703)">
            <mask id="aB" fill="#fff">
                <use xlink:href="#aA"/>
            </mask>
            <path fill="#FFF" d="M-8.479 9.486c4.7 4.056 7.05 5.434 11.75 7.297l.104 11.627c-4.689-1.868-7.034-3.248-11.723-7.304l-.13-11.62" mask="url(#aB)"/>
        </g>
        <g transform="translate(5 5.703)">
            <mask id="aD" fill="#fff">
                <use xlink:href="#aC"/>
            </mask>
            <path fill="#FFF" d="M73.825-10.935c4.711-1.072 7.066-1.405 11.777-1.257l-.078 11.83c-4.7-.158-7.051.17-11.751 1.23l.052-11.803" mask="url(#aD)"/>
        </g>
        <g transform="translate(5 5.703)">
            <mask id="aF" fill="#fff">
                <use xlink:href="#aE"/>
            </mask>
            <path fill="#00739B" d="M62.049-7.236c4.71-1.806 7.066-2.627 11.776-3.699L73.774.868c-4.701 1.061-7.051 1.875-11.751 3.667l.026-11.77" mask="url(#aF)"/>
        </g>
        <g transform="translate(5 5.703)">
            <mask id="aH" fill="#fff">
                <use xlink:href="#aG"/>
            </mask>
            <path fill="#FFF" d="M50.272-2.316c4.71-2.05 7.065-3.115 11.776-4.92l-.026 11.772c-4.7 1.792-7.05 2.85-11.75 4.885V-2.316z" mask="url(#aH)"/>
        </g>
        <g transform="translate(5 5.703)">
            <mask id="aJ" fill="#fff">
                <use xlink:href="#aI"/>
            </mask>
            <path fill="#00739B" d="M38.496 2.604c4.71-1.806 7.065-2.87 11.776-4.92V9.421c-4.7 2.036-7.05 3.094-11.75 4.886l-.026-11.703" mask="url(#aJ)"/>
        </g>
        <g transform="translate(5 5.703)">
            <mask id="aL" fill="#fff">
                <use xlink:href="#aK"/>
            </mask>
            <path fill="#FFF" d="M26.72 6.303c4.71-1.072 7.066-1.893 11.776-3.699l.027 11.703c-4.7 1.792-7.05 2.606-11.75 3.668L26.72 6.303" mask="url(#aL)"/>
        </g>
        <g transform="translate(5 5.703)">
            <mask id="aN" fill="#fff">
                <use xlink:href="#aM"/>
            </mask>
            <path fill="#00739B" d="M14.943 7.561c4.711.148 7.066-.185 11.777-1.258l.052 11.672c-4.7 1.061-7.05 1.39-11.75 1.231l-.079-11.645" mask="url(#aN)"/>
        </g>
        <g transform="translate(5 5.703)">
            <mask id="aP" fill="#fff">
                <use xlink:href="#aO"/>
            </mask>
            <path fill="#FFF" d="M3.167 5.155c4.71 1.858 7.066 2.258 11.776 2.406l.078 11.645c-4.7-.157-7.05-.56-11.75-2.423L3.167 5.155" mask="url(#aP)"/>
        </g>
        <g transform="translate(5 5.703)">
            <mask id="aR" fill="#fff">
                <use xlink:href="#aQ"/>
            </mask>
            <path fill="#00739B" d="M-8.609-2.134c4.71 4.056 7.065 5.432 11.775 7.289l.105 11.628c-4.7-1.863-7.05-3.241-11.75-7.297l-.13-11.62" mask="url(#aR)"/>
        </g>
        <g transform="translate(5 5.703)">
            <mask id="aT" fill="#fff">
                <use xlink:href="#aS"/>
            </mask>
            <path fill="#00739B" d="M50.272-14.053c4.721-2.063 7.081-3.136 11.803-4.954l-.027 11.771c-4.71 1.805-7.066 2.871-11.776 4.92v-11.737z" mask="url(#aT)"/>
        </g>
        <g transform="translate(5 5.703)">
            <mask id="aV" fill="#fff">
                <use xlink:href="#aU"/>
            </mask>
            <path fill="#FFF" d="M38.47-9.099c4.72-1.818 7.082-2.89 11.803-4.954v11.737c-4.711 2.05-7.066 3.114-11.777 4.92L38.47-9.099" mask="url(#aV)"/>
        </g>
        <g transform="translate(5 5.703)">
            <mask id="aX" fill="#fff">
                <use xlink:href="#aW"/>
            </mask>
            <path fill="#00739B" d="M26.668-5.367c4.72-1.085 7.08-1.912 11.802-3.731l.026 11.703C33.786 4.41 31.43 5.232 26.72 6.304l-.053-11.671" mask="url(#aX)"/>
        </g>
        <g transform="translate(5 5.703)">
            <mask id="aZ" fill="#fff">
                <use xlink:href="#aY"/>
            </mask>
            <path fill="#FFF" d="M14.865-4.084c4.721.14 7.082-.2 11.803-1.283l.052 11.67c-4.71 1.074-7.066 1.407-11.777 1.259l-.078-11.646z" mask="url(#aZ)"/>
        </g>
        <g transform="translate(5 5.703)">
            <mask id="bb" fill="#fff">
                <use xlink:href="#ba"/>
            </mask>
            <path fill="#00739B" d="M3.062-6.472c4.721 1.853 7.082 2.248 11.803 2.388l.078 11.645c-4.71-.148-7.067-.548-11.777-2.406L3.062-6.472" mask="url(#bb)"/>
        </g>
        <g transform="translate(5 5.703)">
            <mask id="bd" fill="#fff">
                <use xlink:href="#bc"/>
            </mask>
            <path fill="#FFF" d="M-8.74-13.754C-4.017-9.7-1.657-8.324 3.064-6.472l.104 11.627c-4.71-1.857-7.065-3.233-11.775-7.29l-.131-11.62" mask="url(#bd)"/>
        </g>
        <g transform="translate(5 5.703)">
            <mask id="bf" fill="#fff">
                <use xlink:href="#be"/>
            </mask>
            <path fill="#00739B" d="M14.787-15.73c4.731.131 7.098-.213 11.829-1.31l.052 11.672c-4.721 1.084-7.082 1.423-11.803 1.284l-.078-11.646z" mask="url(#bf)"/>
        </g>
        <g transform="translate(5 5.703)">
            <mask id="bh" fill="#fff">
                <use xlink:href="#bg"/>
            </mask>
            <path fill="#FFF" d="M2.958-18.099c4.73 1.847 7.098 2.24 11.829 2.37l.078 11.645c-4.72-.14-7.082-.536-11.803-2.388l-.104-11.627" mask="url(#bh)"/>
        </g>
    </g>
</svg>
