<svg xmlns="http://www.w3.org/2000/svg" width="40" height="40" viewBox="0 0 40 40">
    <path fill="#0E7AA2" fill-rule="evenodd" d="M34.546 0H5.454C2.454 0 0 2.456 0 5.456v29.088C0 37.546 2.454 40 5.454 40H15.63V28.312L9.132 34.81a1.93 1.93 0 0 1-2.097.418c-.72-.298-1.188-1-1.188-1.778v-6.91c0-.511.202-.998.564-1.36L18.638 12.95a1.926 1.926 0 0 1 2.722 0L33.589 25.18c.362.362.564.849.564 1.36v6.91a1.925 1.925 0 0 1-3.285 1.36l-6.498-6.497V40h10.176c3 0 5.454-2.454 5.454-5.456V5.456C40 2.456 37.546 0 34.546 0"/>
</svg>
