<svg xmlns="http://www.w3.org/2000/svg" width="41" height="39" viewBox="0 0 41 39">
    <g fill="none" fill-rule="evenodd">
        <path fill="#0E7AA2" d="M40.314 16.456c.384-1.848.172-4.614-1.207-6.32-.84-1.04-2.033-1.606-3.444-1.606h-5.128l.402-7.614A.919.919 0 0 0 30.025 0H.9A.913.913 0 0 0 0 .916l1.691 33.25a4.141 4.141 0 0 0 4.134 4.144h19.304c2.27 0 4.117-1.86 4.117-4.144l.317-7.473c7.667-.662 10.147-6.885 10.62-9.6.05-.239.08-.46.131-.637"/>
        <path fill="#FFF" d="M35.77 11.925c.724 1.052.863 2.978.637 4.272-.03.176-.065.393-.097.629-.357 2.36-2.17 6.65-6.864 7.193l.597-12.915h4.174c.657 0 1.178.272 1.553.82"/>
    </g>
</svg>
