<svg xmlns="http://www.w3.org/2000/svg" width="47" height="44" viewBox="0 0 47 44">
    <g fill="#0E7AA2" fill-rule="evenodd">
        <path d="M13.725 5.939c0 2.346-1.924 4.247-4.307 4.247-2.373 0-4.303-1.901-4.303-4.247 0-2.345 1.93-4.249 4.303-4.249 2.383 0 4.307 1.904 4.307 4.249"/>
        <path d="M18.413 16.308c-1.448-3.61-5.022-6.167-9.2-6.167-4.18 0-7.748 2.557-9.202 6.167H0l.002.03-.002.004h.005l.463 8.955c0 1.817 1.494 3.292 3.338 3.292h.272v11.692c0 1.274 1.047 2.309 2.343 2.309h5.59c1.29 0 2.339-1.035 2.339-2.31V28.59h.271c1.849 0 3.34-1.476 3.34-3.293l.467-8.989h-.015zM41.01 5.939c0 2.342-1.93 4.247-4.312 4.247-2.375 0-4.3-1.905-4.3-4.247 0-2.345 1.925-4.249 4.3-4.249 2.381 0 4.312 1.904 4.312 4.249"/>
        <path d="M45.927 25.755a9.882 9.882 0 0 0-3.466-4.357l-.773-6.953c0-2.378-1.955-4.304-4.363-4.304h-1.194c-2.41 0-4.364 1.926-4.364 4.304l-.772 6.953a9.89 9.89 0 0 0-3.47 4.357l-.243 4.293c0 .95.776 1.72 1.742 1.72h3.848l.448 8.513c0 1.272 1.049 2.309 2.34 2.309h2.096c1.29 0 2.339-1.037 2.339-2.31l.484-8.512h3.85c.964 0 1.745-.77 1.745-1.72l-.247-4.293zM23.092 43.794a.917.917 0 0 1-.925-.907V.914c0-.504.415-.914.925-.914.509 0 .926.41.926.914v41.973c0 .5-.417.907-.926.907"/>
    </g>
</svg>
